<mxfile host="app.diagrams.net" modified="2024-02-23T10:46:42.697Z" agent="Mozilla/5.0 (X11; Ubuntu; Linux x86_64; rv:122.0) Gecko/20100101 Firefox/122.0" etag="9Q8Mn4XGI23xqsMt486B" version="22.1.18" type="google">
  <diagram name="Page-1" id="VLZbV77qWwDBbACNguHl">
    <mxGraphModel grid="1" page="1" gridSize="10" guides="1" tooltips="1" connect="1" arrows="1" fold="1" pageScale="1" pageWidth="850" pageHeight="1100" math="0" shadow="0">
      <root>
        <mxCell id="0" />
        <mxCell id="1" parent="0" />
        <mxCell id="IJQR4OGKdWdGs9fNsD_m-5" value="" style="group;" connectable="0" vertex="1" parent="1">
          <mxGeometry x="81" y="315" width="130" height="70" as="geometry" />
        </mxCell>
        <mxCell id="IJQR4OGKdWdGs9fNsD_m-1" value="&lt;div align=&quot;left&quot;&gt;&lt;b&gt;&amp;nbsp;&amp;nbsp;&amp;nbsp;&amp;nbsp;&amp;nbsp;&amp;nbsp;&amp;nbsp;&amp;nbsp;&amp;nbsp;&amp;nbsp;&amp;nbsp; MinIO&lt;/b&gt;&amp;nbsp; &lt;br&gt;&lt;/div&gt;&lt;div align=&quot;left&quot;&gt;&amp;nbsp;&amp;nbsp;&amp;nbsp;&amp;nbsp;&amp;nbsp;&amp;nbsp;&amp;nbsp;&amp;nbsp;&amp;nbsp;&amp;nbsp;&amp;nbsp; Storage of&amp;nbsp;&lt;/div&gt;&lt;div align=&quot;left&quot;&gt;&amp;nbsp;&amp;nbsp;&amp;nbsp;&amp;nbsp;&amp;nbsp;&amp;nbsp;&amp;nbsp;&amp;nbsp;&amp;nbsp;&amp;nbsp;&amp;nbsp; actual datasets &lt;br&gt;&lt;/div&gt;&lt;div align=&quot;left&quot;&gt;&amp;nbsp;&amp;nbsp;&amp;nbsp;&amp;nbsp;&amp;nbsp;&amp;nbsp;&amp;nbsp;&amp;nbsp;&amp;nbsp;&amp;nbsp;&amp;nbsp; etc.&lt;br&gt;&lt;/div&gt;" style="rounded=0;whiteSpace=wrap;html=1;align=left;strokeColor=#D73A27;" vertex="1" parent="IJQR4OGKdWdGs9fNsD_m-5">
          <mxGeometry width="130" height="70" as="geometry" />
        </mxCell>
        <mxCell id="IJQR4OGKdWdGs9fNsD_m-4" value="" style="shape=image;verticalLabelPosition=bottom;labelBackgroundColor=default;verticalAlign=top;aspect=fixed;imageAspect=0;image=data:image/png,iVBORw0KGgoAAAANSUhEUgAAAJ4AAAE/CAMAAACAbIq2AAAAkFBMVEX////HLEjFIUHZgI3EFDntxMrHKUbHKkbDADLDADHFGz3EDjfFIEDFHT7DCjX99/j67vD35Of029/KOVLLP1f99vf56uzgmqTnsbnTZXb24uXvzdLWc4LIMEzekZzPU2fkp7DNSV/puL/RXW/flJ/os7vYeojx0dbRXG/rvsXOUGXbiJTkqLHin6jWdYPMRVsrTKqUAAAL+0lEQVR4nO2d23qqMBBGATEiIFpPVaut1rbaWrfv/3ZbPBWYGQgmE7ngv+xHdZnAZE4JlsWhXvPj32ph2/Zwu5v0Wb7ibvX2q8gNHWHHEqEfiHnz0Uw3beZt/0x2k3DcznPv0WCxnqaRYyMSfvDafTSc9dFG4U7ynffHwo2HPgl3VCuYjh5I9+KKPLqjQmfzMLpJu4jueAu2fx9E9+kVwsXyPh5C992WorPt6PUBdE9yY3fiezaPNyi+725qT0zTNXItChg/w89vX35qYwnH7ALyU2JqYzlTk3QvUTk62w5M3n5vJQfvqLY5J3CGDt7RR/E7bhDieGJgDO+1g03f6nNsWaPNzscBfWPWeQjnVgQ356nbwO/M6MkM3RguZ0LMEhd8R9i96byZwXuHJjlIj8wLymfo6X0FN5f7mbnkBfO1RMeIcV5n/XdxANeg4xfOTeCBJ8NHZg0dP8/E2rtoZW+qGXIVNn4mjF8XxGYeet0L4q/6/K6fLJ71jbg17TE7H5jciPjOd8jnrNnxgKPsUhmVJeSLvrnxtlk82pt7Buub8LmN3w6YZfTRPV8bZK/tNJjxPsGiJn7Ii7/c7MUes+eHxJD+jrx6mv0xyBqjVwtocHNi2W3WO3SXvHiYOxrtyct/soYy4M1M9jF/MyJzPd1hho/bNUBDoTaZbBwNMnzRCyseHkjSFrcn0r9HLFjxrDc0ZeuR+fhxmOZjdg2IJAbtz83c9EId8LoGOzQFJAKSr++lxo/bNcATaK2IXN426UR0xFuYmeHJUeGTfM3UfwibFc/6xINt4ZB3VTN1w+asg1q0A4v9mU+Qa8J7avzo+0CPpliqJTZqJN8kOX7sWYMVnuxxBqTHmXKfA+aaVje7WF35hiRf0n0WIbPjPLLxPGS4Iv/lNcHH7jhnF9MbH+0+J9179pTpUwfn62zJf0m494IeZU3qu9mo9yyfzsX/+1sQ+XNqfTSXl8s3/+OL2Au+WC7lxPdF/stf+BHSF+lSkygRufRXr298BnJqSC7lzEcvqzeLLobseNaEmN+ALhbc+LjDyli/RBWLDn//wjfXQMMLzPVcbq0lybe48BnJOJfn612TDcxh5VkwF3UWHf5ewzcz5bYG7p7m8V26wgxknK3UYpV+PsioZ3YJj5jDyovmBF+b5OsHpxXbULEc5PLOEi4d/p5XbOaw8iqQy7vw0RnRl9OKw510uWpN8PkFfKaK0UR4JHzy7j9XZ9qGitEgF3rh65B8p/DXQD3mrGwu9Mpnk2vrbzx+/PWYs0Cu9sonSM84Dn9bjhk8OvwdkHz7iD/pclMPqSyc+A5k3B2Hvx5z0uWPjwp/c8LzwFirBswl3/hogqNHwZ10+dNd4Tl70uVPs+CO8Ldj6um4OSOQj/bdp75naO04akOkD3LCy3V7aQyPbELMqQ42uFNqSTWJ8JeuHpkV1ipix+6pEee9WBOiumAgcyElpFXk9PiasyD5IsJzz0ToLaNXNDznrlnJCw/PKzO9RPjLXbOSFxq+ObRzYFpvWPhmJDElpwPi3vMXNSiNXv9l/uAg7oGhzAXQPoyyS/sGMc85jWGMehe+cIDnsUTMX2R+K+pmFbuhEM/awtsv/Id8AKfG03M/CILXQ6yfZ3aP4sd1twaCZ/3C1cM3uQWwubgNEIaH7KMw+HCM14nYAsVrQufFTFL5qH2QvPVRPGsFhs/Q7PaH6RsLx2sC42Jm4X3Nxow4HtJ02uaH6w+AzSDwnoHrErD7BWDoaLwxeDg6zAWhpwPmbBJ48OFgLrj8emimgsLbgx5rzoJGd0qUISk82FIc8RWbNw51KAGFZwG/j+/Z+CBSUHl4YJeWz5QR7W6J+m0uHuhn7/BsvO8LYitpPt4k+2yELCmzX3pic/E22WeJxbJ8FWxvJvFmWTyGeG30U7SvnsTrZX+X/j6HmaAPOSnC62bxWrrtcpMoCVQDby9zFsbD8Iid1RXBm+bYYhk8+GhoTDN3V3gngzweNCz6ypC9Qd5KIYUHzbK2/rOnYoNSiAcXNV1J3Fn2MKx78KBLoMmb35DHJiHOgbxD5eppwOhHeP3z6LFtnwFfCXdUS+dtk/RQvJ3VBNZG3pkPdCSpSDoRfVol8GAopMMjaOLx2BEjjBOc8njgFBwddoWqa9udwynOksaDYbi/VKejXBT34ulK44G5tQPl9DL5zEZXiyqNB/feRap0T5S9a99aAmTxYHOB8q3XI/p5RKKhTRYPbut1FaPcLtGtJZIbGSTxNtBVVO2Xx4phMV2YvKUl8WDuVrXlcU10gjqpbh05vHeYLlKcW6KP28n0WUrhdR1oAFwlug88PeZkN0FK4c3hRKj5esQeG7gFUgYP67hRqtf38YgR2QApgfeETIRSeqWHVYjx/tliPNQ+KZ3dgbf3optvi/GwZgKlwZujIaPoYHa0EA9txVAZPKx4HbeOod2JRXhrzD6p7GDCSv/xOov/4AK8N3QiFNYztHGC7svKxRvjPeAqu+eIIy+oJSgP7xv3x1SOtPlA8zwBGTDn4FEJLQWLjO9o9ekUOonXdIiUUbC8m26ENryHOb4PgdffUmFA3ocVCXWicuNRBG9n9efkOdticX/zObpZtEVvpUHxxOANP6H8JPpUrUJha/cx7MktzEE8m9gRcf4whdYu6HHHPze/YQLBy5GnsJv+GfumTsH6UwrPo1vSC4We8VNoQsvgRSoVyAM6tUWtOiXw2gpjh0+tV5i/lMYTKved9YTZFIkG429JPOEqVeax/YMyZRHklFlMnYHSXpYJZvJwBzStvVQxJlBL93SxKYokbpaZzOA5Mp+UpzkytTLhyjOxZyk9dG+KnXpI/shuOYV5818hMXYhOFK4tLBTwwo39XwuiNNiUlPgNZS3xy2RO6/osJTvQeELNuL4aa2+t2CEbBosOFv/5ZDfLHKB+9FR9mkgPmhuT/tmJQMXrLS0SM0QVyAvTj766TJwQ01N+6BQmHs4bX/tFVd29cGh2wUDyhbMiDcJpeFcW19rGeJHUVuNZ3SEk6RbaGxIRpLSxDEG469Iqp2ArOfeIyQ3iLpRvUZbstdBJ94EWuSWgM/FqEG9/YEXDzmlDm4i77660nBa8ZZwTQdNdaMPV7LBRjsespxl32Tz3Cn1IhydeMjgZdaLvVuig0U3Hnb0dNJ1lHLo2PCQxzZ5OsDE8SV8YT48ZPDcm1GR8jaFu2DDQ0LU26FV71Le5nHll28UKSuYkLo6od9DiR5RERy+y/SxlBQS/5w7S5pScO7iZL7Z8KCfJ8L4+6T89GBwWVu48JDXK/m/1subDNxl5DjxYIQhBpsfKTg7EfQz4WFpi4XECpGGY8ND1jMJtXw7ky5hwivzPr7byPlimf0cHrzyL207jpwD4LjwsJRUvpCRY8Mbyb6n8iLhu3s89GXBK/dgCD8kk+oseMhL22j5PjFyXHjoOzxIuI+8ZBUHHnz9Tg5cfpKUA0+2VNIJCuBY8CQrOR13V9yWzYAnZfRC71WmZ1w/Xlcmnx405Bra9eMVz23o7WT7dPTjFc1t6DXkm4i046EFqgRc9FWmiKMdL3duw/a8XIVJO94XbZOdaF62rqkdj+zjcNrT8kVX3XhYee88ctN7Cky68eDhD6fP9Lb39UvqxsN6aYQ3vbeZUzNeDxYKnOjt/k5TzXggLSW8rUppTjNeI71kiEixbqgZL5VyVIbTjTdOVEdFcFCvG+rF+7v1NBU19eJdo4wjnJ7tnXrxzlZPuANdFVeteCdHWbgL5dYSHrx+YLd0wmnGm7iu0Ht4lla8hqP7ZC+teDqn9Sy+sosW1XgqqvFUVOOpqMZTUY2nohpPRTWeimo8FdV4KqrxVFTjqajGU1GNp6IaT0U1nopqPBXVeCqq8VRU46moxlNRjaeiGk9FNZ6KajwV1XgqqvFUVOOpqMZTUY2nohpPRTWeimo8FdV4KqrxVFTjqajGU1GNp6ImOIChUnjWPDt81cKz5n6l8bJ8VcPL8FUOz5r6lcZL8VUQL8lXRbwEXyXx/viqiWdtO5XGu75AqKp41k9Yabzza3qqi3cavwrjxS/YqzJe9xBWGe/I51YZz+oOC46Af7C6d7+D5D8CHKvRJ9W5ewAAAABJRU5ErkJggg==;" vertex="1" parent="IJQR4OGKdWdGs9fNsD_m-5">
          <mxGeometry x="7.833333333333332" y="8.416666666666668" width="26.292499999999997" height="53.08333333333333" as="geometry" />
        </mxCell>
        <mxCell id="IJQR4OGKdWdGs9fNsD_m-18" value="" style="group" connectable="0" vertex="1" parent="1">
          <mxGeometry x="580" y="363.04" width="131" height="70" as="geometry" />
        </mxCell>
        <mxCell id="IJQR4OGKdWdGs9fNsD_m-60" value="" style="group" connectable="0" vertex="1" parent="IJQR4OGKdWdGs9fNsD_m-18">
          <mxGeometry x="12" width="130" height="70" as="geometry" />
        </mxCell>
        <mxCell id="IJQR4OGKdWdGs9fNsD_m-19" value="&lt;div&gt;&lt;b&gt;&amp;nbsp;&amp;nbsp;&amp;nbsp;&amp;nbsp;&amp;nbsp;&amp;nbsp;&amp;nbsp;&amp;nbsp; ElasticSearch&lt;br&gt;&amp;nbsp;&amp;nbsp;&amp;nbsp;&amp;nbsp;&amp;nbsp;&amp;nbsp;&amp;nbsp;&amp;nbsp; &lt;/b&gt;Search dataset&lt;br&gt;&amp;nbsp;&amp;nbsp;&amp;nbsp;&amp;nbsp;&amp;nbsp;&amp;nbsp;&amp;nbsp;&amp;nbsp; by name etc.&lt;br&gt;&lt;/div&gt;" style="rounded=0;whiteSpace=wrap;html=1;align=left;" vertex="1" parent="IJQR4OGKdWdGs9fNsD_m-60">
          <mxGeometry width="130" height="70" as="geometry" />
        </mxCell>
        <mxCell id="IJQR4OGKdWdGs9fNsD_m-20" value="" style="shape=image;verticalLabelPosition=bottom;labelBackgroundColor=default;verticalAlign=top;aspect=fixed;imageAspect=0;image=https://seeklogo.com/images/E/elasticsearch-logo-C75C4578EC-seeklogo.com.png;" vertex="1" parent="IJQR4OGKdWdGs9fNsD_m-60">
          <mxGeometry x="8" y="25.96" width="17.14" height="19.04" as="geometry" />
        </mxCell>
        <mxCell id="IJQR4OGKdWdGs9fNsD_m-21" value="&lt;div&gt;&lt;b&gt;Metadata db&lt;br&gt;&lt;/b&gt;&lt;/div&gt;&lt;div&gt;Datasets etc.&lt;br&gt;Incl MinIO link&lt;br&gt;&lt;/div&gt;" style="shape=datastore;whiteSpace=wrap;html=1;fillColor=#e1d5e7;strokeColor=#9673a6;" vertex="1" parent="1">
          <mxGeometry x="406" y="128" width="99" height="70" as="geometry" />
        </mxCell>
        <mxCell id="IJQR4OGKdWdGs9fNsD_m-30" value="" style="group" connectable="0" vertex="1" parent="1">
          <mxGeometry x="628" y="485" width="133" height="70" as="geometry" />
        </mxCell>
        <mxCell id="IJQR4OGKdWdGs9fNsD_m-31" value="&lt;div&gt;&lt;b&gt;&amp;nbsp;&amp;nbsp;&amp;nbsp;&amp;nbsp;&amp;nbsp;&amp;nbsp;&amp;nbsp;&amp;nbsp; Frontend&lt;/b&gt;&lt;br&gt;&lt;/div&gt;&lt;div&gt;&amp;nbsp;&amp;nbsp;&amp;nbsp;&amp;nbsp;&amp;nbsp;&amp;nbsp;&amp;nbsp;&amp;nbsp; Git: openml.org&lt;br&gt;&lt;/div&gt;" style="rounded=0;whiteSpace=wrap;html=1;align=left;fillColor=#dae8fc;strokeColor=#6c8ebf;" vertex="1" parent="IJQR4OGKdWdGs9fNsD_m-30">
          <mxGeometry x="-2" y="10" width="130" height="70" as="geometry" />
        </mxCell>
        <mxCell id="IJQR4OGKdWdGs9fNsD_m-44" value="" style="shape=image;verticalLabelPosition=bottom;labelBackgroundColor=default;verticalAlign=top;aspect=fixed;imageAspect=0;image=https://www.abrilliants.com/wp-content/uploads/2023/05/1631110818-logo-react-js.png;" vertex="1" parent="IJQR4OGKdWdGs9fNsD_m-30">
          <mxGeometry x="-9" y="30" width="45.66" height="30" as="geometry" />
        </mxCell>
        <mxCell id="IJQR4OGKdWdGs9fNsD_m-32" value="" style="group" connectable="0" vertex="1" parent="1">
          <mxGeometry x="681" y="291.99999999999994" width="130" height="69.04" as="geometry" />
        </mxCell>
        <mxCell id="IJQR4OGKdWdGs9fNsD_m-33" value="&lt;div&gt;&lt;b&gt;&amp;nbsp;&amp;nbsp;&amp;nbsp;&amp;nbsp;&amp;nbsp;&amp;nbsp;&amp;nbsp;&amp;nbsp; Backend&lt;/b&gt;&lt;br&gt;&amp;nbsp;&amp;nbsp;&amp;nbsp;&amp;nbsp;&amp;nbsp;&amp;nbsp;&amp;nbsp;&amp;nbsp; Authorization,&lt;br&gt;&amp;nbsp;&amp;nbsp;&amp;nbsp;&amp;nbsp;&amp;nbsp;&amp;nbsp;&amp;nbsp;&amp;nbsp; dashboard...&lt;br&gt;&lt;/div&gt;&lt;div&gt;&amp;nbsp;&amp;nbsp;&amp;nbsp;&amp;nbsp;&amp;nbsp;&amp;nbsp;&amp;nbsp;&amp;nbsp; Git: openml.org&lt;br&gt;&lt;/div&gt;" style="rounded=0;whiteSpace=wrap;html=1;align=left;fillColor=#dae8fc;strokeColor=#6c8ebf;" vertex="1" parent="IJQR4OGKdWdGs9fNsD_m-32">
          <mxGeometry y="-6" width="130" height="69.04" as="geometry" />
        </mxCell>
        <mxCell id="IJQR4OGKdWdGs9fNsD_m-48" value="" style="shape=image;verticalLabelPosition=bottom;labelBackgroundColor=default;verticalAlign=top;aspect=fixed;imageAspect=0;image=data:image/png,iVBORw0KGgoAAAANSUhEUgAAAoAAAAHgCAYAAAA10dzkAAAACXBIWXMAAA7EAAAOxAGVKw4bAAAgAElEQVR4nOzdfXxc1X3v+89ae89oNJYlWRhZ2EIYQwg4tnlMAgkQQgjtzaEklwbStMlpem6bJqevc9s0bU6bc9o0rz7etGnubU+b05yb06c0D5BykjTtbYAQQgIhBAjYjnEJGMcYIQsjy7I8Gs3svdb9Y89IIzN6ljyj2d/36wWzNXvP3r958J41v99ea4GIiIiIiIiIiIiIiIiIiIiIiIiIiIiIiIg0PdPoAEREVsuGt/y8BdjQ1mbP7erKrcQ+99x3Z3H44P5oJfYlItIoYaMDEBFZLe2vuAyADevWhdt6e7Mrsc8Dj3+rBPtXYlciIg1jGx2AiIiIiJxeKgGLSMOde8k12Rve8+EOgKHnD9nxE8dnrF+3fsPW3v5t1wIcPT62c2Ky1AswcnxsQWXdtjDo7cxndwCUIofzfsmxThRLu6MoHl7Itj09G0oA2dAW1uezRwFGhwe/MHnyxN7a7TrWd9G3ZcAB3PM3fzD+7OPfKi05QBGRBVAGUERERCRldA2giKyabZdflwfwzhE7FwLEUXm7i10vwETkLUB249bs6MliHqDorI1s24z9FJ3ZePxk4VUAxVJ5oBzFnQDG2DrX9b08u+egsxQ5ACLnX54BnDUh+PIVHrqNWVjxpFwuRwDe2ZLBdQKUYnNtZDLbarcrxjA6XnAAbT1nF3q2XTIjA2jwwwF+X3J8X8LgAF58Zk9xQYGIiJxCJWARWTXv+6v7+gGiKAqLpaSBVxg78dHyZOk6gMNjcQ7AGMLQmko510C1geXd9M7MAgsWtY+Zf+MZN7Oun3c3s2xX935ff331OUelAi6e0cs4JL6v3UQfAXDGjXpDEeC+T/7G0MICFBGZSSVgERERkZRRBlBEluxN/+G3ewEKk+XcS8dPdgP4uHSj9+48gG2vfnM/gPfexr5SAi5H252rlIDLrvoj1FpTJ8VXL0M2Y3012zdL1nBeq5wBnG//MzKclfidi6YfkNwa74cDXKUE7Eq+8sCJ5/Y/BWDD8NlMPn8vwNPf/vLhkUP/NrawwEUkrXQNoIgs2bbLrusAOD4+0cHwaB+Ai4qvx0dXAIyeKPRPbTyjAZcsW7tSRQhPU/6enXrOfmYjcOr+OjFbW3NeTh7kvd8cEWwG8C6eur/vgiv2AgRtbY/lOjt3Azy/54Fh+LeVew4i0pJUAhYRERFJmSb8ySwizWbLBZeGr73557MAYWfPv7dt+YsBDgwdf9/URnN10pivRLrox831mCYqAdfeb6dKvAvb52zH93X+qDlOVz47lsuGJYDJ558+D2Do4L5o9zf/sbCIA4tIi1MGUERERCRldA2giMxqywWXhgBdZ23rLzh7NUBQcpcbHw3M3HKWYsIyZtxYkPk6iTST1X4tKsqxy1KOAYjD3NsA2nrOGtqy8/WPAYwc2j82cfwlzTQiknJNfsYUkUa65df+Ihm7z9lbRqLM3wNgs2CDyhbLLeEu8/H1xglsphKwqVk/tc1ieiwvsAQ8iyxJQ7Ctvf2+rjPO+AjAdz/7sX3P73ng6DwHFpEWpxKwiIiISMooAygiM/TvuibXtemcLMCGi97wSQBn7EBkM1cnW9iZw5vMZdUzgHVKwM2UAaw3zt+iSsHLywDaZMY4rLXDYTazD2B08OBfF08cfxzgqa/+2e5FBCMiLUTXAIrIDF2bzsn2nrcrCzDqgpsBjLVhWC37Lqb9sqRGzxL2vxas9mtRh6v8xo9j11suTPQCtPdue3DdWdnqFHJqAIqklErAIiIiIimzhn4+i8hq8vdfYwE+9NCbPn3P89tuBsiEQc/LN5z1jzo7VSeQqfUN6ARS//lN/7E+Hr8U4Mgzu0f33vOZg/PsTERaiDKAIiIiIimjawBFhOuu3Np5/9ArBgBemlzfY4zJrvQxqkkvg5ladtVklPeLurSwzt6X9ehVs5AZQhooNsENAO0beg8MXHz1CMDRg/sLheNHo8ZGJiKrrUnPmiJyOm266Kodu37yg+8AKJSiW8qx256sWW4JMmGAsDIVWmANttICLMdJCdR5T1xvijRNBTfPXUspAU/LmiSWfEf+rt6+Mz8AcP/f/NHhQ098e2wRQYrIGqQSsIiIiEjKqAQsIkRxvLkwUbgFIML2L+e3YcYagkq265od/QB05dsYOLMTgLZMQBgk60dOFAEYHS9ycDhJOv1w8BgvVe6P43hhB/We6TRXbWGjwaXW2lCmMn/NE1/kk1gmJqPNR186fgtAqVS+E9jXyLhEZPWpASgieO86y1GUlH1tZlm1gcAaQpvs4Ly+LgDO7Mqz45wzAWjPhmTCZP3QyHhye+zk1PWAgy+Nc2x8EoAFNv9ergFj7i0qjiaJrzpOYBS7zomJyVcBxHF8T0ODEpHTQiVgERERkZRRJxCRFLvlD798LUBhMrpu5ETxo9Nr5pjqrU4nhNAacmEyU8iv/u9XcNVFmwHoWd++6JgOvzjGWCHJAL73v90NgHNulk4iTT4OYJN3AqnnpcC/Y8LyRYDB/+c/LiZYEVlDlAEUERERSRldAyiSYhOTkQUol+NgOfvpzLfxirOS6/161ufIhkvfXXvb9Gnp3E1Jx5ETEyVeqFwvWN8aKGY0+nrEOU3HljP2/MDwmsqfDzUmHhFZbWoAiqTY6FgxC+AhnOqYsBiVx5x95nrece2FALxiywY62pc+jvQZnfmp5esvHgDgmRdG6zcATZMXMWxNZ48lTQV3+m2wwb8LgmAnwFNqAIq0rCY/e4qIiIjISlMGUESWbEM+yfRt6s5z/lndAHTkVm4WuWtelYwj2JYJufeJQ0DSIeRlxdSGjQM4z/5dzXpTLxvYfKLYbY69zwNccct7Q4Bjhw+4Zx6+p/nSlSKyZGoAisiStWeTU0hHLjPV4zewK1dYOKc3ua7w2SNj2Mp+3UIaUE0yzt4MzRhTHc77TuOS74YtF10+/WY+jBqAIi1EJWARERGRlFEGUCTF+ruDrwGcLHuOFhafmbqgvweALRvXk1lGz9/ZVPeZb8twZlfSOWTkRIFiKUo2mG0cwGbJstV2AqmdCq6JO4H4OOrx0APwwlAmBBgdJWpsVCKy0pQBFBEREUkZZQBFUsxVfgN6HKvfYWI1Nek4gAuZIUREpAHUABRJsdhkAHDEQKmxwSxFs48DWNvOq3aOWdRUcCIiq6PJz54iIiIistKUARRJsVI5yfpF8dJKkoMvJbNzbOnpIIqTzJa1BruUWUXqqO5zshwxVpiccR9Q04mipmNFM6kNyansKyLNQw1AkRSLK+VIt8Rr0sYnkgbkRKmMr+7DmxW7JK+6z9h5Jsvx1HKdLWnK6wDrjv13OgeqFhGpTyVgERERkZRRBlAkxcpRko1KqqqLz0YNjhYAeGboOA8/9QIAr+zvYWNnfkXi+8w3fpDs/4VRylGdoeiavRNIbYePqU4gyvqJSOM1+dlTRERERFaaMoAisnSVa9vGCpPsO3QUgJ71OdqzyfAy63KZRe9yrDBJKUqu93t26DgAw5VM42zHB5qzE8gUo7H/RKSpqAEoIst2+OgJ/vGB/cCpDcCuRe9rcGScl8YmALh393MAuFnHzputc0WTqJZ9vVd/DxFpKioBi4iIiKSMMoAismyR84xPJlm6f3r4AA/sSzqE/MRrtwHQmW/j7I2dAGQzlrCSGRsdLya3Jyf50fAYAN/74QsMjiTjC0ZxUgqevXzahFm/WrMOWSMi0lhqAIrIsnkP5cpg0k89fwxrRgHYufUMAM7synPG+vbKtiEunL52EGB49CQ/HDwGwN4fHeW5oyemdzyXpr7u7xR1xwQUEWkMlYBFREREUkYZQBFZUbGHuJLl+u//3+55tl5mNszXdA5pxjEBbU3Wbyrzp5lARKTxmvCMKSIiIiKrSRlAEWkBTXotoK73E5EmpQagiKxdzVj2rVXbANRUcCLSRJr87CkiIiIiK00ZQBFZu6Y6gZjmHBKmNiZl/kSkiSgDKCItoEkbV6ZJG6YiknpqAIqIiIikjErAIrJ2NXsnkNqy79RMIK7+tg3RpJlTEVl1TX72FBEREZGVpgygiKxdvk6GrVlpTEARaSJqAIrIGlbbqGrCBuCMqeCqd2oqOBFpPJWARURERFJGGUARWcOaMOtXy9WOU1hZVNJPRJqAGoAisnY1+3V/U/x0j2VdCygiTUAlYBEREZGUUQZQJMWCMPw9gDiKQlcqZRsdz4pYytiANYlE49xNBn/BisRia7J+mgpORJqIMoAiIiIiKaMMoEiKHdn34B6AyDlbLJVbIwO4BO2dG+jZss0ClL2/trbvxrLUvd5PmUARaTw1AEVSbPedf3p7o2NoBpsvutyef957Q4BjBfsTRWeuSNYsswU4Y5jCmjEBRUQaTCVgERERkZRRBlBEZLXMmPRDmT8RaR5qAIqIrJa6ZV9NBScijacSsIiIiEjKKAMo0gTOveSa7A3v+XAHgM1msyYI9G/zNPLOWxf7EKAweCRXPHFyZXY81Z2Y6TEBNR6giDQBZQBFREREUkZZBpEVtmHLNtveuQGAiGx3cq8JPSYLEMdRv/eus/Yx2TPPzY+enOwGCMoua4NgZX6cVa89O3XO3KbpkLDacSxw/w6cSzKAURRvXvk4TBO95ivn1jf3dgA45zfGcXxho+Kwxo7ZMDhU+bNg8CWAO+4eHm9UTCLNTg1AkRV23mtvsFsuutwCjNuN5wN4TN4R9gBMFMbfEUWlHbWPMdD5o6Nj/QDZbIYwCFYmmDiuHMDUlCBd8zRGXLzKB1j8/ifLrmY6uWW+TrVTwTXJS76Sbv/Yrj6Acjm6ujhR/M+NiiMMM/ty+fwXkr/cAYMfBTCX3vN0o2ISaXYqAYuIiIikjDKAIiugZ+CVnedf/dZ+gMwZA+84Fq3bARDhKiVgrDc+C+BtMGDDtkoJeCotFFaHB4mcJZ66e7600Tzra/dT7ZBQm/2bNxNYZ/2iMlnzxefmWb+Y4yxj2rWazdxKdtKou6/WSQX6cikLEHg6cm3hwkrns37mlvK6JI+xxnUQTSTH924cfATwud87/2sAxoYHbdh2P8Cffubg+EO7j5eWcDCRlqIGoMgKaO/amO3f+fqNAC+Nl6+dKLnrkjU1X2qm0tgxFhOcUmKsbYCc8vecFvOdWe+Ld+nfuQvbwXJLzQt9vJ+tATjvA2fcrKpWnArOOQtgjMlmwuDUHzX1zTo/cr1p9xb6/vhOfNRfiWnqAW+//owxABNkckHbuocB7rh7qPAQx+fboUjLUwlYREREJGWWOdO5SPpc8a7/etmWXW/oAxgaeuF/AXhjLTZbyaibml63CyyxzrrZcjNs9bJ+i0obznPXKsS3mMfXlpBNnd+z85WYl/v6z/f4qY/BbJ1AlluCX/nPl695zUwpsw5g5NlHo6fv/dTLyqbuoauTzkzG3GgC+/EFxTRrBnCO+Bb1/viXLZYi78aLSVm4oyP/S9m27L8AmEu+Njh3sCKtSxlAERERkZTRNYAic9hcGc7FYTsiMn0Apn3DFROT5XMBfPViPmP1Y6rRmvHaumaMKYWsgWyYJDxcHL26NOktwK1v3vA/AZ47UnIP7T45X7pYpKWoASgyh1ff8t4QYJK2/nHT9RaAKHLvHh2f2AVA2JZsuJa+52sHhV7rDRRTM85eM74Jta+vpoJrmDAwtiNIPiwni8X3FieStt7tH9v2GYA77j4W3fahA+oZLKmirIWIiIhIyigDKFLH7R+90AJ8zvZ8BIDI9EWT7goA5xloYGjLt9azfrVmdPKYYxiRRqnNtirz1xTaMpZMmLwvJ8fjvwe49IKu797+xxf/N4A//fuDpYd2H48aGKLIaaEGoMgpbv/ohfbWN54JwOcfyF8LgIs3Oleanuv01Ll1pfHqvSeNbuy24th/a1wYGKo/Fgrj8S0AZ52Rs+ef2/kpgDvuGoo0TqCkgUrAIiIiIimjDKDIKX77iZtu+rPy6y8AKJWLV0+taJWsX6t2Apl3zL8GqC37TmUDmzDOlOruyADgvLsiOjn6VwAuLn8CeKiRcYmcDsoAioiIiKSMMoAiQK5rY67nnO3dAG2dGy9wzl/c6JhWzVrP+tVaS89lLcWaMgZyxtAPcNWu7n4TZPoBvnj3kcONjUxk9agBKAL0nLO9+9Xv+q3LAI6NFd5aLJWT0m+rlH1bVm2JdSlTwa0yW9MJZCrU2s+UGoXNwBizMTBsBPjVd299GJuxAPbSr93e2MhEVo9KwCIiIiIpowygpNqGt/y8Bch0bTr/6LHRXwSInNlWf0y5FGvaRFVth5Ym7FzhqjGZ6VCb9rUUgMli+S2xj6+s/KkMoLQsNQAl1dpfcRkAAWHPRHHyCgAbZnusrf7TaMFv65bqBbxWxtnzp0xbJ80qjuMLyrHeI2l9KgGLiIiIpIwygJJqV/ad802AQjneOFKINgMtmfSboZUyULVl36bsBFKT9dNUcGtCeyYiV/lmdI9edyPAHXcPD73jN/btbmRcIitNGUARERGRlFEGUFKtWI43ApQj19noWGSZGpHZnO+QdWNSJrDZTV0l61ylKuBLDQtGZJWoASipNjpRvhCq1bmU9PxtqU4gtR0rmvC51Ia0ZjqspJs10z22vYtfW1kIgfsaFpTIKlAJWERERCRllAGU1Ol/7VvP7+x/ZQ9AXOkjkKYEYEtloGZ08qj3Bjb4uc6Y9KOFXveUKBRLNwJMlqKo0bGIrDQ1ACV1Ovtf2dO7/ep+gEKp3OhwZKXUm7av0Y2uumVfTQW3VpQjtw0gdr6v0bGIrDSVgEVERERSRhlASYXNF11uX33Le0OAky7/C+Vo4i0AmExD42qIVu0E0ugx/+pxNTFVxwTUeIBrRve65CvyPTdtzr3nlldsBrjt1x8fuePuI8WGBiayApQBFBEREUkZZQAlHbzHxM4COMjGmFyjQ2qYtZ71q7VmnotZQ7HKqbwx3Ri7C8BjHgeGGhySyLKpASipYJy3NkoagLE1HSVje5IVDQ1Llq2mUdXsU8Gp/beGmQFvw3cni2YENQClBagELCIiIpIyygBKKgRt7b35Mza/BmD0pO+jrHRMa6jt0NKMnUBafCq4oJJJh46GxrHK4qjcPTk2ugsgLpe7Gx2PyEpQA1BSwQaZjmy+cxuAnSx0EKV4/L+W6gW8hqZXW0uxLpS1ybW03rc1OJJV5V2cjUpxb7Ls0nv9sLQUlYBFREREUkYZQEmF8ckyT704ZgGiuIUyMEvRShmo2rJvU3YCqcn6Tb3uzT0TiHGugPcRwFl9mQjAHaPuC+kcX4PkGdWbiKVVhJZcRxs5gDs/fnGfCbObAcwlXxtsbGQiS6cMoIiIiEjKKAMoqWAN3VnLxQDO0a3JGFpQM2Y2mzGmeXhjx8EXAJ5/8lEHcOzwgVlSqWvv+S3VdILTW7zXd6esefoQSyqEhoHODO8CiGKIGh1QI7VUJ5CacfaasTFS+/qukangvAmGvDHDAI/e+ak5/6mYGZXh1i0oGVP7z8aH4LKNjEdkJbTuv1gRERERqUsZQEmFUuwZmUiyFSUHqZ4CZK1n/WrN6ORR7z1t8HOtzbY2eeavqm9j9/51+fY9AI/WWf+Bdw10X7WrK7VDofi4dA6uvKPy59MNDUZkGdQAlFRwHopR5QvYmFS3/1pWvW6ojW7srsGx/zrWtR/d0LX+0Gzrr9rVlbv1zZs6AFw0efoCaxY+7sTT2+gwRJZLJWARERGRlFEGUFrauz7x1e0AJ4px/wujqe76Ma1VO4E0esy/emrLvlPZwGaM00W4uABw16d+5+6RA49/afaN/ZXgLgSw9cZebHFxzGucNwOVPz/V0GBEliF9/3pFREREUk4ZQGlphZLvBChF5BsdS12NSMCt9axfrbX0XJowVl+JyVo7GoThPgBj7eip2/VvarNX7eoOAfrOyAyUStGrALKBLqYVWavUAJSWNjLuNwNEjjOmpwprvi9iWaraEmuzTwVXvbOZpoKrNADDzIH2dZ2fBgjC7MFTt7pqV3d4+59ckgcYHzt5zfj45M0APentDCyy5qkELCIiIpIyygCKyBpW26GlKTtXVBZqhh5qdNKvRkc2cwjg+NCB/c88cd/9AMeff2r41O28i/t96eT1AG1ZtmbDTGq/O4xhq8X3NToOkeVK7T9ikdRqqV7Aa2WcPX/KtHXNIRsEYwDxydGjw/sfOjj7lq4TV34VQGgznSYMkifTPE/ltDHQrXFEpRWoBCwiIiKSMsoASkvryQcfACiU3caRQhOWCBuhiTJQy1Zb9m3KTiA1Wb9mmQoujgp4FwGss+61AG2mXHeQTP/4j20GKJWi1xw/OfkrAPl2SzbFqQOb4ucurUUfZREREZGUUQZQWtpkOeoAiCKv8SrWiqVmKJsxs1k3poYM/uhwSTp00vBwbM0hgMP/9lgEMDL4bN1UqY+j7QAWd3YmTC58s7r+TaQlqAEoLW18otgLEHub08e9oqU6gdR2rGjC51IbUiM7rHjvcFEBYDwb/PlEEHwJYO8/fXruGnlU/EmAwJht6/LBqocpIqePSsAiIiIiKaOUiLS0wmQ5C4ANQhPq4w6s/axfrRmdPOrVJhv8XGdM+nH6Y8lmwgcBQtzTOe/+GWDosXsfGfzWnbNm/n7lnX3XXbWzYwDAmeBGAGPIq/L7crf/0fbbAL6ze+zwJz57+MFGxyOyGPpGlJYWxc4CGKzVh32NWGqJ2tRpojS6sVu37Hv6poILguAQQAaeyBv7VYD4yLOluR5z1c6OgVvfdMalAM7YbacjzrXq1ht6d1aXP/HZRkYisngqAYuIiIikjJIiImnT7J1AFpX1q+kE0ugx/+qpHfuv2n12BcYDrL6DLhnOjyAIDrW1tT0IYIpjnzZx6XGAb3z8Q0fn2o+//5rkBQzMdtrsOyp334Ix2wECmvA1bSI+nugA8K6kUQZkzVEGUERERCRllAEUSZsmyvqFU9Mq+JrE5BK6G8wyDIyZ97nOd6x5Hj9j/3W29TX7ry7ahV8DWJ1yN3Z+dDJyBwACa501xgEMPfndQwDW2qOZMPMkAOWJYeOiOa/zmxIkmT4s24HtlXs7F/RYEVnT1AAUkdNjRieNZDmXCSqrPOEqDDNnXLzyO63He1iFcun69jYACpPxgaPj5b8CyGYzpTAMHMAzd/3Pv1vWAabLvtsx5pa5N6421lUWFmkFKgGLiIiIpIwygCKydJUSqPPeOedKAG1tuX8NwswBgDM6zHMALx7cX9z/zS/VdEhIMoDhVDnU1x3FZbnmLwGvpJU/VhgkadFTS8BmkS/Wlbu6sr/6rq0dAMVS9J4o9pcCYLisssksZd/a4yjzJ9JK1AAUSZvV6AXsvfOVLqnWBk+FYea7AOvzdj/ASGlsbOSphw+vzMFksc7elLO33tiXAxgvlK4qR+7HATCmA5ij7TrdQBeR1qISsIiIiEjKKAMokjZLyfrVVgKj4ohxUQGgo3vjTwIc2ffgyN5//PjTKxKfLMvtH9vZd+ubNyXj0xFcBuC9vyqK/a8A5NssNrfQzF5t2VedQERaiTKAIiIiIimjDKCIzK4yu4Y1/nDW+ocBjg09PTZx/KUiwMl160cAjh/+t/GGxZgyV+7qCs/elLMAPo4rM1D4bu/9AMCWMzNb8b47ud+dV3nYBaaS7TNLvp5P1wGKtBI1AEXSZjGdQFzSAMwG8cMbsuV3Ajy9+65o8MlHVQdskF9999bsrTf2ZQH8xMl+AOfcrtjF7wYIs9lL8K4Ppt9qg1/S+NrTRaL6A22LyNqlErCIiIhIyigDKJI282T9nItH8L4AsLEr/z8Ajj+3f9/3vvOlCGAx2b/bP3ZxD4CHDqD/1PWFyPxCEhPWN3SKOg/OnZ4fxH55ydOd57XnTo4XQ4B8WyYPYPHdplICNtZ2r9ygirWxakgYkVaiBqCIzOR9wXs3BpDPZe8DGCmeOLqUsm917Dnv6aZOA/B4yb4tWe/B+8ZVJLw7fQ1AF7OsRpRzuXIpDgFMPlO509ev8K5oW00NQJFWohKwiIiISMooAyiSNnU6gXjnxpyLDgMc+Je/+MCxH37vLoBH59mVv/+a5EdkGGwmn70M4GQ5+M9lZ18HQCY5xZja49YkkLqzU3ua7Qh1Vs+XgfJ1F+e8c97y8yzr/Tzr6x4rWPyxFvX8V1JtJxD1+xFpJcoAioiIiKSMMoAiaVOT7XLOlQAC4wbbwvieZNkPL3RXkQ2uBzBB0BeYYCdAENgerH5btgZd7yfSqtQAFEmx2LlxgLYwfviMXPTrANnARwt9/GS27Q8BgiDoCcLsNoBcCC/vhaqGxNpU+75pKjiRVqKf6SIiIiIpowygtLT2bFgCcCawyltU+OlZHXq7838McPy5J/fPNc7flRd35z/ws9s2Ajhn/73HXAzQlmvbBmCMyZ76GGkFtZlc/QsSaSVqAEpLy4SBA4i9TS52kxnW5TIPAhybZ5y//r727K0/trkbIHL2Gu/tjQBhplJEaOggzrJ6NPafSKtSCVhEREQkZZQBlJYWB9lPADjHxTje1eh4moKLP2W8exTgzt986/1zbeq/f8P5AM6EP16Owz8HCAODtSs11Zg0t9qksDqBnMq0n/ECgMmWRhsdi8hiKQMoIiIikjLKAEpLM5jxZMkXGxtJg3mX/AdkbXw0MO7gbJteuasrPHtTzkKS+QPwJrjcvmxoF3TtX6rovT7VHXe9sB/gO08cG2x0LCKLpQagtLTA2GEAb/xYqktX3kE0CUA+5/a0Z/x9s236q+/emr31xr4sQMnk/hzAGkMY1k4LJulQ+57rfT/Vbb/2/a80OgaRpVIJWERERCRllAEUWbS1lwmxNng625a7C+DgI199avyFH84624c3wfXOhBcAhIF+I6ZbbdZcQ8IAOCVDpUWoASiSAtaYkUwYfhdgdPDgyPD+2cf885htGHs5MH9v3+p1gboWMAXUAATAp/4VkBahn/ciIiIiKaMMoLS0+0vE5xwAACAASURBVH735jsBel55lT3/rR9M7jRmOnPV8pLnObz/oUNP/9P//XezbXXrm3s7bv/Yrj4Awtz/RpD0/p2XMn8trrYTSIo7UdVwnsedN0ONjkNkuZQBFBEREUkZZQBFWlho/AiANX5s7i1NHmP7k0Wbm77eS9JNGV6RVqUGoKSEAZO+hHfO8hRA1jB3ycqYHmz4mmTZ9ky/VvM0ANQJpMXVvq+aCk6klaTvG1FEREQk5ZQBlFQIjBvN2+gxgElvt8XY7kbHdDpEQeZhgNgGP5xzO8fAyRI/A9DWxkC40J+Gyvy1uNpLAZT5A7CZtn3GhE80Og6R5VIDUFLBGooZ64cAyo7NcUraLc4GzwF4Y0fm3M6bznJsdgFkvK7/kyqN/XcqY8NhE2QPNjoOkeVSCVhEREQkZZQBlFSIscMTJvuNZNn3A30NDmn1eEc1Y3NRX9edAAcG8+P762zqfnDTLgDnzdbYBQCEwSIygOoE0uJqy77p7QTifWUKOMDinjHEjzU2IpHlUwZQREREJGWUAZRUyATGdbWHRYCxichNRq2bsapNxr1wYqwAcKw4Uaq/sc0CGExop2ZHWUQGUJm/FEnve+08LoopATzyxPHC4EvxeKNjElkuNQAlFfLZMBroyY8BHHixUJqMyo0OadX4qf/BY0ODwwATo8dm2TrbCWAM7WFwGoKTNaZ2PMhUNwBLxYgxgD/5u0NHv/TNEU0FJ2ueSsAiIiIiKaMMoKRCqThxdHTo+YcASuXcO/GVj75GPBGZQ22Hj/QOCRME9un29vAL1eVGxyOyEtQAlFRwUbk4efLEYQBngwJGH/0VoV7AKZLeBqAxdiQThg8DGGvmHFNTZK1QCVhEREQkZZQGkVR4/qnvR3f+yS9FANtvev83z3zlq0sAE5nun2psZGucMn8trrYTSPrG/4srg/+ZwIzYsC3JABpbaGhQIitEGUARERGRlFEGUNLH2lFjg2QYh9oMllGPEJGZ0p3hLcdJjmRwuOQe/eFQCeC5I8X0pUKlJakBKKljbeZgELYlf+hUvjzqBNLiat/X9E0FV4ySr8j7vz/qfu6j+1X6lZaiErCIiIhIyigDKKlz6OF/3je8/6FDAFtv/mDlXqMS8FIo89fiav9NpCPz57yfSnzm12U/BtDWFu5pZEwiq0ENQEmdscEfHh0b/OFRgK03NzoakWaWzrH/qs82mw0fAAhDO9jAcERWhUrAIiIiIimjDKCkWnvgBgFib3IlbE+j41lz1AmkxdWWfdPRCWSi5ChHyed5w+vu+kqDwxFZNcoAioiIiKSMMoCSauvzbfcCTEZ+oFSMr03uNcy8+F1mpcxfiqTjvQ6sOUDAaKPjEFltagBKqvX3dv8mwLHx4k3HJ8YqDUCrHsEiwMyp4NLRAGzLmHvImEcbHYfIalMJWERERCRllAGUVLvrU78zArB+8ysGz7ripv0A45Nucyn2nY2NTKQZ1Hb4aN0hYaLYMVlOnutf3HFkz/f2nbynwSGJrDo1ACXVDjx6XwFgSykaO+91bzsKMFEubyRuvS+5VaFewCnSug1A55nq+fvgnvGhL3/z2IEGhySy6lQCFhEREUkZZQBFgOf3fPu+O3/z310DcMHbPnjHxote93aAqLWHPFs+Zf5aXG0nkNb9x5DNhPuybfk7K8v7Gx2PyOmgDKCIiIhIyigDKHKKTBjsb8uE3waIJqOrGx2PSOO0doa37IIigMEcDZ3/AQCOsYYGJXKaqAEocor2XPZ/dXbkvwNwcnLsnxsdT1NTJ5AWV/u+tt5UcIU4NwKQ8W5/6KPbAe6498XWeYIic1AJWERERCRllAEUOcUz9//jgcHd9w8C7Lj1N/4IIIriCwuTpbdBMmSEVCjz1+JqZ8RpjcRYseSIXfJc8iZ6P8B3f3B88Jr3P94aT1BkgdQAFDnFsUNPjh479CQAr37Xb30LYNJAsZSs977Vr4wSqWq9sf9i56fG/FuXcV8FeGG42NCYRBpBJWARERGRlFEGUGQOX/7Qm/8FYPOuax+rZgOPjhz7T4WJ4msAMrl8TyPjazh1AmlxtVXRtdsJpBQZCqUk/nw+95/WZYN/BTCX3rP2nozIClEGUERERCRllAEUWYCJ0ReLz+/+5hBA+8aB72xY1zUCUHBmB4DHdfvYDQBg7HRmrNUp85cia+O9jmLvKn08yLS1HQZ4/khx5JuPjjwN0NYWPB2GdrxxEYo0BzUARRbg2KEnRx/5zO89BvCm93z4qW1br8kCPHm0+B8AXOQujuLSuwAIsmCChsUqsnJqp4JbGw3AYglXirwD6O7s/DbAw0+Nf/fnPrr/zxobmUhzUQlYREREJGWUARRZpD333Vk88Pi3SgAnJuOvAPSee9FDO9/4kw8AvDha6CkUy+sAcln74wDl2HVOTJb7F3+0ebIudVfXjFOjn3gLVylnF0txKYr9IjsHLCI75t0yS+dLeKz3yXFh5iUKLl69Y87GuTr7W9r+gzA7ChBYDmZC7gX4y3889MyDT4yNAmTaDh0GODxUHFlyvCItSg1AkUUaPrg/gv3VP58C6MxnD2/ozB8EOD5e7J/wrhMgY+0lAC52kY+jvgaEu7pasBdwFHtXjly0ageo2wBaZd7VNABJGoFTsZxmK/j8va1cy2c4lDF8E+B7+07u/vI3R4ZW5AAiLUz5AREREZGUSUlXRRGpx+19+/UAGN5gLL/98i3qZWpq7ltw5s/XXZznzun7fZ37VvBY3seP4KO/ALjt13bf98W7hw/OcxARkTVNGUARERGRlNE1gCIiGIc30dSyiEiLUwNQRJauVTqBeBzelip/qQEoIi1PJWARERGRlFEGUESWbq1n/kREUkoZQBEREZGUUQNQREREJGU0DqBIii17HMCpu1Z+bL4Z96/yOIClCAqVLiD5rP9sNuCJeQ6yMHFxbf/IPlH+GMAd33iR2z6yX51jRFrI2j45iYiIiMiiqROIiCxdi3QCscaTCarLDLx8i1me57xPfzWKLIt4zefdtN6sKNPLJoySJEHgQMPjiLQUNQBFJPVCC2F26s+rF7+HWVpats4pdjHl8rp3LbAsv5j1tVVz56f+DNpLvwBANormOYCIrDEqAYuIiIikjBqAIiIiIimjBqCILJ0x09PBiYjImqEGoIiIiEjKqBOIiCxdi/QCFhFJG2UARURERFJGDUARERGRlFEDUESWTp1ARETWJDUARURERFJGnUBEZOnUCUREZE1SBlBEREQkZdQAFBEREUkZlYBFZOmqHUBUCl4dJqjcAqbye92VwTumV4iILJ4ygCIiIiIpowygiCydMn8rw4Rgc8ly5kwI1lWWN1Q3mM4AxhPgomS5+Fxy64oQHztt4YrI2qcGoIhIo9kcZM9KlrvfCO3nJssdOysbmKSRCFA+ljT4AIY+l9yWhqBwPFmeKg+LiMxOJWARERGRlFEGUESkUdovSG5z50D3G5LlbB8EHZUNgpc/Jlg3XS7eeFNyWxqCk/3J8tgjUBpctZBFpDWoASgiS6dewMuTOSO5bTsb1l9SuTOYvt6vHpudXl5XaUBmOsFPJMuFf4PSikcqIi1GJWARERGRlFEGUESWTpm/xQvWg21Llrf+l8qdNZ08liLbBz19yXLxMFPjA57cv/R9ikhLUwZQREREJGWUARQROZ2CjppOHuaU2xWQ7YXc1mRZGUARmYUagCKydOoEsnjZvuQ/WF7ZdzbrXgVtW5Llka8lt37qfyIigErAIiIiIqmjDKCILJ0yf4uX6ZnO0K2GoHM6s2grt95NTx8nIoIagCIip5dth7BzFfffNl2ar44nqIa6iJxCJWARERGRlFEGUESWTp1AmpCffj+m3he9PyIykzKAIiIiIimjDKBIit3xtcPDAFs25Y6/etcGAMLAYu0Cx6VT5m/x4hNQfmkV938S4vFk2bvK7cLfJ+/dqHe+CHDHN45FAN/ZPe5WOEoRaTA1AEVS7B0ffGgvwFvfdNaFf/MHlwGQb8+StUFD42ppky+AK63e/stHoHQkWZ7q+buIBmAcHXRxPARw24cOrGKgItJIKgGLiIiIpIwygCJCYBlta7OPVJa3AT0NDql1RcPgxpJlX83QGTArlHU9uQ9O7l3yw22mbbfN8P2VCUZEmpUagCKCMaYQhnYQwFizeREPTG51LeDCuZOQXGLHqvTOLR+F4o+W/HAbBEMYe2AFIxKRJqQSsIiIiEjKKAMoIlgf7c6UT34QgDD35wSZJAto5vmNqMzf4sVloJws//ADyW1+O/TeliyH65PZPBbCV/ZTeBpe+tdkefyx6U4gC1SOomKhMDkG8J7fefqBL31z5CuL2oGIrDnKAIqIiIikjDKAIsJzRyajO+4+Mg5w5WWbhvrPCg4BGGMHGhtZi4tPJLelIRiv9LvIDUDYlSwHlVvM9PWWbhJ8nCxPPJ3cTj4HpRcq6ycWfHhfzeAaOxpmMruTRTO6lKciImuLGoAiwkO7jxdv+9CeIYDP/0n2+7duas8CGMtPz/lAdQJZntJQclsegeIzyXL3tZDbmiyv21XZ0ICtnK5LR8EVkuWhv01uozEoDS768K4yvLO1wcH8utynAYIwVAcQkRRQCVhEREQkZRY435OIpMWVuzac39+X6wH4wp++5uMAxpiNxgYXJlvUZPsWnPnzdRfnuXP6fl/nvpU81rzPY5b1fp71Cz6WBVPJ8GXPBJtPlsPu6U2qHXLi4vT4gcWDlX2W65d+54nPYz8G8J3dx3/4iX849K8AD+0eHTl8ZLIwyxMSkRahErCIzPDQ7mNPs7vyh3eHADxWvxZXlQNfmXVt8nDN/XVedV9vWt6lleCNtQ8APD88OfjFu48cnm97EWkdKgGLiIiIpIwygCIyK3ts9N0AcZi9biLf8RGAbGi3B4HZCKgTyKqrVwJfnsIkI+XYFAG61r10T3LveDTXY0Sk9SgDKCIiIpIyygCKyKzu+MaLALggHI6yx+8DeP1lZ9iBzfltABYWPm+wnHZ+OjM7guUAwMM/GDvwo8HiKEA+V4gAvrN7vN6FhSLSwnRdt4gsymc/fsWH3v5jW14PkDHm5qkVZq7TiXoBL+tY8z7/+vuMo8qA0dY8YsPgLwBu+7Xd933x7uGD8wQhIi1OJWARERGRlFEJWEQWxRaLXwnGxx8EoD27P7nTXkiQvXmux8npUSxGxHGSEczns78I8J3dx4c+8Q8/2g3w0O7jww0MT0SahBqAIrIoNoqesqXSUwDkgh6gWoFUA7AJxLGnXE4u6TM2+CrA88Ol4hfvHh5paGAi0lRUAhYRERFJGXUCEZEV4e+/JvlBmc/dTDZzAcDohPm/ADKhYV17peCgTiCLP9Ysz//YeFwAyITmsXV5+2lQJw8RWRhlAEVERERSRtcAisiKqI4ZSFv2MGHgAN7yhr6vAgTGZH0cdwLEjgscpgcgDKZ/g1rVI16mVIqri84YWwIIAg5YwyjAl74xfAAgDMzBtqw5CHD4yGShAaGKyBqjU66IrBr/+I9tBvCejcCFAIXIfqDs7JUA+fYMANZ4wrr1iHSXgEePTSQLxhZNmBkByOfs/5sJzaMA5pK7vjLPzkRE6lIJWERERCRlVAIWkVVz268/PgLgoQCMAMTOHK2WgO/8+KXJMDLGd+DYBFCMzY/H3pyf7MHkAQILuUzr/V4dL7oigIHIQAkgG/LFMGAPQD5fGgV4aM/J0if+4cUCQBCYqRKwiMhSqQEoIqvmjruPFCuLRZhqtByurrfsSuYS9r4H2AYQx/aSsjMDlS3yAAQGMqcj4tOrHPmoshjZ5DUiE/A9MPcBZLPxIMCRkYnoS98YLjUmShFpRa33k1pERERE5qROICLStKY6kRiTJQw7ASgVu3FRDqAQt/3+qY+JIgacpxNgQ2cmV2evde5aXieQcjkeLxZLQwAmDAvGBjOydUFgHmnLhZ889eH2VV/dPc+BRURWhTKAIiIiIimjawBFpGndcddQEcAbExHYZILbqBzh4hBg0mXuOfUxzrHRefIAP/eWvuzL9zpbNm++LODsnn9honj/90dGAUwQFDE2ql1vA/NMJmPVcUNEmoZKwCLSsqamp1tld3zjRW77yH53Oo4lIrISVAIWEREREREREREREREREREREREREREREREREREREREREREREREREREREREREVklmglERFpe56aBbP/FV+cBjPMbjfd5AO+in61skvewEeDw3oc+Pvbi4YcaFKqIyGmhuYBFpOW1dXTZ3vN25QBM7HqM990APi7dCODxncAAwIvP7vsCLzYsVBGR00JTwYmIiIikjDKAItKy3vi+j20EwEU3Uyp+GsDaAGOT374maEtWO4eLo+RBujBGRFJAGUARERGRlFEGUERalsdbAGPAmEpqzyjFJyKiBqCItC7jK1UOY20wfbozagSKSMqpBCwiIiKSMmoAioiIiKSMGoAiIiIiKaMGoIiIiEjKqBOIiKSeMQYbZADY9caf6eE6sxng63/94cGGBiYiskqUARQRERFJGTUARURERFJGDUARERGRlFEDUERERCRl1AlERFbNFbe8NwSIoyicLBZzAIef+HZh7MihUmMjExFJNzUARWTVbLnocgtQLpXCwvjJHMCLz+wpcqSxcYmIpJ1KwCIiIiIpowygiCzZ5l/+SwuwPp7Mb47GewAM5maDeSXA8aEXbqhs2mlgMwAuvhX4YgPCFRGRCmUARURERFJGGUARWbLO0kQI0E682XiuBzBwKSbJ9hljO5MtfQ7vGxWmiIicQg1AEVmygcJoDsBbe6XPZj6Z3GswGABsmJxinHO4OGpMkCIi8jIqAYuIiIikjBqAIrIivEdVXhGRNUINQBEREZGUUQNQREREJGXUCUREBICkfm19uWicG29wMCIiq0oZQBEREZGUUQZQRASP9w6A0eHD0eT4qMasEZGWpgagiKSe9+Bd0gA8uO87pRef3VdocEgiIqtKJWARERGRlFEDUERERCRl1AAUERERSRk1AEVERERSRg1AERERkZRRA1BEREQkZTQMjKyYzRddbgHiUjn0sbMA3vo6PzKsA+MAXjywu3Q6Y1wJXWduCXP5TgCO/OhJjRcnMoverTtyABgsZvaEgweHSc4JY0OHSpMnj7vTFGLT2XDurmzGz37+NN6AxwEMH9xbPN3xSetQA1BWxOaLLrevvuW9IUBx5ERnVCxlAVxbXOczFpYgiAC+8d8/dPR0xrkSztl+ZbZv6/YQ4K6//d2xRscj0qx2vvGnewC8JSQkO9t2HiJvbRHgB3f9w+iLz+xJXcNm8y//pQXYUjjZ0RmVc1D//GnK1hmXNJa//tcfHjy9UUorUQlYREREJGWUAZQF6ew9u2Ng19Wbk7/8NqAbwEXR6wHaOzeEhZGRECAuR93e+ByAceZlPzJcXHK+Mu/W9uvefgjAGPOiscFeAG/sbowdBvjB3Z9paIZtxw3vvCBZ8n3gLwHoOGNLd2Rte2WT32xQaABcUcm6unK5pzQxkcTq/fl4ksyLMf9a2dSZSomtLdt2NAiCcYCH/+nTc5bgq/uPy+WOUmFi86nr4zCTB8DQN9d+jAFjk4/CwM6r+3u37do+cwN6jKESPyUgqiw/AnD8yHPjz+19YGiuYzRSZ+9AfmDn1RsBPD4HfrHnVmcqz/nQngeGxoafG1/xIFfBjjf91PmVxX7wrwHwzm3y3ucBnIn6AQzGGuzsCQfvnS+XHUD/9tcMnznwynEAa8MvJOsZw5lBgEM/+Pb42IvPrYlLR17zE/9HFiCKo47Jyck+AGPoBToAXBT9GECwvttmC6MhQJuLe1zl/Gl97fnTAOBN7FyyyPbr3n6wstIZU/k3Y4KvY8xBgCAqHwQ4/uLh6Ef7vrsmXjM5fdQAlAXJdXTlNp23c2Pylz8fOAsgLk2+pbKJLRcnkhKPMT3GmKQBWO8j5uLkP6D33O0HkofYgzbIOABng8MYOwrwg7tX6xktTPU5e++3grsKwDnX4zz5hgZWsaVy3WU0OdlRHDsxAOCduxTYDOCNfaSyqbM2aQDmc/nxTCZThPkbgNX9l4uTuYmxExtPXe8hV1nqsmauPRlM5busc9NAZydm4ymr+63l0spOC1QaQ95xoLrJc3vn2n9j5dZ1hZu27ewEcLgOmL3cOQtnoAQwfGDvyBjPrXSIq6J3286eZMkPgH89gIvjbXjfDYBx/cmtmesSwGQe5so5oevMLYOcuWUcIAiyDwDgOIqzIwDDB/cUxl5cG69P/ysvCwFK5VL+ZKGwEcAYthqT/ECrPX8STSYnS0MPxuSTxdrzZ6UBiAfjgenzJxAZY5J/yzZ8DmPHATKl4uHpx6sBKDOpBCwiIiKSMsoACjCzE8fE2Nj10WRpK4DBf7K6jcFPbW9M8mvUtuUWfaxTHrOt5vZ6AFz0u9VDXf/e338/wPCBPQf23vP5uxZ9sAXqPXfH1p03/FRyfMP7jeGKZE0SiDFgTJDc4+JB711TlOjGXhpOykqeG62xnwQwgZ16f4C3A3jvqVTdKRQKHwRTfS3nzKuND76UZOqsvykI+avq/TX7r94zZ5zGmOnPDHx07o2nF8vlif8I4OLyl4Cfm/Nxq6x6kf7myfHLOuNSH4B30T9B5fnZJIMVYOq8PnPzfvrf1vbrbuGia98KQNjW8SaAIwf2DO+957MNy4H2btvRsePNP90H4KLol/HuSgBrq/9OpjO8QRAsev9BEBIEU19HtZcafAHA2+nP784bf+qrYJ4C+Pqn/ssHF/9sVl7vuTs7d97w0wPJX+588D0AYyeOfbq6TRi8PN+ylPNnEGZq/9x26nrv/Seqy+UweS/OOH/XvddfcNlvAuy953NPDz+7d2TRB5aWowygiIiISMooA5hyvefu6ANYf8bmjaWJwg4AH8c7DfQuZj+1GQzvnauOU1XDVlMEtdmgeowxtfu7HKBtXVe+d9uOpwFsGA7bICgADD756EqNFxYydT1bK/4wms6ggMHMk7GTRO+2HQMAmb6tPevKxQsAMj7eagxnAFDJei0y4Tcnay1+an/+DQC5dZ3P9p67Yxzg+PCh4cmTY4WVO+Lserft6gbo7O0f8C6+FsAYzsfYnsXsZ+b5wVPNrFu7+GwhmKkMYe+2Hbsqi+Meexhg7MiPotUcR7Bz00C2raMrOZc5vwugs7d/o/fxhQDGcBYm6eRRE/Oc+6zN0FfOnQ7AWDv1Hb3YrHLymKlTWa/37vok1rND4CDA8LN7NYxMiqkBmHI7bnjnLgDn4mtOjrz0YYAwk7XT5ZjFnHSSk3ocRSXv3MwBko0JrbVJz7YgnLcBWF3vnP95gK5NA491bRooAOQ619+baWs7CPDl3//FlbqwOQumJzk+2aWcbJuZ9+Bd8gVjjF3c25piO29459UA3sWvdcXR/xOSEtxUw2WOjq2LUft5CzLT/Ue8d78N0LWp/5GdN/yUBdhzz+fvHX5278EVOfA8dr75XVsBvItucHHxj+GU578I1Uagi6Opxo7NLmw/p/xovKzyHztveOdTAB7zpLfhlwD23vWZsdUcYL7/4qvzveftSs5lUfxLAN67rd5HSQPZhthFfi68d8RROVl2fqoXfJhtm2pILvScNOOzFCbncefcDh9Hfwhw9s6rPmbM678FcO//+K9qAKZYC2Y6RERERGQuygCmyIa3/LwF6IkmfrzdRecDGON/EiAIzEZrsxaY8evVuWpZwkfOxQUAGwQPY+wggC2Xvw4wNnw4OrjvoRKAd86BP6UEY6amghq4+A35rr5zQgDj3c9UDtCLZ0cS0/Sv2OqPWZNc7PwLAFFhIhcXJ6sXxN+z/FcGgLHqheVAU3TwaAbWlYoA3pinPeHfVe+fKuk5n4zdZ+ix1l4w235qy34esxfMcGXN4dkeA2CDcBTA2uD7S34SC2CMwVay3ufsuvqDfeftekdl1QCAsbYnsMnF94bpSxTicjmZscKawzYIHwTAT2dwgOqMFiEkQyN57y703m8ECILgwtoY6kRWWcc27/37AQZ2vi7Xu23H4wB7v/75B5f51F/m7J3X9HZtOicZxy+e/ONKFL3Vzgfm5UN74p2bPldYe6/BHADYe8/nvgbUdB+rDPniq5tODw109s7X9yf7it8MbhtAEISVcm/9y0aM4aZKAFe4aPJVyXL8t8DjS3v29XVuOjt79q7XdQJ0bjzrfZQnXwtggzC5bMbbjpr3avrzEZcr99mDxgb3V3b3DJgRgL13f3YIkqFdvKu+Sr6mBJx8KDt6t9mzdtyQBciYicsDE21O9utvq7wS81ZVqp9vF0c3OBfvqKz66pJfFFnz1ABMkfZXXAbAhtKJCzrj0msBjOHaZK2Zs6zjvYu8i5PGgLUHjeFJABPHXwIonjgWDR/Yu6DrknrPv6yzE5tNjpqMrTfjG6JGzUmtm0rZJ47KD+NZ2QGijSlhTGVaOq/xsioMcWVAZjvi4YlT11cH/F3kNYXDMDW+35NzHt8Go5WFQ4s5wGLVlhi7+waurLPFVMOn9no255LXx2BHCCqvTzKOYfUzNJ7cRbZ6XZjzPo+f5QNfJ67KMXswySUKXZsGvt0FRwH2fn0xz3Jhujadk9903q7KQO+FG5JALDWXo72Mh5pr2MwBjHkU4MiBvV9cyDGdZ2P/jtdvJ9nPK/EuuQZ56pTkqXfdgjHmguQxfiMuTsbm9P6fF3LMxWhb1xn2nrcjD+Cj6Cpc/BYAM9UoZiq+Gdc7VhvFhjFjgycqz+QRYBDgyIG9Ty/k+JFvCze+qi0LEDBZCqD6w6vSAKz/+lTNuKwm5nx8ZXxGSTWVgEVERERSRhnAlOjdtmPXRRPHfhaSsomxwazluqhUKlYzG0Em9yaA4WefHNn79c8v6NfqfH5w92fGamb4+IVqfDtveOfPVu67ieov3DqMMe/D8D6AN/3iH+wHOPLMnqN77/ncU7M9Rpbmrr/93Wqm7lS/jAAAH1BJREFU9XHqlNVu/Nnf6gTw1r7N/f/t3X9sHOd95/H395nhiqQpkmJkSpZlWqJ9ritTTOK6jVu7rX/IQRoYLc6XNlESJOid06J3lyt6V/SuzQV3RdPDAYeiLYo2udg+tFcXcdKkaK+tkboy67iO4zqxEUuU7KoSRVM0Ky0VilxRFLk7+zz3x8xStCgul7RIrrSfF0Bwdjmz8+xwZveZ7/M838ea7oalR3mHMB8h+Q6ESif0umuCulwTp/cXO+mbud8xc98C+MYf/sZXVrGLL1QWHvz53/yP6VJ4NyF8IivBouOXHtN0OSmVPhq8/8nsT6vZf1W+PPu/yqXpDwE05arnqUtKlUCnDZhrWnWeufETg2f+7rHPVJpIK78XHB/ebfCJpbZ3znW5XK4LoP/9H/sUgbsBnn3sM59bSTku9cgv/34rQLE498j584U/BoiiJlxcZVYT+L9k0fJcOTwOcGr4UHLwG19b9cjtiROvJC8/8fOVbgXz//P7P/WbzwOEUL4PX/x1WH6QTtyUawfaAR741OceBsgPDY4NPvvUq6stn1ydFAEUERERaTCKADaKEJpD8Nlk5K76bb2zScMVAPJDhyYApk6v7eT0s9NThdNDh14D6Nx2U3/zdR2dAOZc1XyEwZfvyhaOAYoA1rX5vlFJuDhIou4s7MNFCHmAQJgIzh0DKJwePTR3vlB18EqtTh8/dBTSubY7tt30BoClM2G0L7WNmcvh0v6EXbt/IJ1r9vxZP50fWnXuu03XtXd2bOvpAWjZ3NluVdKYvO34mPs6wNz5wquF/OgEwOz5qSvWh3b++FzX/q6O7ptm0126nF0uTHvRzsq51r2rrzkrky+Mn1xxuWaKlX5zF6Oyy/V2nTo9cmp2euoogCuVEoCp8dE1Od/zQ4fOAGy6bvNIx/U3HkyftR7SPtPLM7Znv9clr6TUF1UAG0QgdHlfvhPAzDqrjRhzLhoKLu10f6WafZdTyJ8cHjzw1DBA3wM/09Pdmw7oi5zbd+m6C8vuy6V/B+B9+evA0+tRVlmdyr8tBObAroovHO/LBwGCuZeJc78HMHL4W5Pjxw/NVt+yNoMHnvorgO7evuG9D+2/Lnv6EapUAKM4nv9yv/WBn8tB2kR4bOCLq654dWzr6al0wTBjV7XPh4UVQIviTwMUxt+aHnz2qVOr3f9SKsfn+l17uOP+D00ARHFTl0XRkjexZuFHKrW0vfd/9JcATp84NDv43JdWPP3ZxPm0KTW2iNaotq/Lkwe/+e3TQ4Pr0rXh8LNPHQHo7u1Ltjy0P81jCp+kxgqgOXt3urAocb80ADUBi4iIiDQYRQCl/rj4eVxuBCCEchYBvPzAAufSPGGdN+zq6du3/zaAkYMvjBXya9tkLSsUAt6XARg59K3RqfzokQ0u0dukU3HNP/rzENLuBM0dnX8DMPHW0Jnj3x6YBCicGrniaYICdsoT/TWAo3x38P52YNkZJZqt8DBAExdGgRXnBOz/8X/VCpC7rr3HJ8UPALg43m5WZYaOwNEQQprHbiDNYzc7PbW2TfrOHaQp95/T3fNp7/0PpU9f7vhc/JwILnw03T68wTWc8868z7ticQAgxPFP+OyzcqUzkkhjUQVQ6pAbMYuy0afl7Lkl8oA51wbQ0tbZ3rK5ayuk/RZVAawvaZ64tIY1lR8pjJ84cmZjS7S0rPL39wBNzc0vACTFC378+KE1rORYAXPptGbeT9tSiTEv0WTF2wAiK62qbNt37YkBPKEz8eVbAQjLtnVOAKMA+aHB9bnOzPJEcZr03Zc/XC2P4ttuFF3Ymz55jfdxC2HavB+C9PwhWs0cy9JodHsgIiIi0mAUAZS6M3jgyeHBbIK3+/7Nr78AYGZb49jdfum6lSYOXy7fXS7NfRkgeP8LrLi5x/cGkk8BGG7X8mP95FoSQiBLfcngwFe+PX7iyLo2F44PHSz+3Rd+5QzAnvs/VOzevQcAt0wePhwtABi51ew3yTVXrqmdsVv6Nbz388cHF/+JRdHXV7O/1Ro/fmj2uc//l1MAffs+8ifbbtmbjXjl16ptF0X2CYAbeu9o37Hzs08CvPbcV2dOv/l63Y5CX43Tb76eVHJ27nngp4e7d9/xBoBzuUWfmSIVigCKiIiINBhFAKXeFQHMbLk79hjSeWm33NgbN7W0OICx11+pLb1BAEJ2PZhujGTjmFnezFXmSu5dy32F4Puzfe6uHvUOPoR0juzC6ZGZ4sy5jexjOx1C+B68fQrxaqlrgObg3I5sxTG4wnOJ1xHDvmfmKnkqFQGUJakCKHXNOTcNYGZL5kUD0iYwowvg1vfta25qaYkB/uI3f77WEZsO5pvAVAGUDWMufs3Fucq5uNYVwGz6RdtqVuXrIFAkG/l78uAL+fHhI1c851/NAmPzNb8ae2oE57pCU+7ObHmGa7kC6KKjLoo3ZQ8X5VEVqdAXnYiIiEiDUQRQ6pu5PwIIcE8I4a75py9p7jFzRHETAMW5Uq6UpM3BZE3IIlcNCx5Cdt6u8WAk79OpFrN0SksWyWzYRfH/y5ZH1rZQ1Y0c+uZQfmjwFED/+z+y4C9Vj1U7cEe2fLDaiiKNQhVAqW9m2Yd12FF9NaOSvLZcLsehHHRuy9XKr+PUXJUbperDjc0K5qLXsuXJNS5TVYX8yckCJ1dYBsthVOYVX2ZotUhjUBOwiIiISINRlEQkFRN8Gg0JFlN9RKHI2gkk+Kzrwhrfose5pp01rloMIaQDJwJ1k0MvKRWPQjojUBznlmwl8D7pTUrFXely+W+A76xPCUXqlyKAIiIiIg1GEUC59nh/B/hKmoev1rJJIMQhhLZ0mVjxP9lARWB2owux0Oz01OzkqZExgNnzU3U0r67NABi2qplQRBqZKoBy7fGlD+H9+7NHNVUACTSH+RGRQV8mspGmMb630YVYqJA/OTn47FOvbnQ5LuWcOwNgZmrNElkhXTQiIiIiDUYRQKlvSWUqOBKi2tL/hxCaQwjrlUZDROqcmeGccwA9/fd2br/1PdsBBg98aeNmNBHZYKoASl0zn404dCvKixZzcVo3EWl4RqWVuGPbzc1WSXx94EsbWSiRDaUmYBEREZEGowigyAo5c2eCs/xGl0NkNfoe/MgD23r7dqWPru7x7hbHb2SLCdC/5HpmuCj9uguBNnzoWofiidQ1RQBFREREGowigFLXggvpTYqFOopVmIdQ3OhSiKyGBX/GfDn97HdR5dmNK9C6CFwcF+YSQNevNDxVAKWuhSbvACzg6idgbbPg6igZrkjtrFw+5pJkGMDHlQpg4FquBIYAwWcVQOdmzdn0xpZIZOPVyzeqiIiIiKwTRQClvgVXOUfr5lwNwXcG75VncEUWNMGF6ms2PKMd2LZWL//mkZeKp4ePFAH2fuBjNW3TdMNutnzwUQdw9unHr75zPwS8L3uA0cFvTZ4bf0v5/6Th1c2XqsjlGJUpnuqp1hBa1QdQ1lAzRutavfjU+FvJFG8BsLfGbaK2LbRs2QnA2TUq11oKBEJIP0OmTo/Mnhl+XU3A0vDUBCwiIiLSYBQBFFmhQIgDoXmjy3FVCRQJoZA9UPT0KrO5XNz6faXivQCl3X1Hxk8MntnoMgGEJLkdwMy6ifR1JrISigCKiIiINBjdMkmdCzsADGrO3G/mhoKx0k7eCZalhrDa9yW1C0E3nPWmMpbJzLDqWWBimO+XeNV9b5hZwVw0BmBc8ylg3MU+09duah955666C1kai8Fd2eIttsw31Pw2zg04c3+/ov2YzTrn8uk+bfvKSik1cEBuwbLUAV9OADDncPNJoRczyLnsxshs/v941TBzp+I49zSAOTe20eVZWwF0jUkNdJKIiIiINBhFAKWu+XL5fQBmtpNo6QjFQsGit4LZ0RXuqghuIl00DVK40gxnzmUDZ0yfO3XDvZH9bgd2VFuRENLIXx015Xtf7gFwzrUvs+o0cDxbvqZn8Qnl8nt9qfgAgMtt2ujiSB3TB7HUtRBC5Uup9n55ZtMXK3M1b+QxN5sukqxsW1meObMsp6O6JdUPs4WjeatVAKEeW4xC6Ex/sdyo/ASYzJav6Ru8EHx38P7WjS6H1L/6u6BFREREZE0pAih1546HPt7efUt/DiAUp+8FmJ8QZAne+/kO7VHZJy6sMNec2bCZ+6P0QdgF7FpyVdwORbHkWhDFTc9li3uA25daL/jyneVS8fMAIZT3A8NrXrgaxLlN3bWsl4RNozPlzX+eLV/TEUDM2nDWudHFkPqnCKCIiIhIg1EEUOpQaCb4VoD5bmPLRAAh+BBCAjCZP5kUzxfeUT++yryhl0s9kz6Xlqe7t68NYHZ6KinkT86+k32KrLeA/VO6EDp9KAPptbbovDfDnHMAHdt62s2iLoD8icEV9rV959q7b9re3NZxyVzJlw/JhxCGAeamz+YnTh1NAIrnz/q1LeHGSnM6KrYjy1MFUOqOBd/p8FsBLK7xFA0keD8D8OaRl2bGh19f9Ui/EELVpLhuwWjkvoc+uh0gf/zQ9OCBL600+bTIhgoWPQ0QQhKTlACI4ibM3j7i3sw5F+ccQE//j24HuxVg4LHPvLy+JYae/nv6u3v39qblqt4Xw3ueBzh3+vihYwNPXdtNvxlzEU7T4kkNdJsgIiIi0mB0myB1J/jyfT5JfhAgimvL/YfZMYviP0uX3bEV75Mw6618CsACs5WZlJaLMISk9J8Amrb1vLLlg4/+H4CzTz9+TTcxybVj8JknCwAd3TuHe/b+8ACAmesDFg2uqFwL3pd/Kvjw3uzpD69TUdnywUcdQNzZ9aAvl/YBRK76pCQuKT4BYOXymaorijQgVQCl7oQQdofg3wNgNeYMNrMJc9E/ABi2in5JIcFCOkdoIKk5WV3wPwIQXdcx07L1ZgDOrnznIhtifOhgEcDwBXP3DmVP7+KSCuDbboRCuI3gd65TEee1/Is7AYguTPaSzN5ZyzbO++8CWPDK7SlyCTUBi4iIiDQYRQBlEV9Obg3ebwd45Jd/vxVg9B9fTV7+yyfWrBN1d29fz959++/NHj5gxl21bFeanSkCnGtqHv3n1q6nAfInBlfcBDs+dHjm777w2RGAPfd/aKZ79x4AXK76BANRU1M/QEfwE5tnzt4LUNrdd2T8xOC6NDm5svtEtrh3I2/nQgjzeRhdFC9qOjczorgJgP59H72H7Obz2cf+61fWt6RyWZ5Bivw3gBD57cHRC5AN/H0bF8VdROnMPA986nMPA+SHBscGn33q1bUqXndvX//3Xzj7SQAz+q3KdenLycEQQh5g4I9+o7BWZRK52ikCKCIiItJgFAGURcxcDkcbQKlUfAQgbr5usru3bxjAvB8jhALA6Tdff0d9a7p393UBtHff1BOCf1+6f+uq1gevkqMPwFw8AODPnzt04a3hd1KUi69pdtTMvZQ9vLvGzboh3AfQsa1nthIAyw+9s0jgjbe9NwbwwbeVk/IOgIDfSaA9LSx7s1XXvU8WwKnhIwlArq1jevP2m0ezp7uA1qW2CYTtBDRX6RKC91t9ubwLWLd0HrPnp/zpE4dmATpuuGmkeXP7EYAQwp7KOpWorhksuAR/FGDTde3/1L27Lw8wlR+ZmDtfWHUapq4bdruWzZ0OoJSUbgfo2NazB7gtW6Xt0m1CCD54XwSYcfGREu7wavcv0ihUAZRFojien0Zo5sL5PwZo2dL9xt6H9v8ZgCsW/8K8fwNgsPOGaYAL//RqzaNft3zwUVfp0H37zNlbAULw9wZf/g8AdpkmxLe7+O3jmlp/FaA0cmzy7IEnr8joW7Por52LX8sefrn6upUgetjjCL8OcHP/PR67dwDg9ebOCVjZ8VnofT/5aA6gVCrumpmZeRjA+9KHQ/B9AM5t7Jx0B7/xtRmA7t13jPXdsPslAMPu5pIK4ML/ZwjhPSGEnQA7fvEP/ies/vhci0K5vNeXSvcBsE4VwML4yeLgc1+aAOjbt/8bze17s4FUFyuAFWmi4XTZ+/ArAJ3bel7q3NZTADh04KkX8ycGV10BvPWuB+Kd33dnDDB1bnJ/9vTtzuzhpbYJ3hfLSbEA8L2Wzi9NN7X81Wr3L9Io1AQsIiIi0mAUAZSqFkRudgCPAIQ4vjt4XwDYMVt4BcB3bS3euG//JMBEvGnggouHFr5OSznZ2pXM9gHktmy9zc0W0pk+LNyf7ae7cjoum3svMBRCmAAYfPbJYYDZ6ckrNkBlIm4+Wsq1jQLsmJvMyuSIlonGVModCB+G9H3dMFt4EcBv2Xr+xn37JwBcOXke70cAZqJ3JQCO0o6cXbgze4PdZBG06enJe7L33G6O7QDO4p6FUdD6YGNgfwEQoIcswne5/6VzbgewFWDHbOHXAHzn1mM33rf/GYCRwy9MF8ZPNsSsDZdjLhpxUTyYPay1C8IVM3LwhRfzQ4eOAPQ9uP/HAMzYasZlo4HpQrgtBH4JoOfd9+ztvrXvBMBbTW1/WMs+F34+bNr8rvunC5O7sv1WBoMtavYFSJLKaeIOEjf/LsD57z733bEX/1LRZJFlqAIoVS34Am/PfvBmt5NNh9Zenks/mFtaZ+yWvXmAUlPrq0RvT9C6OSm2bStO7wIIwf8g5bkeAIuiBy7uq+aA9AQwBpAfOji58ndV3YUoniDOTQCEC9n3yDJFuyRPWl9lcXMylwOwltaCu2XvGIArFo+YL48BTMZp172Yuc4Wd25Purm/GegEKBbnHgEw54jj3OJ91Y9pzI7OL1fhnGuvLLcncz8OQEtri+3e+zxAfvjQTGH85FqVs+6Z2ZQ5l9+o/RfyJ0cL+ZNpf84HGa627vxNT6DLLNwN0LHtpskO6+kEmNi05Q9r2efCzweflH6sWJztB2hqbumstl3wlevTnbKo6RmA4qk3NfJXpAZqAhYRERFpMIoAyiJJsTgTfDlrWwmtAOYiF+c2xXBJbjDn9l26/U2l6UcpLX5diyrb1X7f4bM7/EAYAV4EeCvX9rvnok1rNgn92acf95XZPL7/Z//HjQCh7B9OQvF/Qzoy83L50SoWRjKbmty9l/495OJHQ3bptTN+me0uTn8XUX0qvEoeRHPORU257Hq2dY8S5k8MTgw89pmXAfoe/Mgvdffu3Q5g5v+mss7ljlkUN+0DCCHsC8H/GsAd+356bE/4UAHAmY0C5IcOf2Nw4CufW/M3Ug+cnbHIjWx0MQAGHvvMJwG6e++4u2/fR34RwOBHzCyN4GfnbHq+ZaOE4QOV7ffMTvx7SCN1lWt5oShe8BWUDWiKcrmq52+SFOcjf7ly6AA4dfy1pDIgSURqowigiIiISINRBFAWMWeTAZf1o7EjADjXFkJI89B5v4OsP6C77MgIY/EghdojUt77IiFk4QL7LsDc+cLIVH7kWwDn4uaJC66p5td7Jyq50Ta1tY+2b995AIAQbvW+3AXgXNReZfMlVD8+C/McBu/T/nRmM2bzcxxPALMAibWcAXCEHeb9XWmZXA5q71B5pU2dPjnfB2tbb1+WTzF0+nK5F8Cci61Kh08za64cj5Ad5xDC5jUssiyjZG6iEOX+AaDVl2kKfhgg+HI6SMMsNrP5jr+LInhmK+njO8/7cuUFps3ZqXTRjeJsGuDU8YMJwNT4qOb6rQh+Yd/IjS2L1DVVAGURc9Gwc2kTVHCbPg1A8L3Bl98PUE6SnwrB3w6Qi1oWjc5b2By0Gr6cTAfvZwGiOPfbAFOnT44OPvvlF1f9oqtUyY3W3dv/4t4bPz4G4JPZTxPKPwTgclFfte0vZ7njs7ACWE5KeQBzbsTFTS8CBM+3yQbBFN3WQYAoXPiASyZ+D8Dipi6LqD6H3Ro6OfjN4ZPZGNZtvZ/7bYDg/Q94n/xrgCjOtVv09lFCaW65yjFxXZXnS7OlVoAQfPc6FF2WcPb4oaNjuc3HAHbMTfe3+1I3gE9KTwCYc61RHHddut3FJmJW1d5UTtK+JObcKeeavg5A1PQ1zN6Ai3ko5SLvPd6n9eFIX/FShW4PRERERBqMbg+kqsFnnsya88IxC2EaIAT/EoQ2AJfNVdW+raenp//eNGedT3oJYVE0oCJAUomAORcNAFxwcX4i3vQawLnXXiwW/3koATBz3wWYPT81uyZvsEZTp9+cOfS3ac7BEMqfJ4QvA7zr4Z/rBGjxSWdXMnczAMHfCVlzeQiL0lhc8v6PAFxw8chEvOkb2d/nTTzzxawJmBkzdyZ7gYtNwGwqAnRcf0Px5jvurByjqs1hwXwxONYlcnLowFNZ1Da8EYL/JsDmH3gol7uh1wHcWDz/UPb3dgI9ACH4zvnBR1E8CmAuGlvN/g8/8yeTALntuwc2v/eBDy+1XgDIeh3MuqaXllpvPYwc/OZA/vjgqwBdH3z076utO/H040cAZqen1jz1ydjv/lsPcKG3f7gp+FMAIfhfAMDMVZqAe/b+8E93dN90e/r3+fO/NRC2LnrRQKXcRTObATAXjeKsAHB44KtPpK/PtJlL94mNYaxLqpdjA18sAmy64ebnO+78sSXPn4VmXLyh58/o4Eu/NX7iSOXzqWqQZ+Lpx48CzJ6fuuLptKT+qQIoVY0PHaxkWp3IfgCOXLpegD5gC0DwoZXgl/zgySpAHiC46BWAotlQIcodABj71l/VXRLXufNTxfzFY/GdyvNNUc4BhED3ljDXT/qgE0IMC/KULbDw/eOiowAls9cKUe6rl647PnykpmMRhT0JfXemFb/lWt+NBAvr0mcqf2KwMj/wKHAQINlzj2vJWoB3cD69UQh0E0J6LL33ENLRzVF8BtLceKvZ//jxtA8nxw8N7bjrA8O1bHPu+Gsbev4VTp8cLpDmQYyj3MFq6+aHBte9rGffnntz0ZRr3bv23N5+/c607+bFUfyXf7EQKtfULObS13VuxLAzAOPDRxZdE+tp4sQr6XVy4pUR+8F9o8usDsC5Y9/d2PNnfPSlSnKByufTUjbi/JH6oSZgERERkQZTl1MKyJV3/e49H7jjgZ/5bYAoincsnI3hUt77F7O8ewx88bP7l1pPNt4jv/z7rQDFudkPTk9Pfh7SQRbukkEWvpz4cqmYABx+7mv7x4df/7P1L600qut7+3N97//4os+cLW3XzQCM/uOryct/+UTDTv8nshEUARQRERFpMOoDKHIVKyalGCDx5RxQifrpxk7qytz5SZ8/fnBRhO9886YEYGLshPqiiawzVQBFrmLTc7OtAJSTVszSJjZ17JA6Uzg9khz+2yfXZeSuiNRGkQIRERGRBqMIoMhVzBV9ZaoFh0svZ1MIUERElqEKoMhVzCo9pwyIs4D+pfOwioiIXEJNwCIiIiINRhFAkauY31SOASzgXLX7OXMTRE1vzC+LiEhDUwRQREREpMEoAihyNQvWmy11L7NmAezIxWUREWlkqgCKXMUc7sFscU+1sR9mNupc9DUAw8bWoWgiIlLH1AQsIiIi0mAUARS5ivmkdB+AmW0lrno5e2AmW07WuFgiIlLnVAEUuYoF73cB4FzrMqt6oLhgWUREGpiagEVEREQajCKAIleZvgc/8si23r17AFxkO6utm5TSoF/+xOGJwwN/+vI6FE9ERK4CigCKiIiINBhFAEWuAptveU9bi0+2AjS3ddwOYW/6l2Xm/TV7NVsYWsvyiYjI1UUVQJE6tuMX/8ABbE6K3TuL0/cBYPxLM+6qZXtz8WPpb6cKoIiIzFMTsIiIiEiDUQRQpM7cvOd9uY7rd8YAueK5nwNoCuFmc3ZvtkrvkhsDvpycCSHMAAwO/OkzALPTUzPVthERkcaiCqBInem4fme8fdeeGCApF98HYFiPOVdTs28IYSZ4XwDIDw2q6VdERBZRE7CIiIhIg1EEUGQNvf+Tn20H8FHsyrmWGMBCeYcR2rJVfhYg+PJWXy6luf1cvKPsXBtA5Krfo4UQAPDeT/hyeQjg8MBXfnV8+MiBNXg7IiJyjVAEUERERKTBKAIocoW1d9+0o7mtow3AG3cDBIIj+OyGK3RCyObutV4AM2u3LOpnZlWvS+89ELJH7lUA51w+juLBdDnKX9l3JCIi1xpVAEWusJ7+e+7cdsve2wCS0txvAZiBC8n8OmaV35UFh3O5ml7f+4TgPQAu3vQYQBw1DV/Xet3zAHEcF6/IGxERkWuWmoBFREREGowigA3CcEPOxU8A+HL5Yz4p9QHEuU06B668JASKAC5KD6+ZXYz2LcOXy/ODO0JI07mY2Yi56AWAUmh7vUw8AXD8wOMvpn93M3EUFQEmxk74K/puRETkmqMv/0ZhNmkWvQoQQukngi+rkrB2PJAAOBfNP1lrBTCEQAjpvyf48my6scubRd9OXzz3Ytk2jQDkhwaV4FlERFZMTcAiIiIiDUYRwAaRHzqUf/aLvzoAcMdDH/9O9y39OYByudQLEILvD8F/EsCcTdQarZLFXKn0Qjw3+xJAMY4/Vm3dKIo/D0BgEtwIQIjcDGYJwHNf+O8ja1xcERFpQIoAioiIiDQYRQAb0NTpN+fThJhPJgBCCMOB8ByAGVNmplQiqzQ1Pjqf7yWJoueqretcGvUj2AxYIV30RWxBzhgRERERERERERERERERERERERERERERERERERERERERERERERERERERERERERERERERERERERERERERERERERERERERERERERERERERERERERERERERERERERERERERERERERERERERERERkWvB/wdx+DkYWPbzmwAAAABJRU5ErkJggg==;" vertex="1" parent="IJQR4OGKdWdGs9fNsD_m-32">
          <mxGeometry x="-2.1700000000000728" y="20" width="40" height="30" as="geometry" />
        </mxCell>
        <mxCell id="IJQR4OGKdWdGs9fNsD_m-34" value="&lt;div&gt;&lt;b&gt;User db&lt;/b&gt;&lt;/div&gt;&lt;div&gt;Users etc.&lt;br&gt;&lt;/div&gt;" style="shape=datastore;whiteSpace=wrap;html=1;fillColor=#e1d5e7;strokeColor=#9673a6;" vertex="1" parent="1">
          <mxGeometry x="530" y="128" width="99" height="70" as="geometry" />
        </mxCell>
        <mxCell id="IJQR4OGKdWdGs9fNsD_m-36" value="Server cron jobs" style="swimlane;fontStyle=0;childLayout=stackLayout;horizontal=1;startSize=30;horizontalStack=0;resizeParent=1;resizeParentMax=0;resizeLast=0;collapsible=1;marginBottom=0;whiteSpace=wrap;html=1;fillColor=#fff2cc;strokeColor=#d6b656;" vertex="1" parent="1">
          <mxGeometry x="81" y="110" width="250" height="120" as="geometry" />
        </mxCell>
        <mxCell id="IJQR4OGKdWdGs9fNsD_m-37" value="&lt;b&gt;EvaluationEngine&lt;/b&gt;. Reads new datasets / tasks / ..., writes statistics to metadata db." style="text;strokeColor=none;fillColor=none;align=left;verticalAlign=middle;spacingLeft=4;spacingRight=4;overflow=hidden;points=[[0,0.5],[1,0.5]];portConstraint=eastwest;rotatable=0;whiteSpace=wrap;html=1;" vertex="1" parent="IJQR4OGKdWdGs9fNsD_m-36">
          <mxGeometry y="30" width="250" height="30" as="geometry" />
        </mxCell>
        <mxCell id="IJQR4OGKdWdGs9fNsD_m-38" value="&lt;b&gt;openml-labs/minio-data&lt;/b&gt;: read dataset files in .arff, converts and writes .pq" style="text;strokeColor=none;fillColor=none;align=left;verticalAlign=middle;spacingLeft=4;spacingRight=4;overflow=hidden;points=[[0,0.5],[1,0.5]];portConstraint=eastwest;rotatable=0;whiteSpace=wrap;html=1;" vertex="1" parent="IJQR4OGKdWdGs9fNsD_m-36">
          <mxGeometry y="60" width="250" height="30" as="geometry" />
        </mxCell>
        <mxCell id="IJQR4OGKdWdGs9fNsD_m-39" value="&lt;b&gt;openml-croissant&lt;/b&gt;: read dataset metadata, converts and writes in croissant format" style="text;strokeColor=none;fillColor=none;align=left;verticalAlign=middle;spacingLeft=4;spacingRight=4;overflow=hidden;points=[[0,0.5],[1,0.5]];portConstraint=eastwest;rotatable=0;whiteSpace=wrap;html=1;" vertex="1" parent="IJQR4OGKdWdGs9fNsD_m-36">
          <mxGeometry y="90" width="250" height="30" as="geometry" />
        </mxCell>
        <mxCell id="IJQR4OGKdWdGs9fNsD_m-50" value="" style="endArrow=none;dashed=1;html=1;dashPattern=1 3;strokeWidth=2;rounded=0;" edge="1" parent="1">
          <mxGeometry width="50" height="50" relative="1" as="geometry">
            <mxPoint x="81" y="439" as="sourcePoint" />
            <mxPoint x="830" y="439" as="targetPoint" />
          </mxGeometry>
        </mxCell>
        <mxCell id="IJQR4OGKdWdGs9fNsD_m-51" value="" style="endArrow=none;dashed=1;html=1;dashPattern=1 3;strokeWidth=2;rounded=0;" edge="1" parent="1">
          <mxGeometry width="50" height="50" relative="1" as="geometry">
            <mxPoint x="80" y="261" as="sourcePoint" />
            <mxPoint x="830" y="260" as="targetPoint" />
          </mxGeometry>
        </mxCell>
        <mxCell id="IJQR4OGKdWdGs9fNsD_m-52" value="&lt;div&gt;CLIENT&lt;/div&gt;" style="text;html=1;strokeColor=none;fillColor=none;align=center;verticalAlign=middle;whiteSpace=wrap;rounded=0;rotation=-90;" vertex="1" parent="1">
          <mxGeometry x="30" y="500" width="60" height="30" as="geometry" />
        </mxCell>
        <mxCell id="IJQR4OGKdWdGs9fNsD_m-53" value="BACKEND" style="text;html=1;strokeColor=none;fillColor=none;align=center;verticalAlign=middle;whiteSpace=wrap;rounded=0;rotation=-90;" vertex="1" parent="1">
          <mxGeometry x="30" y="330" width="60" height="30" as="geometry" />
        </mxCell>
        <mxCell id="IJQR4OGKdWdGs9fNsD_m-54" value="SERVER" style="text;html=1;strokeColor=none;fillColor=none;align=center;verticalAlign=middle;whiteSpace=wrap;rounded=0;rotation=-90;" vertex="1" parent="1">
          <mxGeometry x="30" y="148" width="60" height="30" as="geometry" />
        </mxCell>
        <mxCell id="IJQR4OGKdWdGs9fNsD_m-58" value="" style="group;fillColor=#d5e8d4;strokeColor=#82b366;" connectable="0" vertex="1" parent="1">
          <mxGeometry x="191" y="455" width="401" height="110" as="geometry" />
        </mxCell>
        <mxCell id="M-M-LhbsIdI5wGWc-zYi-46" value="" style="group" connectable="0" vertex="1" parent="IJQR4OGKdWdGs9fNsD_m-58">
          <mxGeometry width="401" height="110" as="geometry" />
        </mxCell>
        <mxCell id="IJQR4OGKdWdGs9fNsD_m-28" value="&lt;b&gt;&amp;nbsp;Python API&amp;nbsp;&amp;nbsp;&amp;nbsp;&amp;nbsp;&amp;nbsp;&amp;nbsp;&amp;nbsp; &lt;/b&gt;&lt;br&gt;&lt;div&gt;&amp;nbsp;openml-python&lt;br&gt;&lt;/div&gt;" style="rounded=0;whiteSpace=wrap;html=1;align=left;" vertex="1" parent="M-M-LhbsIdI5wGWc-zYi-46">
          <mxGeometry x="40" y="20" width="95" height="70" as="geometry" />
        </mxCell>
        <mxCell id="IJQR4OGKdWdGs9fNsD_m-41" value="&lt;div&gt;&lt;b&gt;&amp;nbsp;R API&amp;nbsp;&amp;nbsp;&amp;nbsp;&amp;nbsp;&amp;nbsp;&amp;nbsp;&amp;nbsp; &lt;/b&gt;&lt;br&gt;&amp;nbsp;openml-R&lt;br&gt;&lt;/div&gt;" style="rounded=0;whiteSpace=wrap;html=1;align=left;" vertex="1" parent="M-M-LhbsIdI5wGWc-zYi-46">
          <mxGeometry x="142" y="20" width="65" height="70" as="geometry" />
        </mxCell>
        <mxCell id="IJQR4OGKdWdGs9fNsD_m-42" value="&lt;div&gt;&lt;b&gt;&amp;nbsp;JAVA API&amp;nbsp;&amp;nbsp;&amp;nbsp;&amp;nbsp;&amp;nbsp;&amp;nbsp;&amp;nbsp; &lt;/b&gt;&lt;br&gt;&amp;nbsp;openml-java&lt;br&gt;&lt;/div&gt;" style="rounded=0;whiteSpace=wrap;html=1;align=left;" vertex="1" parent="M-M-LhbsIdI5wGWc-zYi-46">
          <mxGeometry x="214" y="21" width="89" height="70" as="geometry" />
        </mxCell>
        <mxCell id="IJQR4OGKdWdGs9fNsD_m-43" value="&lt;b&gt;&amp;nbsp;Other APIs&lt;/b&gt;&lt;div&gt;&amp;nbsp;Tensorflow, &lt;br&gt;&amp;nbsp;Pytorch... &lt;br&gt;&lt;/div&gt;" style="rounded=0;whiteSpace=wrap;html=1;align=left;" vertex="1" parent="M-M-LhbsIdI5wGWc-zYi-46">
          <mxGeometry x="309" y="21" width="79" height="70" as="geometry" />
        </mxCell>
        <mxCell id="IJQR4OGKdWdGs9fNsD_m-56" value="LIBRARIES" style="swimlane;horizontal=0;whiteSpace=wrap;html=1;" vertex="1" parent="M-M-LhbsIdI5wGWc-zYi-46">
          <mxGeometry width="401" height="110" as="geometry" />
        </mxCell>
        <mxCell id="IJQR4OGKdWdGs9fNsD_m-59" style="edgeStyle=none;rounded=0;orthogonalLoop=1;jettySize=auto;html=1;exitX=0.914;exitY=0.019;exitDx=0;exitDy=0;exitPerimeter=0;fillColor=#fff2cc;strokeColor=#999999;" edge="1" parent="1" source="IJQR4OGKdWdGs9fNsD_m-31" target="IJQR4OGKdWdGs9fNsD_m-33">
          <mxGeometry relative="1" as="geometry" />
        </mxCell>
        <mxCell id="M-M-LhbsIdI5wGWc-zYi-27" value="auth / &lt;br&gt;&lt;div&gt;dashboard / &lt;br&gt;&lt;/div&gt;&lt;div&gt;upload / ...&lt;br&gt;&lt;/div&gt;" style="edgeLabel;html=1;align=center;verticalAlign=middle;resizable=0;points=[];fontColor=#999999;" connectable="0" vertex="1" parent="IJQR4OGKdWdGs9fNsD_m-59">
          <mxGeometry x="0.1139" y="-2" relative="1" as="geometry">
            <mxPoint x="-1" y="50" as="offset" />
          </mxGeometry>
        </mxCell>
        <mxCell id="M-M-LhbsIdI5wGWc-zYi-9" value="REST API" style="swimlane;horizontal=0;whiteSpace=wrap;html=1;fillColor=#d5e8d4;strokeColor=#82b366;" vertex="1" parent="1">
          <mxGeometry x="270" y="290" width="246" height="120" as="geometry" />
        </mxCell>
        <mxCell id="M-M-LhbsIdI5wGWc-zYi-10" value="" style="group;fillColor=#d5e8d4;strokeColor=#82b366;" connectable="0" vertex="1" parent="M-M-LhbsIdI5wGWc-zYi-9">
          <mxGeometry x="100" y="36" width="130" height="70" as="geometry" />
        </mxCell>
        <mxCell id="IJQR4OGKdWdGs9fNsD_m-13" value="&lt;div&gt;&lt;b&gt;&amp;nbsp;&amp;nbsp;&amp;nbsp;&amp;nbsp;&amp;nbsp;&amp;nbsp;&amp;nbsp;&amp;nbsp;&amp;nbsp;&amp;nbsp;&amp;nbsp;&amp;nbsp;&amp;nbsp;&amp;nbsp;&amp;nbsp;&amp;nbsp;&amp;nbsp;&amp;nbsp;&amp;nbsp;&amp;nbsp; NEW&lt;br&gt;&amp;nbsp;&amp;nbsp;&amp;nbsp;&amp;nbsp;&amp;nbsp;&amp;nbsp;&amp;nbsp;&amp;nbsp;&amp;nbsp;&amp;nbsp;&amp;nbsp;&amp;nbsp;&amp;nbsp;&amp;nbsp;&amp;nbsp;&amp;nbsp;&amp;nbsp;&amp;nbsp;&amp;nbsp;&amp;nbsp; REST API&lt;br&gt;&lt;/b&gt;&lt;/div&gt;&lt;div&gt;&lt;b&gt;&lt;br&gt;&lt;/b&gt;&lt;/div&gt;&lt;div align=&quot;left&quot;&gt;&amp;nbsp;&amp;nbsp;&amp;nbsp;&amp;nbsp;&amp;nbsp;&amp;nbsp;&amp;nbsp;&amp;nbsp;&amp;nbsp;&amp;nbsp;&amp;nbsp;&amp;nbsp;&amp;nbsp; Git: server-api&lt;br&gt;&lt;/div&gt;" style="rounded=0;whiteSpace=wrap;html=1;align=left;fillColor=#d5e8d4;strokeColor=#82b366;" vertex="1" parent="M-M-LhbsIdI5wGWc-zYi-10">
          <mxGeometry width="130" height="70" as="geometry" />
        </mxCell>
        <mxCell id="M-M-LhbsIdI5wGWc-zYi-4" value="" style="shape=image;verticalLabelPosition=bottom;labelBackgroundColor=default;verticalAlign=top;aspect=fixed;imageAspect=0;image=data:image/png,iVBORw0KGgoAAAANSUhEUgAAAoAAAAHgCAYAAAA10dzkAAAACXBIWXMAAA7EAAAOxAGVKw4bAAAgAElEQVR4nOzdfXxc1X3v+89ae89oNJYlWRhZ2EIYQwg4tnlMAgkQQgjtzaEklwbStMlpem6bJqevc9s0bU6bc9o0rz7etGnubU+b05yb06c0D5BykjTtbYAQQgIhBAjYjnEJGMcYIQsjy7I8Gs3svdb9Y89IIzN6ljyj2d/36wWzNXvP3r958J41v99ea4GIiIiIiIiIiIiIiIiIiIiIiIiIiIiIiIg0PdPoAEREVsuGt/y8BdjQ1mbP7erKrcQ+99x3Z3H44P5oJfYlItIoYaMDEBFZLe2vuAyADevWhdt6e7Mrsc8Dj3+rBPtXYlciIg1jGx2AiIiIiJxeKgGLSMOde8k12Rve8+EOgKHnD9nxE8dnrF+3fsPW3v5t1wIcPT62c2Ky1AswcnxsQWXdtjDo7cxndwCUIofzfsmxThRLu6MoHl7Itj09G0oA2dAW1uezRwFGhwe/MHnyxN7a7TrWd9G3ZcAB3PM3fzD+7OPfKi05QBGRBVAGUERERCRldA2giKyabZdflwfwzhE7FwLEUXm7i10vwETkLUB249bs6MliHqDorI1s24z9FJ3ZePxk4VUAxVJ5oBzFnQDG2DrX9b08u+egsxQ5ACLnX54BnDUh+PIVHrqNWVjxpFwuRwDe2ZLBdQKUYnNtZDLbarcrxjA6XnAAbT1nF3q2XTIjA2jwwwF+X3J8X8LgAF58Zk9xQYGIiJxCJWARWTXv+6v7+gGiKAqLpaSBVxg78dHyZOk6gMNjcQ7AGMLQmko510C1geXd9M7MAgsWtY+Zf+MZN7Oun3c3s2xX935ff331OUelAi6e0cs4JL6v3UQfAXDGjXpDEeC+T/7G0MICFBGZSSVgERERkZRRBlBEluxN/+G3ewEKk+XcS8dPdgP4uHSj9+48gG2vfnM/gPfexr5SAi5H252rlIDLrvoj1FpTJ8VXL0M2Y3012zdL1nBeq5wBnG//MzKclfidi6YfkNwa74cDXKUE7Eq+8sCJ5/Y/BWDD8NlMPn8vwNPf/vLhkUP/NrawwEUkrXQNoIgs2bbLrusAOD4+0cHwaB+Ai4qvx0dXAIyeKPRPbTyjAZcsW7tSRQhPU/6enXrOfmYjcOr+OjFbW3NeTh7kvd8cEWwG8C6eur/vgiv2AgRtbY/lOjt3Azy/54Fh+LeVew4i0pJUAhYRERFJmSb8ySwizWbLBZeGr73557MAYWfPv7dt+YsBDgwdf9/URnN10pivRLrox831mCYqAdfeb6dKvAvb52zH93X+qDlOVz47lsuGJYDJ558+D2Do4L5o9zf/sbCIA4tIi1MGUERERCRldA2giMxqywWXhgBdZ23rLzh7NUBQcpcbHw3M3HKWYsIyZtxYkPk6iTST1X4tKsqxy1KOAYjD3NsA2nrOGtqy8/WPAYwc2j82cfwlzTQiknJNfsYUkUa65df+Ihm7z9lbRqLM3wNgs2CDyhbLLeEu8/H1xglsphKwqVk/tc1ieiwvsAQ8iyxJQ7Ctvf2+rjPO+AjAdz/7sX3P73ng6DwHFpEWpxKwiIiISMooAygiM/TvuibXtemcLMCGi97wSQBn7EBkM1cnW9iZw5vMZdUzgHVKwM2UAaw3zt+iSsHLywDaZMY4rLXDYTazD2B08OBfF08cfxzgqa/+2e5FBCMiLUTXAIrIDF2bzsn2nrcrCzDqgpsBjLVhWC37Lqb9sqRGzxL2vxas9mtRh6v8xo9j11suTPQCtPdue3DdWdnqFHJqAIqklErAIiIiIimzhn4+i8hq8vdfYwE+9NCbPn3P89tuBsiEQc/LN5z1jzo7VSeQqfUN6ARS//lN/7E+Hr8U4Mgzu0f33vOZg/PsTERaiDKAIiIiIimjawBFhOuu3Np5/9ArBgBemlzfY4zJrvQxqkkvg5ladtVklPeLurSwzt6X9ehVs5AZQhooNsENAO0beg8MXHz1CMDRg/sLheNHo8ZGJiKrrUnPmiJyOm266Kodu37yg+8AKJSiW8qx256sWW4JMmGAsDIVWmANttICLMdJCdR5T1xvijRNBTfPXUspAU/LmiSWfEf+rt6+Mz8AcP/f/NHhQ098e2wRQYrIGqQSsIiIiEjKqAQsIkRxvLkwUbgFIML2L+e3YcYagkq265od/QB05dsYOLMTgLZMQBgk60dOFAEYHS9ycDhJOv1w8BgvVe6P43hhB/We6TRXbWGjwaXW2lCmMn/NE1/kk1gmJqPNR186fgtAqVS+E9jXyLhEZPWpASgieO86y1GUlH1tZlm1gcAaQpvs4Ly+LgDO7Mqz45wzAWjPhmTCZP3QyHhye+zk1PWAgy+Nc2x8EoAFNv9ergFj7i0qjiaJrzpOYBS7zomJyVcBxHF8T0ODEpHTQiVgERERkZRRJxCRFLvlD798LUBhMrpu5ETxo9Nr5pjqrU4nhNAacmEyU8iv/u9XcNVFmwHoWd++6JgOvzjGWCHJAL73v90NgHNulk4iTT4OYJN3AqnnpcC/Y8LyRYDB/+c/LiZYEVlDlAEUERERSRldAyiSYhOTkQUol+NgOfvpzLfxirOS6/161ufIhkvfXXvb9Gnp3E1Jx5ETEyVeqFwvWN8aKGY0+nrEOU3HljP2/MDwmsqfDzUmHhFZbWoAiqTY6FgxC+AhnOqYsBiVx5x95nrece2FALxiywY62pc+jvQZnfmp5esvHgDgmRdG6zcATZMXMWxNZ48lTQV3+m2wwb8LgmAnwFNqAIq0rCY/e4qIiIjISlMGUESWbEM+yfRt6s5z/lndAHTkVm4WuWtelYwj2JYJufeJQ0DSIeRlxdSGjQM4z/5dzXpTLxvYfKLYbY69zwNccct7Q4Bjhw+4Zx6+p/nSlSKyZGoAisiStWeTU0hHLjPV4zewK1dYOKc3ua7w2SNj2Mp+3UIaUE0yzt4MzRhTHc77TuOS74YtF10+/WY+jBqAIi1EJWARERGRlFEGUCTF+ruDrwGcLHuOFhafmbqgvweALRvXk1lGz9/ZVPeZb8twZlfSOWTkRIFiKUo2mG0cwGbJstV2AqmdCq6JO4H4OOrx0APwwlAmBBgdJWpsVCKy0pQBFBEREUkZZQBFUsxVfgN6HKvfYWI1Nek4gAuZIUREpAHUABRJsdhkAHDEQKmxwSxFs48DWNvOq3aOWdRUcCIiq6PJz54iIiIistKUARRJsVI5yfpF8dJKkoMvJbNzbOnpIIqTzJa1BruUWUXqqO5zshwxVpiccR9Q04mipmNFM6kNyansKyLNQw1AkRSLK+VIt8Rr0sYnkgbkRKmMr+7DmxW7JK+6z9h5Jsvx1HKdLWnK6wDrjv13OgeqFhGpTyVgERERkZRRBlAkxcpRko1KqqqLz0YNjhYAeGboOA8/9QIAr+zvYWNnfkXi+8w3fpDs/4VRylGdoeiavRNIbYePqU4gyvqJSOM1+dlTRERERFaaMoAisnSVa9vGCpPsO3QUgJ71OdqzyfAy63KZRe9yrDBJKUqu93t26DgAw5VM42zHB5qzE8gUo7H/RKSpqAEoIst2+OgJ/vGB/cCpDcCuRe9rcGScl8YmALh393MAuFnHzputc0WTqJZ9vVd/DxFpKioBi4iIiKSMMoAismyR84xPJlm6f3r4AA/sSzqE/MRrtwHQmW/j7I2dAGQzlrCSGRsdLya3Jyf50fAYAN/74QsMjiTjC0ZxUgqevXzahFm/WrMOWSMi0lhqAIrIsnkP5cpg0k89fwxrRgHYufUMAM7synPG+vbKtiEunL52EGB49CQ/HDwGwN4fHeW5oyemdzyXpr7u7xR1xwQUEWkMlYBFREREUkYZQBFZUbGHuJLl+u//3+55tl5mNszXdA5pxjEBbU3Wbyrzp5lARKTxmvCMKSIiIiKrSRlAEWkBTXotoK73E5EmpQagiKxdzVj2rVXbANRUcCLSRJr87CkiIiIiK00ZQBFZu6Y6gZjmHBKmNiZl/kSkiSgDKCItoEkbV6ZJG6YiknpqAIqIiIikjErAIrJ2NXsnkNqy79RMIK7+tg3RpJlTEVl1TX72FBEREZGVpgygiKxdvk6GrVlpTEARaSJqAIrIGlbbqGrCBuCMqeCqd2oqOBFpPJWARURERFJGGUARWcOaMOtXy9WOU1hZVNJPRJqAGoAisnY1+3V/U/x0j2VdCygiTUAlYBEREZGUUQZQJMWCMPw9gDiKQlcqZRsdz4pYytiANYlE49xNBn/BisRia7J+mgpORJqIMoAiIiIiKaMMoEiKHdn34B6AyDlbLJVbIwO4BO2dG+jZss0ClL2/trbvxrLUvd5PmUARaTw1AEVSbPedf3p7o2NoBpsvutyef957Q4BjBfsTRWeuSNYsswU4Y5jCmjEBRUQaTCVgERERkZRRBlBEZLXMmPRDmT8RaR5qAIqIrJa6ZV9NBScijacSsIiIiEjKKAMo0gTOveSa7A3v+XAHgM1msyYI9G/zNPLOWxf7EKAweCRXPHFyZXY81Z2Y6TEBNR6giDQBZQBFREREUkZZBpEVtmHLNtveuQGAiGx3cq8JPSYLEMdRv/eus/Yx2TPPzY+enOwGCMoua4NgZX6cVa89O3XO3KbpkLDacSxw/w6cSzKAURRvXvk4TBO95ivn1jf3dgA45zfGcXxho+Kwxo7ZMDhU+bNg8CWAO+4eHm9UTCLNTg1AkRV23mtvsFsuutwCjNuN5wN4TN4R9gBMFMbfEUWlHbWPMdD5o6Nj/QDZbIYwCFYmmDiuHMDUlCBd8zRGXLzKB1j8/ifLrmY6uWW+TrVTwTXJS76Sbv/Yrj6Acjm6ujhR/M+NiiMMM/ty+fwXkr/cAYMfBTCX3vN0o2ISaXYqAYuIiIikjDKAIiugZ+CVnedf/dZ+gMwZA+84Fq3bARDhKiVgrDc+C+BtMGDDtkoJeCotFFaHB4mcJZ66e7600Tzra/dT7ZBQm/2bNxNYZ/2iMlnzxefmWb+Y4yxj2rWazdxKdtKou6/WSQX6cikLEHg6cm3hwkrns37mlvK6JI+xxnUQTSTH924cfATwud87/2sAxoYHbdh2P8Cffubg+EO7j5eWcDCRlqIGoMgKaO/amO3f+fqNAC+Nl6+dKLnrkjU1X2qm0tgxFhOcUmKsbYCc8vecFvOdWe+Ld+nfuQvbwXJLzQt9vJ+tATjvA2fcrKpWnArOOQtgjMlmwuDUHzX1zTo/cr1p9xb6/vhOfNRfiWnqAW+//owxABNkckHbuocB7rh7qPAQx+fboUjLUwlYREREJGWWOdO5SPpc8a7/etmWXW/oAxgaeuF/AXhjLTZbyaibml63CyyxzrrZcjNs9bJ+i0obznPXKsS3mMfXlpBNnd+z85WYl/v6z/f4qY/BbJ1AlluCX/nPl695zUwpsw5g5NlHo6fv/dTLyqbuoauTzkzG3GgC+/EFxTRrBnCO+Bb1/viXLZYi78aLSVm4oyP/S9m27L8AmEu+Njh3sCKtSxlAERERkZTRNYAic9hcGc7FYTsiMn0Apn3DFROT5XMBfPViPmP1Y6rRmvHaumaMKYWsgWyYJDxcHL26NOktwK1v3vA/AZ47UnIP7T45X7pYpKWoASgyh1ff8t4QYJK2/nHT9RaAKHLvHh2f2AVA2JZsuJa+52sHhV7rDRRTM85eM74Jta+vpoJrmDAwtiNIPiwni8X3FieStt7tH9v2GYA77j4W3fahA+oZLKmirIWIiIhIyigDKFLH7R+90AJ8zvZ8BIDI9EWT7goA5xloYGjLt9azfrVmdPKYYxiRRqnNtirz1xTaMpZMmLwvJ8fjvwe49IKu797+xxf/N4A//fuDpYd2H48aGKLIaaEGoMgpbv/ohfbWN54JwOcfyF8LgIs3Oleanuv01Ll1pfHqvSeNbuy24th/a1wYGKo/Fgrj8S0AZ52Rs+ef2/kpgDvuGoo0TqCkgUrAIiIiIimjDKDIKX77iZtu+rPy6y8AKJWLV0+taJWsX6t2Apl3zL8GqC37TmUDmzDOlOruyADgvLsiOjn6VwAuLn8CeKiRcYmcDsoAioiIiKSMMoAiQK5rY67nnO3dAG2dGy9wzl/c6JhWzVrP+tVaS89lLcWaMgZyxtAPcNWu7n4TZPoBvnj3kcONjUxk9agBKAL0nLO9+9Xv+q3LAI6NFd5aLJWT0m+rlH1bVm2JdSlTwa0yW9MJZCrU2s+UGoXNwBizMTBsBPjVd299GJuxAPbSr93e2MhEVo9KwCIiIiIpowygpNqGt/y8Bch0bTr/6LHRXwSInNlWf0y5FGvaRFVth5Ym7FzhqjGZ6VCb9rUUgMli+S2xj6+s/KkMoLQsNQAl1dpfcRkAAWHPRHHyCgAbZnusrf7TaMFv65bqBbxWxtnzp0xbJ80qjuMLyrHeI2l9KgGLiIiIpIwygJJqV/ad802AQjneOFKINgMtmfSboZUyULVl36bsBFKT9dNUcGtCeyYiV/lmdI9edyPAHXcPD73jN/btbmRcIitNGUARERGRlFEGUFKtWI43ApQj19noWGSZGpHZnO+QdWNSJrDZTV0l61ylKuBLDQtGZJWoASipNjpRvhCq1bmU9PxtqU4gtR0rmvC51Ia0ZjqspJs10z22vYtfW1kIgfsaFpTIKlAJWERERCRllAGU1Ol/7VvP7+x/ZQ9AXOkjkKYEYEtloGZ08qj3Bjb4uc6Y9KOFXveUKBRLNwJMlqKo0bGIrDQ1ACV1Ovtf2dO7/ep+gEKp3OhwZKXUm7av0Y2uumVfTQW3VpQjtw0gdr6v0bGIrDSVgEVERERSRhlASYXNF11uX33Le0OAky7/C+Vo4i0AmExD42qIVu0E0ugx/+pxNTFVxwTUeIBrRve65CvyPTdtzr3nlldsBrjt1x8fuePuI8WGBiayApQBFBEREUkZZQAlHbzHxM4COMjGmFyjQ2qYtZ71q7VmnotZQ7HKqbwx3Ri7C8BjHgeGGhySyLKpASipYJy3NkoagLE1HSVje5IVDQ1Llq2mUdXsU8Gp/beGmQFvw3cni2YENQClBagELCIiIpIyygBKKgRt7b35Mza/BmD0pO+jrHRMa6jt0NKMnUBafCq4oJJJh46GxrHK4qjcPTk2ugsgLpe7Gx2PyEpQA1BSwQaZjmy+cxuAnSx0EKV4/L+W6gW8hqZXW0uxLpS1ybW03rc1OJJV5V2cjUpxb7Ls0nv9sLQUlYBFREREUkYZQEmF8ckyT704ZgGiuIUyMEvRShmo2rJvU3YCqcn6Tb3uzT0TiHGugPcRwFl9mQjAHaPuC+kcX4PkGdWbiKVVhJZcRxs5gDs/fnGfCbObAcwlXxtsbGQiS6cMoIiIiEjKKAMoqWAN3VnLxQDO0a3JGFpQM2Y2mzGmeXhjx8EXAJ5/8lEHcOzwgVlSqWvv+S3VdILTW7zXd6esefoQSyqEhoHODO8CiGKIGh1QI7VUJ5CacfaasTFS+/qukangvAmGvDHDAI/e+ak5/6mYGZXh1i0oGVP7z8aH4LKNjEdkJbTuv1gRERERqUsZQEmFUuwZmUiyFSUHqZ4CZK1n/WrN6ORR7z1t8HOtzbY2eeavqm9j9/51+fY9AI/WWf+Bdw10X7WrK7VDofi4dA6uvKPy59MNDUZkGdQAlFRwHopR5QvYmFS3/1pWvW6ojW7srsGx/zrWtR/d0LX+0Gzrr9rVlbv1zZs6AFw0efoCaxY+7sTT2+gwRJZLJWARERGRlFEGUFrauz7x1e0AJ4px/wujqe76Ma1VO4E0esy/emrLvlPZwGaM00W4uABw16d+5+6RA49/afaN/ZXgLgSw9cZebHFxzGucNwOVPz/V0GBEliF9/3pFREREUk4ZQGlphZLvBChF5BsdS12NSMCt9axfrbX0XJowVl+JyVo7GoThPgBj7eip2/VvarNX7eoOAfrOyAyUStGrALKBLqYVWavUAJSWNjLuNwNEjjOmpwprvi9iWaraEmuzTwVXvbOZpoKrNADDzIH2dZ2fBgjC7MFTt7pqV3d4+59ckgcYHzt5zfj45M0APentDCyy5qkELCIiIpIyygCKyBpW26GlKTtXVBZqhh5qdNKvRkc2cwjg+NCB/c88cd/9AMeff2r41O28i/t96eT1AG1ZtmbDTGq/O4xhq8X3NToOkeVK7T9ikdRqqV7Aa2WcPX/KtHXNIRsEYwDxydGjw/sfOjj7lq4TV34VQGgznSYMkifTPE/ltDHQrXFEpRWoBCwiIiKSMsoASkvryQcfACiU3caRQhOWCBuhiTJQy1Zb9m3KTiA1Wb9mmQoujgp4FwGss+61AG2mXHeQTP/4j20GKJWi1xw/OfkrAPl2SzbFqQOb4ucurUUfZREREZGUUQZQWtpkOeoAiCKv8SrWiqVmKJsxs1k3poYM/uhwSTp00vBwbM0hgMP/9lgEMDL4bN1UqY+j7QAWd3YmTC58s7r+TaQlqAEoLW18otgLEHub08e9oqU6gdR2rGjC51IbUiM7rHjvcFEBYDwb/PlEEHwJYO8/fXruGnlU/EmAwJht6/LBqocpIqePSsAiIiIiKaOUiLS0wmQ5C4ANQhPq4w6s/axfrRmdPOrVJhv8XGdM+nH6Y8lmwgcBQtzTOe/+GWDosXsfGfzWnbNm/n7lnX3XXbWzYwDAmeBGAGPIq/L7crf/0fbbAL6ze+zwJz57+MFGxyOyGPpGlJYWxc4CGKzVh32NWGqJ2tRpojS6sVu37Hv6poILguAQQAaeyBv7VYD4yLOluR5z1c6OgVvfdMalAM7YbacjzrXq1ht6d1aXP/HZRkYisngqAYuIiIikjJIiImnT7J1AFpX1q+kE0ugx/+qpHfuv2n12BcYDrL6DLhnOjyAIDrW1tT0IYIpjnzZx6XGAb3z8Q0fn2o+//5rkBQzMdtrsOyp334Ix2wECmvA1bSI+nugA8K6kUQZkzVEGUERERCRllAEUSZsmyvqFU9Mq+JrE5BK6G8wyDIyZ97nOd6x5Hj9j/3W29TX7ry7ahV8DWJ1yN3Z+dDJyBwACa501xgEMPfndQwDW2qOZMPMkAOWJYeOiOa/zmxIkmT4s24HtlXs7F/RYEVnT1AAUkdNjRieNZDmXCSqrPOEqDDNnXLzyO63He1iFcun69jYACpPxgaPj5b8CyGYzpTAMHMAzd/3Pv1vWAabLvtsx5pa5N6421lUWFmkFKgGLiIiIpIwygCKydJUSqPPeOedKAG1tuX8NwswBgDM6zHMALx7cX9z/zS/VdEhIMoDhVDnU1x3FZbnmLwGvpJU/VhgkadFTS8BmkS/Wlbu6sr/6rq0dAMVS9J4o9pcCYLisssksZd/a4yjzJ9JK1AAUSZvV6AXsvfOVLqnWBk+FYea7AOvzdj/ASGlsbOSphw+vzMFksc7elLO33tiXAxgvlK4qR+7HATCmA5ij7TrdQBeR1qISsIiIiEjKKAMokjZLyfrVVgKj4ohxUQGgo3vjTwIc2ffgyN5//PjTKxKfLMvtH9vZd+ubNyXj0xFcBuC9vyqK/a8A5NssNrfQzF5t2VedQERaiTKAIiIiIimjDKCIzK4yu4Y1/nDW+ocBjg09PTZx/KUiwMl160cAjh/+t/GGxZgyV+7qCs/elLMAPo4rM1D4bu/9AMCWMzNb8b47ud+dV3nYBaaS7TNLvp5P1wGKtBI1AEXSZjGdQFzSAMwG8cMbsuV3Ajy9+65o8MlHVQdskF9999bsrTf2ZQH8xMl+AOfcrtjF7wYIs9lL8K4Ppt9qg1/S+NrTRaL6A22LyNqlErCIiIhIyigDKJI282T9nItH8L4AsLEr/z8Ajj+3f9/3vvOlCGAx2b/bP3ZxD4CHDqD/1PWFyPxCEhPWN3SKOg/OnZ4fxH55ydOd57XnTo4XQ4B8WyYPYPHdplICNtZ2r9ygirWxakgYkVaiBqCIzOR9wXs3BpDPZe8DGCmeOLqUsm917Dnv6aZOA/B4yb4tWe/B+8ZVJLw7fQ1AF7OsRpRzuXIpDgFMPlO509ev8K5oW00NQJFWohKwiIiISMooAyiSNnU6gXjnxpyLDgMc+Je/+MCxH37vLoBH59mVv/+a5EdkGGwmn70M4GQ5+M9lZ18HQCY5xZja49YkkLqzU3ua7Qh1Vs+XgfJ1F+e8c97y8yzr/Tzr6x4rWPyxFvX8V1JtJxD1+xFpJcoAioiIiKSMMoAiaVOT7XLOlQAC4wbbwvieZNkPL3RXkQ2uBzBB0BeYYCdAENgerH5btgZd7yfSqtQAFEmx2LlxgLYwfviMXPTrANnARwt9/GS27Q8BgiDoCcLsNoBcCC/vhaqGxNpU+75pKjiRVqKf6SIiIiIpowygtLT2bFgCcCawyltU+OlZHXq7838McPy5J/fPNc7flRd35z/ws9s2Ajhn/73HXAzQlmvbBmCMyZ76GGkFtZlc/QsSaSVqAEpLy4SBA4i9TS52kxnW5TIPAhybZ5y//r727K0/trkbIHL2Gu/tjQBhplJEaOggzrJ6NPafSKtSCVhEREQkZZQBlJYWB9lPADjHxTje1eh4moKLP2W8exTgzt986/1zbeq/f8P5AM6EP16Owz8HCAODtSs11Zg0t9qksDqBnMq0n/ECgMmWRhsdi8hiKQMoIiIikjLKAEpLM5jxZMkXGxtJg3mX/AdkbXw0MO7gbJteuasrPHtTzkKS+QPwJrjcvmxoF3TtX6rovT7VHXe9sB/gO08cG2x0LCKLpQagtLTA2GEAb/xYqktX3kE0CUA+5/a0Z/x9s236q+/emr31xr4sQMnk/hzAGkMY1k4LJulQ+57rfT/Vbb/2/a80OgaRpVIJWERERCRllAEUWbS1lwmxNng625a7C+DgI199avyFH84624c3wfXOhBcAhIF+I6ZbbdZcQ8IAOCVDpUWoASiSAtaYkUwYfhdgdPDgyPD+2cf885htGHs5MH9v3+p1gboWMAXUAATAp/4VkBahn/ciIiIiKaMMoLS0+0vE5xwAACAASURBVH735jsBel55lT3/rR9M7jRmOnPV8pLnObz/oUNP/9P//XezbXXrm3s7bv/Yrj4Awtz/RpD0/p2XMn8trrYTSIo7UdVwnsedN0ONjkNkuZQBFBEREUkZZQBFWlho/AiANX5s7i1NHmP7k0Wbm77eS9JNGV6RVqUGoKSEAZO+hHfO8hRA1jB3ycqYHmz4mmTZ9ky/VvM0ANQJpMXVvq+aCk6klaTvG1FEREQk5ZQBlFQIjBvN2+gxgElvt8XY7kbHdDpEQeZhgNgGP5xzO8fAyRI/A9DWxkC40J+Gyvy1uNpLAZT5A7CZtn3GhE80Og6R5VIDUFLBGooZ64cAyo7NcUraLc4GzwF4Y0fm3M6bznJsdgFkvK7/kyqN/XcqY8NhE2QPNjoOkeVSCVhEREQkZZQBlFSIscMTJvuNZNn3A30NDmn1eEc1Y3NRX9edAAcG8+P762zqfnDTLgDnzdbYBQCEwSIygOoE0uJqy77p7QTifWUKOMDinjHEjzU2IpHlUwZQREREJGWUAZRUyATGdbWHRYCxichNRq2bsapNxr1wYqwAcKw4Uaq/sc0CGExop2ZHWUQGUJm/FEnve+08LoopATzyxPHC4EvxeKNjElkuNQAlFfLZMBroyY8BHHixUJqMyo0OadX4qf/BY0ODwwATo8dm2TrbCWAM7WFwGoKTNaZ2PMhUNwBLxYgxgD/5u0NHv/TNEU0FJ2ueSsAiIiIiKaMMoKRCqThxdHTo+YcASuXcO/GVj75GPBGZQ22Hj/QOCRME9un29vAL1eVGxyOyEtQAlFRwUbk4efLEYQBngwJGH/0VoV7AKZLeBqAxdiQThg8DGGvmHFNTZK1QCVhEREQkZZQGkVR4/qnvR3f+yS9FANtvev83z3zlq0sAE5nun2psZGucMn8trrYTSPrG/4srg/+ZwIzYsC3JABpbaGhQIitEGUARERGRlFEGUNLH2lFjg2QYh9oMllGPEJGZ0p3hLcdJjmRwuOQe/eFQCeC5I8X0pUKlJakBKKljbeZgELYlf+hUvjzqBNLiat/X9E0FV4ySr8j7vz/qfu6j+1X6lZaiErCIiIhIyigDKKlz6OF/3je8/6FDAFtv/mDlXqMS8FIo89fiav9NpCPz57yfSnzm12U/BtDWFu5pZEwiq0ENQEmdscEfHh0b/OFRgK03NzoakWaWzrH/qs82mw0fAAhDO9jAcERWhUrAIiIiIimjDKCkWnvgBgFib3IlbE+j41lz1AmkxdWWfdPRCWSi5ChHyed5w+vu+kqDwxFZNcoAioiIiKSMMoCSauvzbfcCTEZ+oFSMr03uNcy8+F1mpcxfiqTjvQ6sOUDAaKPjEFltagBKqvX3dv8mwLHx4k3HJ8YqDUCrHsEiwMyp4NLRAGzLmHvImEcbHYfIalMJWERERCRllAGUVLvrU78zArB+8ysGz7ripv0A45Nucyn2nY2NTKQZ1Hb4aN0hYaLYMVlOnutf3HFkz/f2nbynwSGJrDo1ACXVDjx6XwFgSykaO+91bzsKMFEubyRuvS+5VaFewCnSug1A55nq+fvgnvGhL3/z2IEGhySy6lQCFhEREUkZZQBFgOf3fPu+O3/z310DcMHbPnjHxote93aAqLWHPFs+Zf5aXG0nkNb9x5DNhPuybfk7K8v7Gx2PyOmgDKCIiIhIyigDKHKKTBjsb8uE3waIJqOrGx2PSOO0doa37IIigMEcDZ3/AQCOsYYGJXKaqAEocor2XPZ/dXbkvwNwcnLsnxsdT1NTJ5AWV/u+tt5UcIU4NwKQ8W5/6KPbAe6498XWeYIic1AJWERERCRllAEUOcUz9//jgcHd9w8C7Lj1N/4IIIriCwuTpbdBMmSEVCjz1+JqZ8RpjcRYseSIXfJc8iZ6P8B3f3B88Jr3P94aT1BkgdQAFDnFsUNPjh479CQAr37Xb30LYNJAsZSs977Vr4wSqWq9sf9i56fG/FuXcV8FeGG42NCYRBpBJWARERGRlFEGUGQOX/7Qm/8FYPOuax+rZgOPjhz7T4WJ4msAMrl8TyPjazh1AmlxtVXRtdsJpBQZCqUk/nw+95/WZYN/BTCX3rP2nozIClEGUERERCRllAEUWYCJ0ReLz+/+5hBA+8aB72xY1zUCUHBmB4DHdfvYDQBg7HRmrNUp85cia+O9jmLvKn08yLS1HQZ4/khx5JuPjjwN0NYWPB2GdrxxEYo0BzUARRbg2KEnRx/5zO89BvCm93z4qW1br8kCPHm0+B8AXOQujuLSuwAIsmCChsUqsnJqp4JbGw3AYglXirwD6O7s/DbAw0+Nf/fnPrr/zxobmUhzUQlYREREJGWUARRZpD333Vk88Pi3SgAnJuOvAPSee9FDO9/4kw8AvDha6CkUy+sAcln74wDl2HVOTJb7F3+0ebIudVfXjFOjn3gLVylnF0txKYr9IjsHLCI75t0yS+dLeKz3yXFh5iUKLl69Y87GuTr7W9r+gzA7ChBYDmZC7gX4y3889MyDT4yNAmTaDh0GODxUHFlyvCItSg1AkUUaPrg/gv3VP58C6MxnD2/ozB8EOD5e7J/wrhMgY+0lAC52kY+jvgaEu7pasBdwFHtXjly0ageo2wBaZd7VNABJGoFTsZxmK/j8va1cy2c4lDF8E+B7+07u/vI3R4ZW5AAiLUz5AREREZGUSUlXRRGpx+19+/UAGN5gLL/98i3qZWpq7ltw5s/XXZznzun7fZ37VvBY3seP4KO/ALjt13bf98W7hw/OcxARkTVNGUARERGRlNE1gCIiGIc30dSyiEiLUwNQRJauVTqBeBzelip/qQEoIi1PJWARERGRlFEGUESWbq1n/kREUkoZQBEREZGUUQNQREREJGU0DqBIii17HMCpu1Z+bL4Z96/yOIClCAqVLiD5rP9sNuCJeQ6yMHFxbf/IPlH+GMAd33iR2z6yX51jRFrI2j45iYiIiMiiqROIiCxdi3QCscaTCarLDLx8i1me57xPfzWKLIt4zefdtN6sKNPLJoySJEHgQMPjiLQUNQBFJPVCC2F26s+rF7+HWVpats4pdjHl8rp3LbAsv5j1tVVz56f+DNpLvwBANormOYCIrDEqAYuIiIikjBqAIiIiIimjBqCILJ0x09PBiYjImqEGoIiIiEjKqBOIiCxdi/QCFhFJG2UARURERFJGDUARERGRlFEDUESWTp1ARETWJDUARURERFJGnUBEZOnUCUREZE1SBlBEREQkZdQAFBEREUkZlYBFZOmqHUBUCl4dJqjcAqbye92VwTumV4iILJ4ygCIiIiIpowygiCydMn8rw4Rgc8ly5kwI1lWWN1Q3mM4AxhPgomS5+Fxy64oQHztt4YrI2qcGoIhIo9kcZM9KlrvfCO3nJssdOysbmKSRCFA+ljT4AIY+l9yWhqBwPFmeKg+LiMxOJWARERGRlFEGUESkUdovSG5z50D3G5LlbB8EHZUNgpc/Jlg3XS7eeFNyWxqCk/3J8tgjUBpctZBFpDWoASgiS6dewMuTOSO5bTsb1l9SuTOYvt6vHpudXl5XaUBmOsFPJMuFf4PSikcqIi1GJWARERGRlFEGUESWTpm/xQvWg21Llrf+l8qdNZ08liLbBz19yXLxMFPjA57cv/R9ikhLUwZQREREJGWUARQROZ2CjppOHuaU2xWQ7YXc1mRZGUARmYUagCKydOoEsnjZvuQ/WF7ZdzbrXgVtW5Llka8lt37qfyIigErAIiIiIqmjDKCILJ0yf4uX6ZnO0K2GoHM6s2grt95NTx8nIoIagCIip5dth7BzFfffNl2ar44nqIa6iJxCJWARERGRlFEGUESWTp1AmpCffj+m3he9PyIykzKAIiIiIimjDKBIit3xtcPDAFs25Y6/etcGAMLAYu0Cx6VT5m/x4hNQfmkV938S4vFk2bvK7cLfJ+/dqHe+CHDHN45FAN/ZPe5WOEoRaTA1AEVS7B0ffGgvwFvfdNaFf/MHlwGQb8+StUFD42ppky+AK63e/stHoHQkWZ7q+buIBmAcHXRxPARw24cOrGKgItJIKgGLiIiIpIwygCJCYBlta7OPVJa3AT0NDql1RcPgxpJlX83QGTArlHU9uQ9O7l3yw22mbbfN8P2VCUZEmpUagCKCMaYQhnYQwFizeREPTG51LeDCuZOQXGLHqvTOLR+F4o+W/HAbBEMYe2AFIxKRJqQSsIiIiEjKKAMoIlgf7c6UT34QgDD35wSZJAto5vmNqMzf4sVloJws//ADyW1+O/TeliyH65PZPBbCV/ZTeBpe+tdkefyx6U4gC1SOomKhMDkG8J7fefqBL31z5CuL2oGIrDnKAIqIiIikjDKAIsJzRyajO+4+Mg5w5WWbhvrPCg4BGGMHGhtZi4tPJLelIRiv9LvIDUDYlSwHlVvM9PWWbhJ8nCxPPJ3cTj4HpRcq6ycWfHhfzeAaOxpmMruTRTO6lKciImuLGoAiwkO7jxdv+9CeIYDP/0n2+7duas8CGMtPz/lAdQJZntJQclsegeIzyXL3tZDbmiyv21XZ0ICtnK5LR8EVkuWhv01uozEoDS768K4yvLO1wcH8utynAYIwVAcQkRRQCVhEREQkZRY435OIpMWVuzac39+X6wH4wp++5uMAxpiNxgYXJlvUZPsWnPnzdRfnuXP6fl/nvpU81rzPY5b1fp71Cz6WBVPJ8GXPBJtPlsPu6U2qHXLi4vT4gcWDlX2W65d+54nPYz8G8J3dx3/4iX849K8AD+0eHTl8ZLIwyxMSkRahErCIzPDQ7mNPs7vyh3eHADxWvxZXlQNfmXVt8nDN/XVedV9vWt6lleCNtQ8APD88OfjFu48cnm97EWkdKgGLiIiIpIwygCIyK3ts9N0AcZi9biLf8RGAbGi3B4HZCKgTyKqrVwJfnsIkI+XYFAG61r10T3LveDTXY0Sk9SgDKCIiIpIyygCKyKzu+MaLALggHI6yx+8DeP1lZ9iBzfltABYWPm+wnHZ+OjM7guUAwMM/GDvwo8HiKEA+V4gAvrN7vN6FhSLSwnRdt4gsymc/fsWH3v5jW14PkDHm5qkVZq7TiXoBL+tY8z7/+vuMo8qA0dY8YsPgLwBu+7Xd933x7uGD8wQhIi1OJWARERGRlFEJWEQWxRaLXwnGxx8EoD27P7nTXkiQvXmux8npUSxGxHGSEczns78I8J3dx4c+8Q8/2g3w0O7jww0MT0SahBqAIrIoNoqesqXSUwDkgh6gWoFUA7AJxLGnXE4u6TM2+CrA88Ol4hfvHh5paGAi0lRUAhYRERFJGXUCEZEV4e+/JvlBmc/dTDZzAcDohPm/ADKhYV17peCgTiCLP9Ysz//YeFwAyITmsXV5+2lQJw8RWRhlAEVERERSRtcAisiKqI4ZSFv2MGHgAN7yhr6vAgTGZH0cdwLEjgscpgcgDKZ/g1rVI16mVIqri84YWwIIAg5YwyjAl74xfAAgDMzBtqw5CHD4yGShAaGKyBqjU66IrBr/+I9tBvCejcCFAIXIfqDs7JUA+fYMANZ4wrr1iHSXgEePTSQLxhZNmBkByOfs/5sJzaMA5pK7vjLPzkRE6lIJWERERCRlVAIWkVVz268/PgLgoQCMAMTOHK2WgO/8+KXJMDLGd+DYBFCMzY/H3pyf7MHkAQILuUzr/V4dL7oigIHIQAkgG/LFMGAPQD5fGgV4aM/J0if+4cUCQBCYqRKwiMhSqQEoIqvmjruPFCuLRZhqtByurrfsSuYS9r4H2AYQx/aSsjMDlS3yAAQGMqcj4tOrHPmoshjZ5DUiE/A9MPcBZLPxIMCRkYnoS98YLjUmShFpRa33k1pERERE5qROICLStKY6kRiTJQw7ASgVu3FRDqAQt/3+qY+JIgacpxNgQ2cmV2evde5aXieQcjkeLxZLQwAmDAvGBjOydUFgHmnLhZ889eH2VV/dPc+BRURWhTKAIiIiIimjawBFpGndcddQEcAbExHYZILbqBzh4hBg0mXuOfUxzrHRefIAP/eWvuzL9zpbNm++LODsnn9honj/90dGAUwQFDE2ql1vA/NMJmPVcUNEmoZKwCLSsqamp1tld3zjRW77yH53Oo4lIrISVAIWEREREREREREREREREREREREREREREREREREREREREREREREREREREREREVklmglERFpe56aBbP/FV+cBjPMbjfd5AO+in61skvewEeDw3oc+Pvbi4YcaFKqIyGmhuYBFpOW1dXTZ3vN25QBM7HqM990APi7dCODxncAAwIvP7vsCLzYsVBGR00JTwYmIiIikjDKAItKy3vi+j20EwEU3Uyp+GsDaAGOT374maEtWO4eLo+RBujBGRFJAGUARERGRlFEGUERalsdbAGPAmEpqzyjFJyKiBqCItC7jK1UOY20wfbozagSKSMqpBCwiIiKSMmoAioiIiKSMGoAiIiIiKaMGoIiIiEjKqBOIiKSeMQYbZADY9caf6eE6sxng63/94cGGBiYiskqUARQRERFJGTUARURERFJGDUARERGRlFEDUERERCRl1AlERFbNFbe8NwSIoyicLBZzAIef+HZh7MihUmMjExFJNzUARWTVbLnocgtQLpXCwvjJHMCLz+wpcqSxcYmIpJ1KwCIiIiIpowygiCzZ5l/+SwuwPp7Mb47GewAM5maDeSXA8aEXbqhs2mlgMwAuvhX4YgPCFRGRCmUARURERFJGGUARWbLO0kQI0E682XiuBzBwKSbJ9hljO5MtfQ7vGxWmiIicQg1AEVmygcJoDsBbe6XPZj6Z3GswGABsmJxinHO4OGpMkCIi8jIqAYuIiIikjBqAIrIivEdVXhGRNUINQBEREZGUUQNQREREJGXUCUREBICkfm19uWicG29wMCIiq0oZQBEREZGUUQZQRASP9w6A0eHD0eT4qMasEZGWpgagiKSe9+Bd0gA8uO87pRef3VdocEgiIqtKJWARERGRlFEDUERERCRl1AAUERERSRk1AEVERERSRg1AERERkZRRA1BEREQkZTQMjKyYzRddbgHiUjn0sbMA3vo6PzKsA+MAXjywu3Q6Y1wJXWduCXP5TgCO/OhJjRcnMoverTtyABgsZvaEgweHSc4JY0OHSpMnj7vTFGLT2XDurmzGz37+NN6AxwEMH9xbPN3xSetQA1BWxOaLLrevvuW9IUBx5ERnVCxlAVxbXOczFpYgiAC+8d8/dPR0xrkSztl+ZbZv6/YQ4K6//d2xRscj0qx2vvGnewC8JSQkO9t2HiJvbRHgB3f9w+iLz+xJXcNm8y//pQXYUjjZ0RmVc1D//GnK1hmXNJa//tcfHjy9UUorUQlYREREJGWUAZQF6ew9u2Ng19Wbk7/8NqAbwEXR6wHaOzeEhZGRECAuR93e+ByAceZlPzJcXHK+Mu/W9uvefgjAGPOiscFeAG/sbowdBvjB3Z9paIZtxw3vvCBZ8n3gLwHoOGNLd2Rte2WT32xQaABcUcm6unK5pzQxkcTq/fl4ksyLMf9a2dSZSomtLdt2NAiCcYCH/+nTc5bgq/uPy+WOUmFi86nr4zCTB8DQN9d+jAFjk4/CwM6r+3u37do+cwN6jKESPyUgqiw/AnD8yHPjz+19YGiuYzRSZ+9AfmDn1RsBPD4HfrHnVmcqz/nQngeGxoafG1/xIFfBjjf91PmVxX7wrwHwzm3y3ucBnIn6AQzGGuzsCQfvnS+XHUD/9tcMnznwynEAa8MvJOsZw5lBgEM/+Pb42IvPrYlLR17zE/9HFiCKo47Jyck+AGPoBToAXBT9GECwvttmC6MhQJuLe1zl/Gl97fnTAOBN7FyyyPbr3n6wstIZU/k3Y4KvY8xBgCAqHwQ4/uLh6Ef7vrsmXjM5fdQAlAXJdXTlNp23c2Pylz8fOAsgLk2+pbKJLRcnkhKPMT3GmKQBWO8j5uLkP6D33O0HkofYgzbIOABng8MYOwrwg7tX6xktTPU5e++3grsKwDnX4zz5hgZWsaVy3WU0OdlRHDsxAOCduxTYDOCNfaSyqbM2aQDmc/nxTCZThPkbgNX9l4uTuYmxExtPXe8hV1nqsmauPRlM5busc9NAZydm4ymr+63l0spOC1QaQ95xoLrJc3vn2n9j5dZ1hZu27ewEcLgOmL3cOQtnoAQwfGDvyBjPrXSIq6J3286eZMkPgH89gIvjbXjfDYBx/cmtmesSwGQe5so5oevMLYOcuWUcIAiyDwDgOIqzIwDDB/cUxl5cG69P/ysvCwFK5VL+ZKGwEcAYthqT/ECrPX8STSYnS0MPxuSTxdrzZ6UBiAfjgenzJxAZY5J/yzZ8DmPHATKl4uHpx6sBKDOpBCwiIiKSMsoACjCzE8fE2Nj10WRpK4DBf7K6jcFPbW9M8mvUtuUWfaxTHrOt5vZ6AFz0u9VDXf/e338/wPCBPQf23vP5uxZ9sAXqPXfH1p03/FRyfMP7jeGKZE0SiDFgTJDc4+JB711TlOjGXhpOykqeG62xnwQwgZ16f4C3A3jvqVTdKRQKHwRTfS3nzKuND76UZOqsvykI+avq/TX7r94zZ5zGmOnPDHx07o2nF8vlif8I4OLyl4Cfm/Nxq6x6kf7myfHLOuNSH4B30T9B5fnZJIMVYOq8PnPzfvrf1vbrbuGia98KQNjW8SaAIwf2DO+957MNy4H2btvRsePNP90H4KLol/HuSgBrq/9OpjO8QRAsev9BEBIEU19HtZcafAHA2+nP784bf+qrYJ4C+Pqn/ssHF/9sVl7vuTs7d97w0wPJX+588D0AYyeOfbq6TRi8PN+ylPNnEGZq/9x26nrv/Seqy+UweS/OOH/XvddfcNlvAuy953NPDz+7d2TRB5aWowygiIiISMooA5hyvefu6ANYf8bmjaWJwg4AH8c7DfQuZj+1GQzvnauOU1XDVlMEtdmgeowxtfu7HKBtXVe+d9uOpwFsGA7bICgADD756EqNFxYydT1bK/4wms6ggMHMk7GTRO+2HQMAmb6tPevKxQsAMj7eagxnAFDJei0y4Tcnay1+an/+DQC5dZ3P9p67Yxzg+PCh4cmTY4WVO+Lserft6gbo7O0f8C6+FsAYzsfYnsXsZ+b5wVPNrFu7+GwhmKkMYe+2Hbsqi+Meexhg7MiPotUcR7Bz00C2raMrOZc5vwugs7d/o/fxhQDGcBYm6eRRE/Oc+6zN0FfOnQ7AWDv1Hb3YrHLymKlTWa/37vok1rND4CDA8LN7NYxMiqkBmHI7bnjnLgDn4mtOjrz0YYAwk7XT5ZjFnHSSk3ocRSXv3MwBko0JrbVJz7YgnLcBWF3vnP95gK5NA491bRooAOQ619+baWs7CPDl3//FlbqwOQumJzk+2aWcbJuZ9+Bd8gVjjF3c25piO29459UA3sWvdcXR/xOSEtxUw2WOjq2LUft5CzLT/Ue8d78N0LWp/5GdN/yUBdhzz+fvHX5278EVOfA8dr75XVsBvItucHHxj+GU578I1Uagi6Opxo7NLmw/p/xovKzyHztveOdTAB7zpLfhlwD23vWZsdUcYL7/4qvzveftSs5lUfxLAN67rd5HSQPZhthFfi68d8RROVl2fqoXfJhtm2pILvScNOOzFCbncefcDh9Hfwhw9s6rPmbM678FcO//+K9qAKZYC2Y6RERERGQuygCmyIa3/LwF6IkmfrzdRecDGON/EiAIzEZrsxaY8evVuWpZwkfOxQUAGwQPY+wggC2Xvw4wNnw4OrjvoRKAd86BP6UEY6amghq4+A35rr5zQgDj3c9UDtCLZ0cS0/Sv2OqPWZNc7PwLAFFhIhcXJ6sXxN+z/FcGgLHqheVAU3TwaAbWlYoA3pinPeHfVe+fKuk5n4zdZ+ix1l4w235qy34esxfMcGXN4dkeA2CDcBTA2uD7S34SC2CMwVay3ufsuvqDfeftekdl1QCAsbYnsMnF94bpSxTicjmZscKawzYIHwTAT2dwgOqMFiEkQyN57y703m8ECILgwtoY6kRWWcc27/37AQZ2vi7Xu23H4wB7v/75B5f51F/m7J3X9HZtOicZxy+e/ONKFL3Vzgfm5UN74p2bPldYe6/BHADYe8/nvgbUdB+rDPniq5tODw109s7X9yf7it8MbhtAEISVcm/9y0aM4aZKAFe4aPJVyXL8t8DjS3v29XVuOjt79q7XdQJ0bjzrfZQnXwtggzC5bMbbjpr3avrzEZcr99mDxgb3V3b3DJgRgL13f3YIkqFdvKu+Sr6mBJx8KDt6t9mzdtyQBciYicsDE21O9utvq7wS81ZVqp9vF0c3OBfvqKz66pJfFFnz1ABMkfZXXAbAhtKJCzrj0msBjOHaZK2Zs6zjvYu8i5PGgLUHjeFJABPHXwIonjgWDR/Yu6DrknrPv6yzE5tNjpqMrTfjG6JGzUmtm0rZJ47KD+NZ2QGijSlhTGVaOq/xsioMcWVAZjvi4YlT11cH/F3kNYXDMDW+35NzHt8Go5WFQ4s5wGLVlhi7+waurLPFVMOn9no255LXx2BHCCqvTzKOYfUzNJ7cRbZ6XZjzPo+f5QNfJ67KMXswySUKXZsGvt0FRwH2fn0xz3Jhujadk9903q7KQO+FG5JALDWXo72Mh5pr2MwBjHkU4MiBvV9cyDGdZ2P/jtdvJ9nPK/EuuQZ56pTkqXfdgjHmguQxfiMuTsbm9P6fF3LMxWhb1xn2nrcjD+Cj6Cpc/BYAM9UoZiq+Gdc7VhvFhjFjgycqz+QRYBDgyIG9Ty/k+JFvCze+qi0LEDBZCqD6w6vSAKz/+lTNuKwm5nx8ZXxGSTWVgEVERERSRhnAlOjdtmPXRRPHfhaSsomxwazluqhUKlYzG0Em9yaA4WefHNn79c8v6NfqfH5w92fGamb4+IVqfDtveOfPVu67ieov3DqMMe/D8D6AN/3iH+wHOPLMnqN77/ncU7M9Rpbmrr/93Wqm7lS/jAAAH1BJREFU9XHqlNVu/Nnf6gTw1r7N/f/t3X9sHOd95/H395nhiqQpkmJkSpZlWqJ9ritTTOK6jVu7rX/IQRoYLc6XNlESJOid06J3lyt6V/SuzQV3RdPDAYeiLYo2udg+tFcXcdKkaK+tkboy67iO4zqxEUuU7KoSRVM0Ky0VilxRFLk7+zz3x8xStCgul7RIrrSfF0Bwdjmz8+xwZveZ7/M838ea7oalR3mHMB8h+Q6ESif0umuCulwTp/cXO+mbud8xc98C+MYf/sZXVrGLL1QWHvz53/yP6VJ4NyF8IivBouOXHtN0OSmVPhq8/8nsT6vZf1W+PPu/yqXpDwE05arnqUtKlUCnDZhrWnWeufETg2f+7rHPVJpIK78XHB/ebfCJpbZ3znW5XK4LoP/9H/sUgbsBnn3sM59bSTku9cgv/34rQLE498j584U/BoiiJlxcZVYT+L9k0fJcOTwOcGr4UHLwG19b9cjtiROvJC8/8fOVbgXz//P7P/WbzwOEUL4PX/x1WH6QTtyUawfaAR741OceBsgPDY4NPvvUq6stn1ydFAEUERERaTCKADaKEJpD8Nlk5K76bb2zScMVAPJDhyYApk6v7eT0s9NThdNDh14D6Nx2U3/zdR2dAOZc1XyEwZfvyhaOAYoA1rX5vlFJuDhIou4s7MNFCHmAQJgIzh0DKJwePTR3vlB18EqtTh8/dBTSubY7tt30BoClM2G0L7WNmcvh0v6EXbt/IJ1r9vxZP50fWnXuu03XtXd2bOvpAWjZ3NluVdKYvO34mPs6wNz5wquF/OgEwOz5qSvWh3b++FzX/q6O7ptm0126nF0uTHvRzsq51r2rrzkrky+Mn1xxuWaKlX5zF6Oyy/V2nTo9cmp2euoogCuVEoCp8dE1Od/zQ4fOAGy6bvNIx/U3HkyftR7SPtPLM7Znv9clr6TUF1UAG0QgdHlfvhPAzDqrjRhzLhoKLu10f6WafZdTyJ8cHjzw1DBA3wM/09Pdmw7oi5zbd+m6C8vuy6V/B+B9+evA0+tRVlmdyr8tBObAroovHO/LBwGCuZeJc78HMHL4W5Pjxw/NVt+yNoMHnvorgO7evuG9D+2/Lnv6EapUAKM4nv9yv/WBn8tB2kR4bOCLq654dWzr6al0wTBjV7XPh4UVQIviTwMUxt+aHnz2qVOr3f9SKsfn+l17uOP+D00ARHFTl0XRkjexZuFHKrW0vfd/9JcATp84NDv43JdWPP3ZxPm0KTW2iNaotq/Lkwe/+e3TQ4Pr0rXh8LNPHQHo7u1Ltjy0P81jCp+kxgqgOXt3urAocb80ADUBi4iIiDQYRQCl/rj4eVxuBCCEchYBvPzAAufSPGGdN+zq6du3/zaAkYMvjBXya9tkLSsUAt6XARg59K3RqfzokQ0u0dukU3HNP/rzENLuBM0dnX8DMPHW0Jnj3x6YBCicGrniaYICdsoT/TWAo3x38P52YNkZJZqt8DBAExdGgRXnBOz/8X/VCpC7rr3HJ8UPALg43m5WZYaOwNEQQprHbiDNYzc7PbW2TfrOHaQp95/T3fNp7/0PpU9f7vhc/JwILnw03T68wTWc8868z7ticQAgxPFP+OyzcqUzkkhjUQVQ6pAbMYuy0afl7Lkl8oA51wbQ0tbZ3rK5ayuk/RZVAawvaZ64tIY1lR8pjJ84cmZjS7S0rPL39wBNzc0vACTFC378+KE1rORYAXPptGbeT9tSiTEv0WTF2wAiK62qbNt37YkBPKEz8eVbAQjLtnVOAKMA+aHB9bnOzPJEcZr03Zc/XC2P4ttuFF3Ymz55jfdxC2HavB+C9PwhWs0cy9JodHsgIiIi0mAUAZS6M3jgyeHBbIK3+/7Nr78AYGZb49jdfum6lSYOXy7fXS7NfRkgeP8LrLi5x/cGkk8BGG7X8mP95FoSQiBLfcngwFe+PX7iyLo2F44PHSz+3Rd+5QzAnvs/VOzevQcAt0wePhwtABi51ew3yTVXrqmdsVv6Nbz388cHF/+JRdHXV7O/1Ro/fmj2uc//l1MAffs+8ifbbtmbjXjl16ptF0X2CYAbeu9o37Hzs08CvPbcV2dOv/l63Y5CX43Tb76eVHJ27nngp4e7d9/xBoBzuUWfmSIVigCKiIiINBhFAKXeFQHMbLk79hjSeWm33NgbN7W0OICx11+pLb1BAEJ2PZhujGTjmFnezFXmSu5dy32F4Puzfe6uHvUOPoR0juzC6ZGZ4sy5jexjOx1C+B68fQrxaqlrgObg3I5sxTG4wnOJ1xHDvmfmKnkqFQGUJakCKHXNOTcNYGZL5kUD0iYwowvg1vfta25qaYkB/uI3f77WEZsO5pvAVAGUDWMufs3Fucq5uNYVwGz6RdtqVuXrIFAkG/l78uAL+fHhI1c851/NAmPzNb8ae2oE57pCU+7ObHmGa7kC6KKjLoo3ZQ8X5VEVqdAXnYiIiEiDUQRQ6pu5PwIIcE8I4a75py9p7jFzRHETAMW5Uq6UpM3BZE3IIlcNCx5Cdt6u8WAk79OpFrN0SksWyWzYRfH/y5ZH1rZQ1Y0c+uZQfmjwFED/+z+y4C9Vj1U7cEe2fLDaiiKNQhVAqW9m2Yd12FF9NaOSvLZcLsehHHRuy9XKr+PUXJUbperDjc0K5qLXsuXJNS5TVYX8yckCJ1dYBsthVOYVX2ZotUhjUBOwiIiISINRlEQkFRN8Gg0JFlN9RKHI2gkk+Kzrwhrfose5pp01rloMIaQDJwJ1k0MvKRWPQjojUBznlmwl8D7pTUrFXely+W+A76xPCUXqlyKAIiIiIg1GEUC59nh/B/hKmoev1rJJIMQhhLZ0mVjxP9lARWB2owux0Oz01OzkqZExgNnzU3U0r67NABi2qplQRBqZKoBy7fGlD+H9+7NHNVUACTSH+RGRQV8mspGmMb630YVYqJA/OTn47FOvbnQ5LuWcOwNgZmrNElkhXTQiIiIiDUYRQKlvSWUqOBKi2tL/hxCaQwjrlUZDROqcmeGccwA9/fd2br/1PdsBBg98aeNmNBHZYKoASl0zn404dCvKixZzcVo3EWl4RqWVuGPbzc1WSXx94EsbWSiRDaUmYBEREZEGowigyAo5c2eCs/xGl0NkNfoe/MgD23r7dqWPru7x7hbHb2SLCdC/5HpmuCj9uguBNnzoWofiidQ1RQBFREREGowigFLXggvpTYqFOopVmIdQ3OhSiKyGBX/GfDn97HdR5dmNK9C6CFwcF+YSQNevNDxVAKWuhSbvACzg6idgbbPg6igZrkjtrFw+5pJkGMDHlQpg4FquBIYAwWcVQOdmzdn0xpZIZOPVyzeqiIiIiKwTRQClvgVXOUfr5lwNwXcG75VncEUWNMGF6ms2PKMd2LZWL//mkZeKp4ePFAH2fuBjNW3TdMNutnzwUQdw9unHr75zPwS8L3uA0cFvTZ4bf0v5/6Th1c2XqsjlGJUpnuqp1hBa1QdQ1lAzRutavfjU+FvJFG8BsLfGbaK2LbRs2QnA2TUq11oKBEJIP0OmTo/Mnhl+XU3A0vDUBCwiIiLSYBQBFFmhQIgDoXmjy3FVCRQJoZA9UPT0KrO5XNz6faXivQCl3X1Hxk8MntnoMgGEJLkdwMy6ifR1JrISigCKiIiINBjdMkmdCzsADGrO3G/mhoKx0k7eCZalhrDa9yW1C0E3nPWmMpbJzLDqWWBimO+XeNV9b5hZwVw0BmBc8ylg3MU+09duah955666C1kai8Fd2eIttsw31Pw2zg04c3+/ov2YzTrn8uk+bfvKSik1cEBuwbLUAV9OADDncPNJoRczyLnsxshs/v941TBzp+I49zSAOTe20eVZWwF0jUkNdJKIiIiINBhFAKWu+XL5fQBmtpNo6QjFQsGit4LZ0RXuqghuIl00DVK40gxnzmUDZ0yfO3XDvZH9bgd2VFuRENLIXx015Xtf7gFwzrUvs+o0cDxbvqZn8Qnl8nt9qfgAgMtt2ujiSB3TB7HUtRBC5Uup9n55ZtMXK3M1b+QxN5sukqxsW1meObMsp6O6JdUPs4WjeatVAKEeW4xC6Ex/sdyo/ASYzJav6Ru8EHx38P7WjS6H1L/6u6BFREREZE0pAih1546HPt7efUt/DiAUp+8FmJ8QZAne+/kO7VHZJy6sMNec2bCZ+6P0QdgF7FpyVdwORbHkWhDFTc9li3uA25daL/jyneVS8fMAIZT3A8NrXrgaxLlN3bWsl4RNozPlzX+eLV/TEUDM2nDWudHFkPqnCKCIiIhIg1EEUOpQaCb4VoD5bmPLRAAh+BBCAjCZP5kUzxfeUT++yryhl0s9kz6Xlqe7t68NYHZ6KinkT86+k32KrLeA/VO6EDp9KAPptbbovDfDnHMAHdt62s2iLoD8icEV9rV959q7b9re3NZxyVzJlw/JhxCGAeamz+YnTh1NAIrnz/q1LeHGSnM6KrYjy1MFUOqOBd/p8FsBLK7xFA0keD8D8OaRl2bGh19f9Ui/EELVpLhuwWjkvoc+uh0gf/zQ9OCBL600+bTIhgoWPQ0QQhKTlACI4ibM3j7i3sw5F+ccQE//j24HuxVg4LHPvLy+JYae/nv6u3v39qblqt4Xw3ueBzh3+vihYwNPXdtNvxlzEU7T4kkNdJsgIiIi0mB0myB1J/jyfT5JfhAgimvL/YfZMYviP0uX3bEV75Mw6618CsACs5WZlJaLMISk9J8Amrb1vLLlg4/+H4CzTz9+TTcxybVj8JknCwAd3TuHe/b+8ACAmesDFg2uqFwL3pd/Kvjw3uzpD69TUdnywUcdQNzZ9aAvl/YBRK76pCQuKT4BYOXymaorijQgVQCl7oQQdofg3wNgNeYMNrMJc9E/ABi2in5JIcFCOkdoIKk5WV3wPwIQXdcx07L1ZgDOrnznIhtifOhgEcDwBXP3DmVP7+KSCuDbboRCuI3gd65TEee1/Is7AYguTPaSzN5ZyzbO++8CWPDK7SlyCTUBi4iIiDQYRQBlEV9Obg3ebwd45Jd/vxVg9B9fTV7+yyfWrBN1d29fz959++/NHj5gxl21bFeanSkCnGtqHv3n1q6nAfInBlfcBDs+dHjm777w2RGAPfd/aKZ79x4AXK76BANRU1M/QEfwE5tnzt4LUNrdd2T8xOC6NDm5svtEtrh3I2/nQgjzeRhdFC9qOjczorgJgP59H72H7Obz2cf+61fWt6RyWZ5Bivw3gBD57cHRC5AN/H0bF8VdROnMPA986nMPA+SHBscGn33q1bUqXndvX//3Xzj7SQAz+q3KdenLycEQQh5g4I9+o7BWZRK52ikCKCIiItJgFAGURcxcDkcbQKlUfAQgbr5usru3bxjAvB8jhALA6Tdff0d9a7p393UBtHff1BOCf1+6f+uq1gevkqMPwFw8AODPnzt04a3hd1KUi69pdtTMvZQ9vLvGzboh3AfQsa1nthIAyw+9s0jgjbe9NwbwwbeVk/IOgIDfSaA9LSx7s1XXvU8WwKnhIwlArq1jevP2m0ezp7uA1qW2CYTtBDRX6RKC91t9ubwLWLd0HrPnp/zpE4dmATpuuGmkeXP7EYAQwp7KOpWorhksuAR/FGDTde3/1L27Lw8wlR+ZmDtfWHUapq4bdruWzZ0OoJSUbgfo2NazB7gtW6Xt0m1CCD54XwSYcfGREu7wavcv0ihUAZRFojien0Zo5sL5PwZo2dL9xt6H9v8ZgCsW/8K8fwNgsPOGaYAL//RqzaNft3zwUVfp0H37zNlbAULw9wZf/g8AdpkmxLe7+O3jmlp/FaA0cmzy7IEnr8joW7Por52LX8sefrn6upUgetjjCL8OcHP/PR67dwDg9ebOCVjZ8VnofT/5aA6gVCrumpmZeRjA+9KHQ/B9AM5t7Jx0B7/xtRmA7t13jPXdsPslAMPu5pIK4ML/ZwjhPSGEnQA7fvEP/ies/vhci0K5vNeXSvcBsE4VwML4yeLgc1+aAOjbt/8bze17s4FUFyuAFWmi4XTZ+/ArAJ3bel7q3NZTADh04KkX8ycGV10BvPWuB+Kd33dnDDB1bnJ/9vTtzuzhpbYJ3hfLSbEA8L2Wzi9NN7X81Wr3L9Io1AQsIiIi0mAUAZSqFkRudgCPAIQ4vjt4XwDYMVt4BcB3bS3euG//JMBEvGnggouHFr5OSznZ2pXM9gHktmy9zc0W0pk+LNyf7ae7cjoum3svMBRCmAAYfPbJYYDZ6ckrNkBlIm4+Wsq1jQLsmJvMyuSIlonGVModCB+G9H3dMFt4EcBv2Xr+xn37JwBcOXke70cAZqJ3JQCO0o6cXbgze4PdZBG06enJe7L33G6O7QDO4p6FUdD6YGNgfwEQoIcswne5/6VzbgewFWDHbOHXAHzn1mM33rf/GYCRwy9MF8ZPNsSsDZdjLhpxUTyYPay1C8IVM3LwhRfzQ4eOAPQ9uP/HAMzYasZlo4HpQrgtBH4JoOfd9+ztvrXvBMBbTW1/WMs+F34+bNr8rvunC5O7sv1WBoMtavYFSJLKaeIOEjf/LsD57z733bEX/1LRZJFlqAIoVS34Am/PfvBmt5NNh9Zenks/mFtaZ+yWvXmAUlPrq0RvT9C6OSm2bStO7wIIwf8g5bkeAIuiBy7uq+aA9AQwBpAfOji58ndV3YUoniDOTQCEC9n3yDJFuyRPWl9lcXMylwOwltaCu2XvGIArFo+YL48BTMZp172Yuc4Wd25Purm/GegEKBbnHgEw54jj3OJ91Y9pzI7OL1fhnGuvLLcncz8OQEtri+3e+zxAfvjQTGH85FqVs+6Z2ZQ5l9+o/RfyJ0cL+ZNpf84HGa627vxNT6DLLNwN0LHtpskO6+kEmNi05Q9r2efCzweflH6sWJztB2hqbumstl3wlevTnbKo6RmA4qk3NfJXpAZqAhYRERFpMIoAyiJJsTgTfDlrWwmtAOYiF+c2xXBJbjDn9l26/U2l6UcpLX5diyrb1X7f4bM7/EAYAV4EeCvX9rvnok1rNgn92acf95XZPL7/Z//HjQCh7B9OQvF/Qzoy83L50SoWRjKbmty9l/495OJHQ3bptTN+me0uTn8XUX0qvEoeRHPORU257Hq2dY8S5k8MTgw89pmXAfoe/Mgvdffu3Q5g5v+mss7ljlkUN+0DCCHsC8H/GsAd+356bE/4UAHAmY0C5IcOf2Nw4CufW/M3Ug+cnbHIjWx0MQAGHvvMJwG6e++4u2/fR34RwOBHzCyN4GfnbHq+ZaOE4QOV7ffMTvx7SCN1lWt5oShe8BWUDWiKcrmq52+SFOcjf7ly6AA4dfy1pDIgSURqowigiIiISINRBFAWMWeTAZf1o7EjADjXFkJI89B5v4OsP6C77MgIY/EghdojUt77IiFk4QL7LsDc+cLIVH7kWwDn4uaJC66p5td7Jyq50Ta1tY+2b995AIAQbvW+3AXgXNReZfMlVD8+C/McBu/T/nRmM2bzcxxPALMAibWcAXCEHeb9XWmZXA5q71B5pU2dPjnfB2tbb1+WTzF0+nK5F8Cci61Kh08za64cj5Ad5xDC5jUssiyjZG6iEOX+AaDVl2kKfhgg+HI6SMMsNrP5jr+LInhmK+njO8/7cuUFps3ZqXTRjeJsGuDU8YMJwNT4qOb6rQh+Yd/IjS2L1DVVAGURc9Gwc2kTVHCbPg1A8L3Bl98PUE6SnwrB3w6Qi1oWjc5b2By0Gr6cTAfvZwGiOPfbAFOnT44OPvvlF1f9oqtUyY3W3dv/4t4bPz4G4JPZTxPKPwTgclFfte0vZ7njs7ACWE5KeQBzbsTFTS8CBM+3yQbBFN3WQYAoXPiASyZ+D8Dipi6LqD6H3Ro6OfjN4ZPZGNZtvZ/7bYDg/Q94n/xrgCjOtVv09lFCaW65yjFxXZXnS7OlVoAQfPc6FF2WcPb4oaNjuc3HAHbMTfe3+1I3gE9KTwCYc61RHHddut3FJmJW1d5UTtK+JObcKeeavg5A1PQ1zN6Ai3ko5SLvPd6n9eFIX/FShW4PRERERBqMbg+kqsFnnsya88IxC2EaIAT/EoQ2AJfNVdW+raenp//eNGedT3oJYVE0oCJAUomAORcNAFxwcX4i3vQawLnXXiwW/3koATBz3wWYPT81uyZvsEZTp9+cOfS3ac7BEMqfJ4QvA7zr4Z/rBGjxSWdXMnczAMHfCVlzeQiL0lhc8v6PAFxw8chEvOkb2d/nTTzzxawJmBkzdyZ7gYtNwGwqAnRcf0Px5jvurByjqs1hwXwxONYlcnLowFNZ1Da8EYL/JsDmH3gol7uh1wHcWDz/UPb3dgI9ACH4zvnBR1E8CmAuGlvN/g8/8yeTALntuwc2v/eBDy+1XgDIeh3MuqaXllpvPYwc/OZA/vjgqwBdH3z076utO/H040cAZqen1jz1ydjv/lsPcKG3f7gp+FMAIfhfAMDMVZqAe/b+8E93dN90e/r3+fO/NRC2LnrRQKXcRTObATAXjeKsAHB44KtPpK/PtJlL94mNYaxLqpdjA18sAmy64ebnO+78sSXPn4VmXLyh58/o4Eu/NX7iSOXzqWqQZ+Lpx48CzJ6fuuLptKT+qQIoVY0PHaxkWp3IfgCOXLpegD5gC0DwoZXgl/zgySpAHiC46BWAotlQIcodABj71l/VXRLXufNTxfzFY/GdyvNNUc4BhED3ljDXT/qgE0IMC/KULbDw/eOiowAls9cKUe6rl647PnykpmMRhT0JfXemFb/lWt+NBAvr0mcqf2KwMj/wKHAQINlzj2vJWoB3cD69UQh0E0J6LL33ENLRzVF8BtLceKvZ//jxtA8nxw8N7bjrA8O1bHPu+Gsbev4VTp8cLpDmQYyj3MFq6+aHBte9rGffnntz0ZRr3bv23N5+/c607+bFUfyXf7EQKtfULObS13VuxLAzAOPDRxZdE+tp4sQr6XVy4pUR+8F9o8usDsC5Y9/d2PNnfPSlSnKByufTUjbi/JH6oSZgERERkQZTl1MKyJV3/e49H7jjgZ/5bYAoincsnI3hUt77F7O8ewx88bP7l1pPNt4jv/z7rQDFudkPTk9Pfh7SQRbukkEWvpz4cqmYABx+7mv7x4df/7P1L600qut7+3N97//4os+cLW3XzQCM/uOryct/+UTDTv8nshEUARQRERFpMOoDKHIVKyalGCDx5RxQifrpxk7qytz5SZ8/fnBRhO9886YEYGLshPqiiawzVQBFrmLTc7OtAJSTVszSJjZ17JA6Uzg9khz+2yfXZeSuiNRGkQIRERGRBqMIoMhVzBV9ZaoFh0svZ1MIUERElqEKoMhVzCo9pwyIs4D+pfOwioiIXEJNwCIiIiINRhFAkauY31SOASzgXLX7OXMTRE1vzC+LiEhDUwRQREREpMEoAihyNQvWmy11L7NmAezIxWUREWlkqgCKXMUc7sFscU+1sR9mNupc9DUAw8bWoWgiIlLH1AQsIiIi0mAUARS5ivmkdB+AmW0lrno5e2AmW07WuFgiIlLnVAEUuYoF73cB4FzrMqt6oLhgWUREGpiagEVEREQajCKAIleZvgc/8si23r17AFxkO6utm5TSoF/+xOGJwwN/+vI6FE9ERK4CigCKiIiINBhFAEWuAptveU9bi0+2AjS3ddwOYW/6l2Xm/TV7NVsYWsvyiYjI1UUVQJE6tuMX/8ABbE6K3TuL0/cBYPxLM+6qZXtz8WPpb6cKoIiIzFMTsIiIiEiDUQRQpM7cvOd9uY7rd8YAueK5nwNoCuFmc3ZvtkrvkhsDvpycCSHMAAwO/OkzALPTUzPVthERkcaiCqBInem4fme8fdeeGCApF98HYFiPOVdTs28IYSZ4XwDIDw2q6VdERBZRE7CIiIhIg1EEUGQNvf+Tn20H8FHsyrmWGMBCeYcR2rJVfhYg+PJWXy6luf1cvKPsXBtA5Krfo4UQAPDeT/hyeQjg8MBXfnV8+MiBNXg7IiJyjVAEUERERKTBKAIocoW1d9+0o7mtow3AG3cDBIIj+OyGK3RCyObutV4AM2u3LOpnZlWvS+89ELJH7lUA51w+juLBdDnKX9l3JCIi1xpVAEWusJ7+e+7cdsve2wCS0txvAZiBC8n8OmaV35UFh3O5ml7f+4TgPQAu3vQYQBw1DV/Xet3zAHEcF6/IGxERkWuWmoBFREREGowigA3CcEPOxU8A+HL5Yz4p9QHEuU06B668JASKAC5KD6+ZXYz2LcOXy/ODO0JI07mY2Yi56AWAUmh7vUw8AXD8wOMvpn93M3EUFQEmxk74K/puRETkmqMv/0ZhNmkWvQoQQukngi+rkrB2PJAAOBfNP1lrBTCEQAjpvyf48my6scubRd9OXzz3Ytk2jQDkhwaV4FlERFZMTcAiIiIiDUYRwAaRHzqUf/aLvzoAcMdDH/9O9y39OYByudQLEILvD8F/EsCcTdQarZLFXKn0Qjw3+xJAMY4/Vm3dKIo/D0BgEtwIQIjcDGYJwHNf+O8ja1xcERFpQIoAioiIiDQYRQAb0NTpN+fThJhPJgBCCMOB8ByAGVNmplQiqzQ1Pjqf7yWJoueqretcGvUj2AxYIV30RWxBzhgRERERERERERERERERERERERERERERERERERERERERERERERERERERERERERERERERERERERERERERERERERERERERERERERERERERERERERERERERERERERERERERERERERERERERERERkWvB/wdx+DkYWPbzmwAAAABJRU5ErkJggg==;" vertex="1" parent="M-M-LhbsIdI5wGWc-zYi-10">
          <mxGeometry x="0.9999999999999432" y="33" width="40" height="30" as="geometry" />
        </mxCell>
        <mxCell id="IJQR4OGKdWdGs9fNsD_m-11" value="m" style="group;fillColor=#d5e8d4;strokeColor=#82b366;" connectable="0" vertex="1" parent="M-M-LhbsIdI5wGWc-zYi-9">
          <mxGeometry x="38" y="9" width="130" height="70" as="geometry" />
        </mxCell>
        <mxCell id="IJQR4OGKdWdGs9fNsD_m-7" value="&lt;b&gt;&amp;nbsp;CURRENT REST API&lt;/b&gt;&lt;br&gt;&lt;div align=&quot;left&quot;&gt;&amp;nbsp;&amp;nbsp;&amp;nbsp;&amp;nbsp;&amp;nbsp;&amp;nbsp;&amp;nbsp;&amp;nbsp; Access dataset&lt;/div&gt;&lt;div align=&quot;left&quot;&gt;&amp;nbsp;&amp;nbsp;&amp;nbsp;&amp;nbsp;&amp;nbsp;&amp;nbsp;&amp;nbsp;&amp;nbsp; metadata etc.&lt;br&gt;&amp;nbsp;&amp;nbsp;&amp;nbsp;&amp;nbsp;&amp;nbsp;&amp;nbsp;&amp;nbsp;&amp;nbsp; Git: OpenML&lt;br&gt;&lt;/div&gt;" style="rounded=0;whiteSpace=wrap;html=1;align=left;fillColor=#d5e8d4;strokeColor=#82b366;" vertex="1" parent="IJQR4OGKdWdGs9fNsD_m-11">
          <mxGeometry width="130" height="70" as="geometry" />
        </mxCell>
        <mxCell id="IJQR4OGKdWdGs9fNsD_m-10" value="" style="shape=image;verticalLabelPosition=bottom;labelBackgroundColor=default;verticalAlign=top;aspect=fixed;imageAspect=0;image=data:image/png,iVBORw0KGgoAAAANSUhEUgAABkAAAAZACAMAAAAW0n6VAAAArlBMVEUAAAAAAAAAAAAAAAAAAAAAAAAAAAAAAAAAAAAAAAAAAAAAAAAAAAAAAAAAAAAAAAAAAAAAAAAAAAAAAAAAAAAAAAAAAAAAAAAAAAAAAAAAAAAAAAAAAAAAAAAAAAAAAAAAAAAAAAAAAAAAAAAAAAAAAAAAAAAAAAAAAAAAAAAAAAAAAAAAAAAAAAAAAAAAAAAAAAAAAAAAAAAAAAAAAAAAAAAAAAAAAAAAAAAAAABeyFOlAAAAOXRSTlMA/RDuA/YI6Pq8qgXDd94WiCNDDG5V8rOBkTNnmc3jozzIGtLWTSteOCce2nxano1jri+3UXKWR0oP9kRFAABc4UlEQVR42uzBgQAAAACAoP2pF6kCAAAAAAAAAAAAAAAAAAAAAAAAAAAAAAAAAAAAAAAAAAAAAAAAAAAAAAAAAAAAAAAAAAAAAAAAAAAAAGD24EAAAAAAAMj/tRFUVVVVVVVVVVVVVVVVVVVVVVVVVVVVVVVVVVVVVVVVVVVVVVVVVVVVVVVVVVVVVVVVVVVVVVVVVVVVVYU9OBAAAAAAAPJ/bQRVVVVVVVVVVVVVVVVVVVVVVVVVVVVVVVVVVVVVVVVVVVVVVVVVVVVVVVVVVVVVVVVVVVVVVVVVVVVVVWEPDgQAAAAAgPxfG0FVVVVVVVVVVVVVVVVVVVVVVVVVVVVVVVVVVVVVVVVVVVVVVVVVVVVVVVVVVVVVVVVVVVVVVVVVVVVVVdiDAwEAAAAAIP/XRlBVVVVVVVVVVVVVVVVVVVVVVVVVVVVVVVVVVVVVVVVVVVVVVVVVVVVVVVVVVVVVVVVVVVVVVVVVVVVVFfbgQAAAAAAAyP+1EVRVVVVVVVVVVVVVVVVVVVVVVVVVVVVVVVVVVVVVVVVVVVVVVVVVVVVVVVVVVVVVVVVVVVVVVVVVVVVVhT04EAAAAAAA8n9tBFVVVVVVVVVVVVVVVVVVVVVVVVVVVVVVVVVVVVVVVVVVVVVVVVVVVVVVVVVVVVVVVVVVVVVVVVVVVVVVYQ8OBAAAAACA/F8bQVVVVVVVVVVVVVVVVVVVVVVVVVVVVVVVVVVVVVVVVVVVVVVVVVVVVVVVVVVVVVVVVVVVVVVVVVVVVVVV2IMDAQAAAAAg/9dGUFVVVVVVVVVVVVVVVVVVVVVVVVVVVVVVVVVVVVVVVVVVVVVVVVVVVVVVVVVVVVVVVVVVVVVVVVVVVVUV9uBAAAAAAADI/7URVFVVVVVVVVVVVVVVVVVVVVVVVVVVVVVVVVVVVVVVVVVVVVVVVVVVVVVVVVVVVVVVVVVVVVVVVVVVVVWFvTvbThMKwzBMJDLsAAJhC8JGwYjUDNomMZb7v7GaDiddTVcGNQrvc87xt/Y/AQAAAAAA2uKyNw0W6ZdwI2WWuW7i+yOllkII27bLPJ953lh/lbHnzfK83H4mhFgqNfL9xF1nmZSb8Eu6CKa9Sw0AcIqMQXBfbOTXyPWflsIurzxdt5qDsnTdu3JssXzy3eir3BT3wcDQAADHZBsXafhYR7e+Eg/ONizOmiN19hwqsVD+bVQ/himRAgCHZkzvQ5ndriZxeaNbzQmzzFkZL1e32WM4nxInALAPg3kho+RJ2Pl42LTUcJzb4imJZDEfaACAd7uYplXtjiZxbvabzumbeTwZuXWVTi80AMAr9ObhNjaE43UwNf6t7zliGyXhvKcBAP52uQjvnmPjhtj4j/6NI1bru3DBoDCArjufpnIbG7l50q3wz2CZuRi5Mp1qANAp29yIfKpUu6pv+RFJAqDtjMX3zBel2WDnzFL42WbBMDCAdnmuVCmbB8ch9D1bUdsCcPoGRZ3w4vgUZimSumChBMCpMX49OeiNfzrr54Nkzi4JgON3HWarb1cUq45M/+qbn4XXGgAcocsi82PeHMfN8mI/K9giAXAsgspVjt7gZOiOcqtAA4DPc71ZK4cW+YkyHbXeUNUCcGBGKhMxo17VAtZMJHJ+rgHAvhlpTaujfYgRAHs1CNfLsrV/40DTDMvlOmR1BMAuGUWkHKKjI3RHRQUnUQB8WFAlsXe0vxnHvpx5ccKgFoD3CqQfjxt02DhOJCkC4C0uimjCjBX+NNgnUcEtFABkB96ZIqpmSgvAS87ntSI78LKhMyJFAPxtUCUPXCPBK+gPScWoL4Df2eFzyQpvo9ukCNBxRpjEnLLCO5mxy74I0EnB3crhtx34oL6zumPQF+iQXpXY7JVjZ4Z2UvU0AG0X1GrGYjl27mymam7DA611Ubh0PLBPpmDlEGgfYxsejFrhAMzYJUSA1ujJUU7VCgdk5SNJUwQ/2LvXvUShKAzjiAcEFTdbGBAwDkJqOWZlpvd/YzN9md8cnLIy5fD8L6BP6XLtd+21UXZDh8gDF9HIQoerIkBZ3cxCcw9ckEmyDpTPcDOe0nmgABqT8YbjLKAshg6dB4rFDMlEgMJTKR4oKIoIUGAdKZi2QpE1JkKyPQsomp4UbLZCGbR1T3JPBCiM4SzihjlKRIu+M+ELXB6hB8qJSAS4qFZM6IES6048nxdygQu4CQzOrVB6mhGkCoDzac29hNYDFdFIvDmNCHAWaeDyGhQq5ptLIwJ8sZ4U2R6opEzENCLAF1FnBk96oNI0Y8ZoFnByvsfAFeqgMfF8BcCptGIOrlAnmSBVB05BnZGZo36aHGYBn3Rj9zm4Qk11+zaTWcAHcXCF2ssIRIB36+WsuAJemGHO9l7gaC25ZUsJ8MvVWBKqA0cYcdsDOBSqjxQAr1YPl2ehgIPaLjUE+B+V6gFQQ4B3G9o61QM4ooYEvGYI/Kbj3FM9gCO1jU1HAUDuAXCWBXxIS66YuTqTblMzbyeJ/mgYYSjEYDAIgsBxnGcp576/sKyheoShZS18fy7ls+M4QRD8/DNChKFhPOrJ5NbUmt09zqIZMtuLWou57/El2po5TXRjtRXLp8DZSX+RqiPlbEZquvBl7gRPS7GNDD2ZmhpN5lfQxrEC1FFLRvQeJ9HVsr5rRGPPnuXxtZUW9Hi8k1rXcT6zvXFkuP1Mo1M5iWYkFaBmLO92jw9rvNSM1d1gvYmv05Luueik1/FmPbhbvVQTVmZ+wq1nKUBtqHayx3u1rxJ3JZ6+7+ZWBfd8q9Z8N3sSKze54rTr/fpBBf8ngH91HJfDi6NpUz0aL9f53KrRzM3Imufr5TjSp0RkR+veM9qLquvlBr8v39TM9EjYTmzxjaB0rNixRaRnvCr2prbB2l5U2MJjRfsrmhN3u1zvHlKGMw9opX6+Xm7dKaMXrzCJQ1BNQ4KPw9rZ48pbywXtxpE6C7n2VnpGL3tQYhOHoGJ6+T3Bx58aV/1IBPkDn/YPUx9yW0R9gpK/tI0dTSx+sHcnymlCYRiGwQUEQZFFWSTYRrDVGmvM1Hr/N9aZdJppZ9rpJHHhP+d9rgHm8P3LQR2LOWWHF4ORM/eTnHPjjDp54s+dEbPAL7pzNgyhhE5B6erZtNzv4rrRaJrq2qKmjnf7knb7sw9M9kK6YeLwWfgcORpaHNfxEkgY2DCdhKksyPWoeenKplh1My/niN4dEjt7NACBrJWnbfgwN4ddEX400ALrsNgd9O2PmN6W8Atp8rmWlWhz5GScHK30MSwyTfvs0zkxBIJYW++kG3Mz2xUL/jXacuOw2M022h0jprOlGwIZHjULH/2y8usJ76cgw0ntV0u9jhFiCASIivKkDXPppknD0SHUsElSV6djpCzohqDNJoEuMy9T71scMl+lgHEYzz1dMrMdrA2glXr1QYuvudE+feLGOsVMntK9Fosj5oFrTtBCaw3Ch+1kKypW6ho2q8xRf3XJDhgTRLvkD4pfjWofgi1nhw6GzTZQffuw/5AbQEtE8fKkLnNZxQu6HZrpLGK1x7TKgkvZ0AaNulO7z2cH75m2IqVPke78swHcVE/VyxL7Hu0O/GqMeGoWaE0noaGO27EKJWtX9t4PyR34TRR+2SvZF1myGoIb+axg7cqepWx34O86YTpTb0ZrmrEagusLZ4rVrvpeljDeiP/4mChX0DJnoQFcUe9JrdsSu7MvFK3wioKWYlHEqWmG4Fo6qULlYLMkeOBtUaRUKITbKaVb/AOtj38FD58pXbxdtPDViSJTxnpxcbk7OCnB3vsLBlDwbtbCnymSyAcVC+q4pKNzUsGo+srHFs7o89dKjasYnaMBXIQVb07iDbyg5reBuIBxHXgKxPNNTDDHT3TO/9B3UmatcElRmDrih3zpp+PcxqnwXuHAC75zeOAKOt/FJ5FuSkrH+TSV6Bei7/g511rhioa5LzuJDKrGAM7hkyt43N2839UEctxAp87uJb85LiNZeL9a7s65WQb0PHBLURgI3jb0agN4j6PY4+PuYcWCOVpgvaruTkJ53JKFN+ut7k8idauEJiBaZLxyhU6h3K+4JQtvMSxErkYNHD/nkUfr9HLfETmLsimYQMFrWbHE42NJ0wMtFoWBxF+wjdgtxKtYvrytwa5bTAyg5SaFwGrWHUcIXlG8Etf022RHnnAIYR0zcfn+jkIW1EwfU7fgp5wQZl24wn6LYPt8o+F/rFhW+lgGIY81RLJCYUGEQhZ+sHevS2kDYRjHNxCB0KCpkAiCEkXk4IEWD9O9/xvrh05n2mn95MI87+b/u4Ys7HvcmJJXvWxE1QOmfR2Zas06JZGFj70amvuo+itmPRCBs5WlZNbi1QH/ka7sdBg+FDWzHohGWhd23tq5Y7QQ/yqtRB9JPmBRKKJzP8itbM1alA74U21k51WSD3iMFpHaDG6M/Ifkawf8dmnjqfNqXrKZHVFrlXMbBZGMZe/4Zfts4dpT9Uu2lKABhqWJonryzLZrOHc2M9BG2J1QNEdzpPXEwDRvb0YfZNO1Cv3LzjX/HmictJ7oz2RVBVmBJusM5Ne6PYxpuUJD3Y/lm3vZb9Jgr+qDH6e7NbEHGiytd+pxyB2Thc20vvHSrne0CgJurZ7Loqe3ge61O3fJXAFmclkZp7VZtFuvrgu+R+Av94VyHEJDVpN0xsKtV3TsAvZ6e9tU05tiqVs7r+ZL1kUDH+gshefU7344xG8vW/xIXp64xHzWgw+P7ISQ4dOL7OKIbO8Qt68XXlOST9lz9XmtxAd36iClNVXd25v0eeEtZp1H0QC4u+PuEsS5D6/voGa/Ey2HVJRC4rXS7ONoT1jsGcqjD+/NQU9aTzTXSFyvHGK0efGCkmzFOp1wvvvwzh0kDb9lkqmsC/JY8TmbK35rVxQ+wur64BL+4HXdjhQfEmUqJDbpSDDc7TIvGNqtD2/hoOxScTqkPWKYKyL1lVfT6y+ptgX36sN7dtDWWfb1FktcsSArFtu+XPZqMeI1s0MofHhTB3mCqaxkTh4rBulULXtVzc+Jbw8j8+FxkzQhPZ+feC3tKefcvL3a0varKUXZg2n74HpkGq0YTtVS1TnjXba1xHqvusXG4WA2PrwbBzs2hVa+IZnRZmnYSqo/I8lKbrMHtfLhvTtY0im1hkO6zBVatZFam0jwcXgTHx7n35xNIXVxzDj4FnUKodY+go+juPHhcfoN0gpDTsYcfnPWQm191Yxa2jF8OfHBVTTS2HQ5E2rKYijEmNZM5wLy8EYd7Tj2PrzcwajW26lXkbzzI2CIzuhHb86m3aOZ+vAKB7tqnRH1NgOpVmxl1u52xwycH9GzD690sOx2LFNQv9g66EsHKrnPvOR986Na+PA49NZ1ytxrqNiwqG8j8rWczMhdHdkw8cF1HeyTKajn9PRpS980vpR2Qe7q6Gof3oVDDLYiE+oEIdIuNXp3f7J3b1tNA1EYgPdYY0OTpue0QVqIhYqIKBTQ//1fzOXywsPigsp29kzm/56hzczsY8vYlYUH6LsW6oZiEcZUvC0jE6GaNSGUXLDuysoA+r4JdUYYNVl5w2mqQQri+VE/MspppYI+rnTolF0QyRA+QgL0JoTWwXOOarczgr5KqFtmb89hzjWcbRKYXQCbAJj6MPUV+gZCXVN8CiAZst4JhaOwH5yYn3Lela0V9D0IddCd/ZqgfMzbZjDuzLMfWTMRsrWEvjOhTpo05smQltnSMNi3nvdWzLXa60OdY0qrs0arHmxlQ/aEBOBDC1ubOT8zAbiCvq1Qd83mG9gqGbcwN89gas3MeRgW0Hcj1GXF+y1MZXMhS69uYWp9z1doIMbQxwncXfd6sYapAfeEGLrow9KSOdZwlNDHhq8EnC1hqc9hB4fpSu+gG7BuNyCva6jLGJ1MwuXS4VDsKoyeafGuO2UnUFB20NcKpcG2MWTLb8khOpA9z09YPhGYL9DXCKVid5rjMMylx8wye541XFMXnEfoey+UDtPewlvm0r06q2Alv+HrI0At9DGykJbJTQ4r1aWQL0Xj8Hx8fSTgTQ51PaHEXNm9QlzDkg1P3pUw4gacXxOmY+g7EkrObuBg5IhrsL1Y1LDhmDoP1hz6xkIJ+mBWkdW7F3pKJ8JXbsCQeLhOoY9/50Qd9AphGCsqkzWeh8dHUs6hj9muZJkdIS1/dP/VtA8T5VQoYDMHdX2hdE1LmOjzS/OXDoSvSs68CtwU+pZCKZuu8XwMY0XgqoWFLe8EwRtC37VQ2qZbWChZjfVffOvBQLXgwPbw3ULfV6HEvV5UOAgH9Ibr2sG/+prbBmOwgT6uKSaZrWr454ZCul7t4V895PERhXfQVwmRyGxYw789Z2OpOt7Au2zMO2gkLqBvIEQ/jMYZvPvIbUOK7mt4t2fjRzRW0PcgRD/t9vCuZh+rluIE3pUcjhmRPfSxdJt+uWzh3QnreWOdnVgthCLSg7qce0bpdwYFWSVj6AouN/CsHvLjEZUJ9G2F6Hdv/GfTN4yDvNg8h195w3M/Mp+g70aI/jRqHPzKvgi9RPEIz8pjoch8hr63QvS34xKecbDJS7w6gl8fWfoQoRL6eI+gp9xXeB52hNi728Cr3pzHfYSKDOoy/hLoScW8hlcV+wn+0UUNn1zDsz5Kd9DXCtHTRicOPtUXQv9g6OBTy6DFd/bubDltIIjCcMssAidlSEgMJBhbBocADpXF23n/F0tVrhybndYYjf7vGUCtnuk+Kqif8tc3YJUvmTYjGutNvVsopHRiKKiB/PFzwDqTVFtgp/DNtN4roEab06viupC/qQFrnPQbCqjJA2on07kC+sPjosA6idxVDFhv+kcBzXlG7eAqVTgpyzqF9l3+mgZs8rOicFLC2bb2o6FgkgHNYbF9kr+2ARu1FomCqRHQt6W2wsmI3S+6S/ljnxRb+Z0pmKRnOK7xqwrDNsU3l79rA7ZRnVQUzIJhrI06Ta3D6RX+d5LIXWrAllqXiULpkhO+QetCoYy4lYrBo/x1Ddja1VihZESFrzUbK5BGj2IehVv5uzVge/V2Q4GMZoaVrioKpPnBEIWu/D0asIsPTQWSErm00k1Nq3F5jmVSuUu4G8Ouvp4rjPMnw1KThlaj/cAy1/J3ZsDRNiG1H4YlegojZSEnInfyd2nA7j6nCiK5N7zZ+iCzu1Fpyx//T+zlZKD1SErIS/VBQZxxPxqXpvwx3409PQ0VxEPV8Ex1oSAWtB+Rqchd0jFgPyeXCmJABXmm3lUIw4+GuEzlb2TA3h6HWouldHed91qJ2w+sMZG/hQFHfxPSpFEOGl8yZHw6Qn35+2rAIZ5SBZDxQvzP9VgBnBIiE6NM/kj4x4FavxTAmNDoUPXjnK8ORuldTe5qZGajGIvpVBCzD0Plr0v7Eacv8pcZcLBWV/kblj5TY3am3NXuGXmL1Ff56xtwuOp9Q7mbl7wHCdF/XEwNkVrIH0lD8DG90BL0IH6+pcpb0uNIO14j+eN9A07q7USvUEGKVD/YHYxZJ5G7igFePg71GhWkMPXjlFHpmF3JX9OAIg30pt+slPKvH+d8Nypu93qOoFMcocm5XqKCFKJ+vC9tb1cWp/J3Z0Cx7tLLWEGmqXL2QNpY7M7kb2aAq/pAy3APcsz1o3JjiFxL/oYGeLup6CUqyCFmQ+Ur40Uyfk/y98sAd7NMK7BRuIfWXLlK2ix/lEBP/m4N8FfvK1/jEsU1nYz0GsdX2FFX/vjkMfJxV1GuRqVZWehkeoHjK+whlbukNP9CbKNIx1hZSb4wVW8qV32mr8phJn9zA54p0jFWsxRPvuqp8lRjebAs/rJ3L2ppA0EUgCfGSAIY5SLQIlAKWhS5g3re/8X69Sr2Qmm7k2R3z/8IfMO3m92Zs1cwryxEapYRNA08iB1XXj/GjMLzxgLmNYVIz3qK17iCFOAR6xeJR60I3ktg3jshUnSRQNNCHNeBouBcyBunLRgXe3GKTHk6D/AztqEfpwtF4bOQP25h3kiIlD2H0BMsxWHbAHpGnk3z+24J866FSFttBD2xw5NMkwh65jx98MsjzOsKkbpGGXqiiTjqvgQ1geNnf/STIcx7K0QZ6ARQ03d0kPoihZrQ4e82+qWzGMZFjFCjbDy3oGbqZC9qowc1qYcPqvhuAvOqQpSN2xQ/YqjJAZUN1FQZYOSfJsx7I0QZuahCTdu9T+lHqCnz+txDc5g3E6KsNFbYw63QQQ/QEjB9wktjmMdGcDqCDTOFjs1UXwVQ0uL0oJdOAhgXClGWthGUBE69iXTbgpKSs03PdFAd5iVClKlJCUpChxqL3vehpOfVS8D04hzmXQpRtt6PoCR1ppn3rAclGwfb1egoK5i3FaKMnSRQMnSluagMJQP3mtXoSH2Yx89Zyl5lgB/xdbRMGrA6Qr56D/P6QvQ3iv7GhRP5TrMAKmKnc4vpsBuYtxKiPCxjqAiuxHpaCbwtpl/5rIPPuF8jF9xEUBFZnw56kkJFyLdHvbaBedySUF7ehVCRWp7yVEmgYsqZYb+FMC6w/L9GNrvrQ0Vid6PRJVSM2C/jtxrMmwpRbu7HeIXDTXoJJkPuFT03g3kDIcrPyRAaAounm5QSTBKOD/puAfMYykm5aiTQ0LoTSzXG2MP0djKmCvOYqkb5OltBw9jWDfcKGuanQp6rRDAu5r6EcnY6xwvvJ9J30LAQ8t4a5vWE6B8V+mzW0tPZSYyv2FNAZi1h3rUQ5W4BBZGFx7MXfezxNv7qAtaIwzDsp2naS1bzxUPzQ71W2EOdaxRaK/wqTae93jBJ2oPry86ue3UzqRWsgZD1WTSXUNC3L9p9gy/8Xj+kDpuVeu03zad7KZoe7BWXRkl5sZvV74pwt8n6LJwOFLTFMju85mtY0Q4OiHrlzk2B9jBnMZzQGq0W3adaRY7H+rSgPosYX27ZNcjbCN95/U78AM7or87rRdg0i0zglHhUftjWTuUorM/i12cRV5BoLRbRmAAJLFtDvxjBKfHwsp7/yXMTDoqqi1lN/oT1aUF9FvK95rFNv8scALh+uHPYsi+qdt7KX+O2+Ril9vmkIgewPi2oz/+3C/CaX22GVzAu6IqN1nBT//GpIrmZwmWtzcNvFxHWpw31aUAzwB7Pnvy/D/Gdp3dA33yAs1rlbUVycRLAdeFg25BfYH1aUJ9F7W4ILckwP63iG6/vzz9ZwGWlN2s5HltPP7J3J2ppA1EUgG9IwmqxCIKiUDGoFetaq573f7F+uAKKC96BM5n7v4F+B0jmLvMlaeeiILMsnx7kk7aSvubHFqgtTAlz/uNRBTmXtQryIf6PFqe0elCTaZZP/nzyThR6MQexF+GJ7S+JkXvp7qF8BvuSTk7xzZVMsnzy55P39bDswUqTZh0A7Pfj3ghB6B3VZIlKCMrEf9fyyfYffIX7HaTOPyizDW1n4q0DBGJ4lMiy7CM0J62i3LN8epDPMdrt7vTLzO8iPAuufTnc03qg3yrKclwjPKUfRRmzfPLnU5gH6qJboaZ/gNXx8+3zQRUBGZ4m8h7eF3sf1O+PYSyf/PnUVOtA2Qn3IdYulK35+NwQyMTbK9mGvMc6h74l27N8+pBPVc0BlG0LsWso63H/Xn6gmf+JtxmVQ3EtCaBzaI7OyPJJn09lhQy6ojuhVehDV9/vVf852xr7GelWUdw6RrjiHcsnez61NUq4F0In1hl0xR4Pko7tIED9W3HqFCHrrFs+ufOp7qoNACG0JV1DV9uDsRefb151pbourxH3iXslPrV8UudT316KFzneqqh9gBVtiufWEKb+nbgzQODOE8sncT4dOI2gqs95iLWNR2Ev4H2RtBGqM2cRraUIXadp+aTN5wTe1byU44TdKIA/8ksaCNfwUNzowmQjyydrPp8xP5yXCYvLSQ+qOv5N/djI9IT0SKZY4VdR6dDySZpPN2p/oWrA9+36D6oGvnXbvWELQbssyDPeTj8/xV3LJ2c+HWlmGMtvfWA/hqaS3wMgDzoIW29f9GUwAErHlk/KfM4iHQeJ2TrRqtCU+t7Ae6+OwPWv5IENT6srNSyfhPl8jbSZ95dQOYCmiLRR+WvWEbz0QJTtwTyor1s++fLp0GYETVStzMUTPAr7Blv7rptR3pEx2lKbzyo1yyddPt/CuYZ6yFRl3oKmquRCC+bpGmbSo1K/7Vo+6fLpUnKZ17+8kUJR5teQj/ULffw6aXUlJ04tn2z5dKo5hKK0ISw6AKwBa1YPZmw3sbqSG+2G5ZMrn46NSlB0KSRuoSjy79IX27mxtE/oHcyEtcTySZVP1zYiKCL5qk16APJ4Mvc9hzCPzkmLbf5rWT6p8jkHabV5IBQuACug270V7/lBeViaA+nI8smUz/kou0guhEChBCugv+Ec5kl0JDpKMFOqlk+mfM5HWUin2Ov+E3pinsaAb6vAPCvf2v7YaSufB7N8Tij7c03hcQwgRy1ooxR6vL9Cyh6W54iPRcEmzIwssXzS5HMu1rPx9urXgVWhZ1vyYx9mUr1gx4IvVv/QZfmcVvdnN+8NkJ+VWHvQ02Marqfqbc6DSmJ3sLqQWT5p8rkcxR7URL9lMYTXKqd+XRL2gR8w0/7YHawvVl4FsXz6O0BwlUJNRRZBOdhF0VOm5hfMtOjARmtcWLN8kuTzY4TXcm7ICiVZjk7jdA1hZsQjpomj/LiyfHLk832kj6c9WRBZV8yQoSVZT7EMM6uS8FQPc+TG8smRz+Up1KHmWlamdgIt5a7kShfmtZatp3Qgblo+KfK5RN3y6hvBqTqS/alg2WnL4toNe6tz4MjyyZDPz2BcirUpX0D6AjKoSb5sw7xhkMjifsO86T9796KVNhCEAXiScIlEwEAFRVG5qEXAC0jr//4v1h6PVugRTOLsZifM9wbKD4TduSw1ny7k06qoDy7jEqXhYi2AoG9+7Vj4lh+6Qo9f6Gs+HcinXZMyhNe/Vqp7+LIlFUB9pjN0ovSkYOaaTwfyadkKXC4qlIDDf8CSiuYO6nP3WhnNr6b5dCCflpUOZT/AV6p6gLXVNdTnvB5l1PagPhdEms/c85mIm4dYiX+CuHkDckaFM4PiXoPWgtrmp+Yz93xm5MSl4CNZF12ASZeK5wlqm2OdLsaurvnMPZ85WIJJI6KknGtC78gZIJDcFGqbUSn/xQFF86T5zD2fOYjLctvRR3qApcf12dxSJhdQ2wQlzScbOftt+Q6xRpRR7gfSfTnf99rylmfjUhNqu4nmU35jXXrRCEyuKDGnNn6HhVoC8u4MaodHLWzjdqz5hOQr5awWocxWih6YPFAR6djYncaUwQnUdieaT858ynEKHt4NJeLYJvRpkbbYfhhA7XJN6S2htqtpPhnJWS1FlYbEfUyxBxZei4pIV69+4UCHwzAbaz7fyd/zmstyey+m3Vw8oqlRIcVQO3kT/Z/yCiP9X7LmU44n8Dgla/zy3k0uS+UYinuJ3hxqlzvNJ2s+5Rh2wKLTpt3cqz6uUzHpfe9XOj6l9AC1y5XmkzefcsykjVQsTcFiXLQtUu+6UF941AUWvI41nwD2sZKXoqmw4rOW2Pb51Nzpma59P2e+fxff9Hqt1vXt6ui8268iPweUTlTGf9wYghD5vj+M43hx9fy4OvlV6wfIx0rzCeznNTodC2smrO3ha5SGj3UOH/dV4pfVr4MAOfCGlMoCBizIAL83n9UasO1B88nJE3U9e+jKQ0Aiw1Bi58puTv5C2/CbjImfjwYhLFtRKo/gV47IGP/3rFuGRZeaT+Z8CrLwwCFs0g6uXRFLKnRwYHd3k4xqtx7GsKlPqZyD3yGZ1X6+DGDLk+aTOZ+SnIPFjHZyahFI0KSiuge/KpkX1wewJ6Y0+lgnZoxO9LL0YMWB5pOXqDWpzQ44XJTIvOc9/IlIuX/YLcmKeHYBBuwBqITgNycb4tMAFgw0nwD29QyL6nJmuBxA7BbejFwoGDoiS0rXS1hxkPv88Zjs8E9DGDfSfL7azzosalelPAfEnisVlK66wSZxezYXlx7MC9uZrpVknbq8WYxgWkPzyZ5PSX5IGYh1Ag7TovYQmhq6MSGbbrow75mSu8Qbeacur6JfMKyh+Xy3l21qUQMcTsi0hqDj53wcgV+nRHa1xjDtPPsObyHvlXVnHoxqaD6ZnZMot0wxMuxq3/bWu7G44pBsi2ZlMODJqu+B3wtZNfdgUkPz+UHGZymv0lhEN/q9xPeuXVVskDZq+Z/JCGYNU+w84Of5ZNcKJjU0n9xENaNz7Xy+J6MqARgMqMCa2CR3tlu7BqOe088bFf2A2YVBDc3nmz29BGEqzw4q9Bm3LoiLuYfQ4NMyepSLEw8GPWTfmSNn8M+aYQBzpprPNVIaTVm9CKinW8o8ME3GqZaeDWGF8jEPYc4g06mL4EaxOszpaz7X7eVBSR8MumRQM3T/Oy5vl+A3orw8ejCmXKFkhlgnbHb1mnYAYw41n9zK0pqd585PVPwBBuMil2ARjcDvkpJz8SXfopdyeo74h+YjGNPVfL4qwMFcZqWp64sJ+2Iv3L4l96lNK0rLtc7RT92m/dyV/tB858GUmuaT3S0Jc+b4yd0EDC4K3IT+Vw+b5FcddGHKUYbxa7LbxAYw5VzzuU7WgC8ularbM+Lq0p9WMsl/8xF8ypHfgCFPlEyAdYILT6kOUx40n+yeSBrHP6EH+L6qtJuplE7xQW7LwoafHsyYUiITGHBDPBzYzPuqrvn8w969qKUNBFEA3iAJFKsItHir+AmKF7yAWux5/xdrhcolUGHJTpmZzP8Iekiyu7MzwfWcNI0S5yrZdiSuA5EfRuOJWX0JDUGjnGzW5Udi86axYhNEri2fY9ILLbZfphFV3SxeRzRlYf0BvO1glsS2f4sKJdDoen80y23eRHwIUrd8jslfpmZxV2a8vfsi8v7v/3WHeTp6KvRB4837oSv9lvEjiHQtn+G9OXEqfO8SFsrI7sbp9goCdy4DPgXmG37qJDHmCGjYsIWOigXL54TwSoutt0uPG24Wp3uOZ065e4S347buFCTuPQpPdTzzrkCjbPkkcO/k6bBdUlby+UrP+EfSMZ052QGFoffDQd442/9ThtWzfBIYOnlOuXYWSJrsewUz0MOE+P36WcegMNjo2IDvLu9qNdB4sXzO0FJetq2Gazu7bg6bZsHirnb6akSYoaijwgkoXHityTXsTRRAY2j5nJPTfrzvDphWDxwjs6jmlLsBgWfHQAsE9n2feeLLaxLQ+Gn5nNJyQ3IztYjnovJSxWbpvzDuDRqzaB42BIGSW62OGVLH2U7FIHFl+ZxQcFSWyReWrUbbSta6tH4gRU3l2hsINP0LX6X3qNgBia7lk0DTSdRneRn9Gpk1G067C6TwH3O/pt0Y4UVF37oh8fMrYlCIEssnwotEji5qxMjswU2xGbTHI2mUijHmcR/wsu0mHA230j4A6PmTRqDQs3yS5FPmJy/LZ3VJ5BDR9fEZmML08v4QBKpulSreqfmTJiAxsHwS5VOiOjJrucC6yGxf5HrQy3eEFzH5CjoFgZpP9biGLqsFkDiyfC7kk/dsJUrFFjK7dWOMevgcOfUOMKHhwJe+0r7mNbFUwbFvGyReLZ8f+bQXiHNH/DYmD3P7z8j0V1LUv7gAAjX/P6nYcbYjtyBxa/mc5NNeIO6W3SX83abkz76VON9m2nNMxAjvzvPsTXyT1TooxEXLZyqfsntuZnXGrZvJjeDuEZ9j/xH0yzHRQnh3vvMrpM8JugaFC8vnJJ/2Agmzh3Xi/uIyrP3WqVfHB42FIGcIr+197Ct3nO3IPSg8WT5p8il1fmqXtjmOvwGyunT6fcOUvm4Khwiv6nPsK32cLd347gfL5zSfKt+OvnrMzrZa1oh3S43HXxwXFSyg/4F+RYrwntCHoFCzfE7yaS+Qdwe8Gkm2uW2p8XSGETVPO/ofaOI+V2wiRfA4W6qIoGT5JMqn2PlFN7xent95vc+Y2i1jRM3TjvwHGnvs5ao4GS3GIDCwfFLlU6wWq7m2TywbzHPzjAWaag/OEVzJv7Eowy4NWx9IuGf5nMunwgMeb8es1pZfkVXd6feADzoqhuh/oJe+Z86ix9n+8QsU6pbPpfnMc+XPG6fpTdlbJTdZDJ1ZhtU6jVfFUMoAwV1479pLHmf7xx4IRA3LZzqfOR5pO5ZwemafiP7qWw+PSWALho6Nr0gjj0VSxgLRi+FzEOhYPmfzqWSxuv2n0TOjRpc/XQ6UEN6pY6OD4M59aknkj7MlKsJ6tHym8qlg8BiDxW6f0f2GrtOvjXmahi0QtYp48rv5Jr57LE0RVt/yuTyfuS79OWE0VKojufBlFdYHpGVGhegxgvu25o6Plq/KZ1DoWj4X86lp2OJmSmza3xZjyT/azzBbM7IuAykgjX6MxSUAKHoo9EGgWbR8Ls8nq6sQ6+F03hYX2XSXf3A5UMGIms9lj69novYEhQgfdGy6PILAF8vn8nzmvH3GNZtpKK+5bWrp5RJp3FpiZnKF8Kprdo/VsunSAYEDy+dCPvPeCivMJIQrLi2o89DHxCURpjSUnNIfaMc+my4KSvsLEQhcWT4X85n3TibvWlxuTFUULXTTOFU98P4EekJwPY+rYRouLtRBoWr5TOVTQ8Gepud2R/K55Qq8D0g5Va8NENzhFmbMXbsNcFnKL7Nv+Uzl0+4RBlqTdbg0mRV9FuXTvUxzgs+QQl5mX8Uc8eNsaYaBVCyfC/m0ayC/2bsXrbSBIAzAGy4BikARUGjV1nKgaEWwtOr//i/W0/ZUyYXKJjvs7DDfI8TfkGzm8tuCSRnWnNFQFcZO4N7YsEHRA7c+/GfRqrHHpzI/z1DzuSOfjFqxrfAZYXjDYxkIo4FrhM6wRV4deh8p9BW1Y2RwGjHK4hICC81n8uLKqPhm8Uzr5u875jRYnq1bZLEpxObZZ//WVKoNtoW/QG8JAvVY85nIp5CpaSzqCu54dDQyek7Jw7cMvWr46CCF/hNsFX9JeWaegMC15jOZT5klAoWMeEzDOhH0nJKLx3sas/OWA4yl2tgfSgTd0noNAivNJ10+A9fn8Qe+krO0LItzFSEmho/DF7kskRD8jtK4DgJLzacWYe1Qq3NohGlHAff+Hk4XL0T0LBxgtdPo8Cc+D6YgDlWVuW41n3T5DN0lymnWOHwdvjdHoBIhg9FKMJZ3v9vD1512jD02fV15GppPwnyG7p7Die9n7UMnv0r56oz6Z4ZwrmFTxS5gdtM7EHjQfCbyKeS405GfHAqZlyH/0+7GP8C4NHx8gnPnFuO5JRRmdkGgo/nM5FNgm31BTxz2cNwJGrhG5wIZjFZKlvcNzt3ZLOIPf/9RDxRONZ+78smjCaIYLlu2O6a8R30TtC7RDH93XkovgnNPVre84PcfzUAgGmg+6fIZviqD2dUbLcJ6W+0M7n02bIzgXFTZp4JEzi1vDAJTzWcin1KOO7mUYZ0zWLR3FMtAbuBeNDBs3COJ/t43iJAU+orSFghcaD535ZPJLPNC2BRuTBm8BR3FJKwRsiTtcezCuYmHsqHYWGL+joq15jOTT4FdkoWt/A+rKd1H+NEcgfdw751how/3ZlYViMGvs52DwlzzuSOfbBaCF8CnODSq+S8eeTZH4BwvJFaBrOFcVLGqywx+ne0aBM5qms/ti6ufQFxXblT8n+7fmCNwhSxBv7wbOHdpU5cpYPTGPQi0NJ/ZfMprcilu7n8Q7gLlRLGRr4eE8AfHJlWacO59gdEbIT/LTEFgrPnM5jP8xTHuDPy3os+0DeRtp3glcJLCEu497d1DK2J9xSACgZnmM5VP7QJJqnp/zfyqr4KWM2fkLVt4B+eagz3mHwi6oqeg0NN8UuWTUY1yGVPvs0yGcnKWwvyAm887dHwG5072+eor6Ip2QKCr+aTLpwwt7623YznFfkmcfufzLA0XX5FGPwSwgRciCjPPQeCT5jOVTxFz/zm9nI29j8J6NPK1m/hHxhdf+h7q7wWW0IQ81bMBAkPNZyaf8ladlPLovZ3S/08Yf9+RQ8wi4H6EFPrDlx9w78oUwLjTDVhoPpP5FNllX8rY+yCqjfdDNP6+4pWErmn679kXVp3T4a+zHYFAPdZ8kuVTiJ/epymeiDkqzWAzcYZ1hGvf4N5sz1MJKcfaKxC41nwm8ynjcxmrZ9uW90UXQuqp7W93UkaIjeBePbacPBj6OttrEFhpPjP5DH/qplvP3qvRLr23MvLXQJb/FtC/vL+C5tkc2fTxdh0ElppPsnxKsfB+UjnVcob9FkfKud2lEkhgaPfiHfw62w+g0Nd8ZvIZ/uKxP9jU90y975PiU+2XxOg1kdvtLuEB7kVfzP9NkBD8Bu8hCDQ0n1T55DPmq6y5979z1/s4R/bukBL49m7yB7zW/p8MZBzafwKBB81nKp8Cp7SU1fdez3wlZmZnDh7dntxKhiyquGnu5XETrySss+2CQEfzuZVPKc8ajt16b55qBNz+uw8GW+O5lQxRzwBs9jx8Mqi3jTXW0/5xqvkkyqege1bP+8zlqveVVtzFEbaFP3bDosSF5oTgI5JCb3x7BoFooPncyqeeYOWqeF+BUEc5Yiqq9z6GDX3sxpYlKKwLDY/1PtSnuDEITDWfZPmUI0Y5dVNWhHLYjMwh8xE5vE8QcKHSAIFmxfLMJfjhsS0QuNB8EuVT0qFJDeVE+gNCboIcIkZQrkBhY94wELbOtlYFgbXmM5VP7SLManv/AfnF3p3opQ0EYQDfQEIpN0JAsCKCoByKYqV+7/9irfXgaDTkmOzudP5P4E8HTOaUFJaOPKyvDLAugsKtCjHEDgbnbKegMJX4LOIDk3fVd4xSWFJED9NBAAbTM60FKHwrH329j8lj5T0I5F2JTxB4iU9G9BfRpY33uFEdNs/LHzYg0Ysyt8Ai5/IDBL5LfGIfg26Ld5zaeGWQMMrtI0YXmX85INGPOHZn/37uMQg0JD5xyPqB0y0+g4SyyuTIHk1mT0HNPEicR3toYjC30HJAYCLxSeJcsdJEMgvtY9bslyk+YA+TTvTcFWi0VZgJdjA4UXoCCnWJzwOyiNfIZYqyzj3SKxqTk/7uI2h4OS2PzCWlTxUEFhKfJDxmTT/617nLQansExRF7b3PDRC5UKG62MFg998DCJQkPgPw2TJsypqMS+3HOJ8Vb0N84JOHPQWVtZ77eUMVj6n3KtGW+Nzi9G6Vson2domKjOVEuRVk/e2jF0+gUolY9mNwP28OCjcSnztYtZel6lr7YslHKUod2+TPpZB35oCKr0L5CKA9kxufDwJeQeJzD6cJe5P+13a1H1MzY2vOp7TXiExLuCjVAJmae/yCIy6PzCsQuJT4pFBjt7mvob0mtEEyG8Wa6yF1Tk7p4/ZApxojZ2r7ibkKCPQkPrd49FrsMidB0tNeryop1mb4wGJooV4BnU5LhSp72GF/abTggYAv8Umg01LclLQnkNraqzBG85G+B6XN7AqEepEnn+w/Z9sHhabE5w5GA/Y7jDhF09Zextfe8hfEnBxjkKXSxc+DkDeKs7rW8nO2bRD4JvFJwGO4t2+svYn2Wfs6R6M9Ypfdi/9yJZDq6eoaWqnYtDehBHqQ+HwjLyC01zh+aR9lBL+84q4B0jdXWgwXIOWNoncN2X8iaAECS4nPV/IC8rUWtC8SmSGhqWKsjgBWvrPNuyDWU0coFLHH9vNHdQcETiQ+X8kLyNfW+j86dcguk4ibVi1sOyif5UHMm8d74bX7/NEzCDgtic/UeXPFzwTaD8q6jsU9+F8xYtDTjIx9+WwAcr04NWfrz9megsBY4vONvIDQfpwcV38ZpqEYu8CWrRn78u0Y9Dqj6L9QBudsH0HgTuIzdR2GFRClVga8vI9lkjDaL8euolHraYAsnEa+X2Z919CLPAjcS3z+xeUpI4gZc4RjlVzX4iZ8AuQlX89VmXEnJQ+ZGBTUMXIO9th+znYKClOJz7QNtJ84OWTEpr6uUtqXYXEeBFnjkE3HFprLK2TlPnLRl8XmjWsQ6LgSn1tcjvR+MOkFeGPCRU6WyUW674cfKhPr6jmyM3ZjBZv152w3IPBd4jNtY3ZreP+am7Bd8jZ50zpbK+yzZHNs3b8bIFMnGs+/PqmozEkhBGpIfB6S76hAzybcRxna/AH+lBmryrI/Il+e+b2xg4x1Yw9O2329olUEgYnE5yEDUv0mqprwxx7ZfM0nkDkpxiyvr7rT60a35kCD/Igs1sIVCyoqo+dMgbrEZ7ryXLPsFyb0n7hFacPK8Ptukf5PeXNb3XTHHWjzFHNw1vpztlUQqEl8vmCS5PyXQRnUdDruakimw7NAtZ9iNKHkW879MW+u+8OTZ//2bLm661auvhWh27kbb27b/nO2DyBQkvhM1znXLyjXM+JpoaJ/IZehqhDhnH68uW17ir6ZlnTQlvhMOz6Zmpmx9uwCCf1UTJUgwq3i1pSsP2c7AoUbic9X1u72OooJ51LvVBqWkG1Ywa4gQtVa6lhN7LH+nK0PAl5B4jNNNb4Hi1YmjIEo9RMJVRRPLQciTLGfbOTI5uBbgcClxGeaimwTWEpdmrFFbmbzQ+AX9B9r/B8s1fF6eMMkQVEBgZXE5yvbD7x/ypxNfU0zavm4USydQYSpuAmfmEyYpY2p7IGAL/GZogrXDqw/bmBI/+w4ed8ISxuIEPl5gi9c28/Z9kFhLvGZnjzHM4TvnkzZm3lh8zq73+zdiVraQBQF4MsmUMui2CgK4ooKiCCoPe//Yi1CLUikTGZSTib3fwK/9gDJLOd+Qr9C4ZdHi27jBA/wnjtCDIqaTwBJHY71b0y3kIYiHMewquKlAGqzjpgYYVnyx9l2EINjzafLfPrsnOMQlsgU2uge4gBqs+s9MdHCEg8Gzd0gBgPNpzPXfk6RWujRjPK0T+KdeGgKtVGxt/v5wD9lZ2oZxOBQ8+lK0ecNEBcv9D1xIx/oq2KIE6hNShe7v1aTyYox5qY0ZBqaT3f59No3WApoSh39HGt7DLXJi8XgGd7u2B0/YFxrPgHt4N1CPgeaGvUhbHXFP1Uol0fvXoDd/xEOTRCDoebTg2hsQHSIfEh0Y64i3slqUcQmk32GasoXMcL1BBhmpPl0Y+JpPcaHirOs2XsGRy8wlQuor7UbFG90F2KKp0s7VFfz6UTb3wrFhTLRspH9LnrBvwNzR1Bf6tcoDi3tcpztHWKQy2s+HeXTc42SfdaY7lwfim9aUF/JdcXYG1YkfpztK2JQ1ny6kPNxT3bVG9WqUR22muKbS6gvFC7E3ADutcQYz9HFMHXNpwMFzw/wzryCaYzTFLbOxTP7BahwwT3LqeiRRMI7LOZW82kv8LQdfFm+SHMPfeYK0Er3VV0op5/PkMQTbQOSnLGoaT7198MgfrZZ4+nl8m7y8CNUqNyps+YelnkGUVQQg77m01rO4xGEfz2BqwH3G9nfs3t1qPDPJ8/88O9ijKdLO0xH86m/H1s5J7toWYG1Z/HKBCpE7p7oB/lJDNB9gkMcaT4t5dKwfiVyynYH9z7ZxdozSfiCSLzqg5N7T8kfZ3uFONxrPq3zmQonsHYqczS9DDfikxrUuu9Zl3dVaeqoSVbkUNjXfNrmMx36sFXMyx8s1bNeXd45hFoz3qMq/iiKKfItskvNp5Wxf30YsQ2HHssCT3FHXTzyAvVZM89V/HEs5ni6G0I0NZ+W+UyJJ1g7kwWeariiT/2XHahVhUe24o+BGOO+ZvpD82mVz7TYL8LagcwxbRr/FH9cQ62oPtMVw7yJKaZTMCF6ms/Iqp6dAt3kFoS3LoY6wmXJXglq2SRL9+8ZbZwtywSdEEXNZ2STtGyfz4wZW+TuYK3gz3/iM9SSTD3P98TeF1PkK5xjzWfkfKZm++O3WgnWHmWO62D7SHxxB/VXccr4xN6R3blBDAaaz8j5TJMzWMvU5B3Zqv+l+OIJ6kMny7BAuuZIImAed3yo+Yyk48/Kx/8aJNAW95qwlvHmHmgZaiEYcTydMPU/vyEGmYbmM4LAn3WP7XRJS4DeAB0r9UcOaq7cIx2e4WycLclwLFxrPqPlM2VeAcoBsvs5WAs8GWXfg3p3fkt7r78tpsibNluazyj5TJtsALoek7lOstelZ4gOWvsg08wKS9nzmlcxQ/+COtJ8GuczZbsfM0ewN5RlTP1wnjQqDqCA9qnQjJuhOvL3gDh0NZ9m2ukY/bEq34e9qcQhW4I9P8bZf4MKKnviShXLEj/O9g4xCPKaT7N8pqU60flqcKEhK4gaeTEWH/SRdkHlPWS83fjG42zJtjHXlDWfRvn0ZLvVpy/pM9grXUnyNTJIt1Lrin1LqSymqA7irzvRfBrk04evmSgOMsSrv1cZ6GDCmXuk2/GzvCOan8Y0PCCeIqpbzee2jlNUnPhJHZzX0N0NOch5cDDiDClWah3IO+5Tr1PZmQvEoab53DqfqZUNqF/eK3CgIon3itQqNHvygfnUa08MkQ8b62s+t8tn6i4OLhtwdwA9wIHz5B+O+I6U+sXe3WilDQRRAJ5Awl8oEloiIET+pChgpdra+/4v1p72VAElkHYXZrLzPUF7vEoy7M6Nrfx6RniVhzrbGiy41nweFrv98UGlMsCwS+rVCOBXlnhyfgwn1dslsmGFHYwPkhwjgQWfNJ+H8yn/2fT8lwhRpxc8/4GJ9GrbCA4K+j3awXm18ZL+BZvig7fmms8D+XTx2uC2MOH+gH9RATiWlZzWE5wzXY5pB++J4DMdTUQ8gpLmMzWfrp7bNX6BtXJB7+JzTQVT4fVgHbil0ZmRRWGADfLrbJuwYKT5TM2nIvIX/Ie/K5ggfEXmGg4Jrn+EtAef/gJOdbZVWNDVfO7Np/SROK9X3zbZVCrCgInsV5AErih3hz7Z9oBtwutswwAWtDWf7+dT9p8Sk8IFDCiHZFUfzn8LUoAbFs33fzt5RopNbcBX2HCn+XybT/302PQgogVhCBMWkt86h8i/Sn059ykd581Rc8qO85qCsubzTT7102NL2AAkrEtfgPtRsX1YnWVmzBs0WyU6At/NUUGJzuYeFqw1n1v5dP3Cx/s/dhGFTR24fh39HvnlTfuf7+g4jDdTDuh8prBgqfl8yafbl833KSWAiF23kSd9SM1x5MJBZdS8KdBx2D05samzLXiwoKX5/J3PHGxi3cVpTyG8iFJwWp1aFNv3EgbInfJl5ybyKRtGVfu7PtPZPMOCykfNZ6TfeaQoFGHCJaXhdNoYSxJqhlxJHr+sZj5lw33kM6PMWO1D3TXRfKpUHYi5oRcmMCG+IJlWyIlytXs1PPtMYGfkI77O9hIW9DWfKs04hgmJT3swfMa6JpmaEK44qDWvWhGTk9QtbJNeZ1uEBQ+aT5WmBsjpahpXYIIndHvmI2SKp9Xr5qeb3pjXPOADXuWgzjaCDTPNp0ox98B/j+KrGsB977xFZYgRJ5P6ut/5tHru3XE9N73GBvl1titYEPuaT5ViBCNqlIrd1KFNAl2Ak6D4S9JoLAaDQbVavaz1u83lt6tVu9WLCiIe5RKYN6az6cKCquZTpVgBMm6hGz4405D41NHCX7kYuaic0Xw6p5Sc6qwft7tfHZLnA7bobknFiubTOR1A2H6pQgAjYoE1Ytcw7ysppflUZzzCi/gjpeI46V2TOBMYV5E4ylM8aT5d8wgzvtAh7E7yAk8kzM7uWCEbMJUrNJ+uacOMypgO4PiiXJZ207SHTbJOz6n803w6plCGGfd0SrcezOiSLA/Y5PhaMMWO5tMx32GGd0tH4bbyx5uTKF1skrPBTLlB8+mWoSf06+ghDJnI2nlThXkRKaX5VJmFExjSoxOrw5BvJEkRxsWklOZTZbeUu3/0CYbEkioq72DeiJTSfKrMokDwmHICQ+qCduLcwLw+KaX5VFn5IxgyoNP7DACu9aMv8cLF/75iTvPpkg+QvKwmTGBILOdbuhrMa5FSmk+V0W0AQxohHYnnK8hIzBBrAfOkdvsqfjSf7ggHol9AiPwpAElViv/vowfjyqSU5lOdbVw58SkDfj0mQDAjEeYw75GU0nyqbHoVALKb/fwJTBnIuE54hQ0Cl2CqfNN8OqM0heQjWH+04di+ne8w74GU0nyqzC1S8leij2CKJ+KsxwgbpO4QUD/ZuxelpKIojOP7CAcOaWhSplFIYmaiElnZ//1frPEGOIWXZk2ss/b3ewOGb2bD3usSlvKZi+0iRKPoL8wMalDs0dzBXKFtPaJ8yrNstjFzmZ7H60+eGjzWvWKBtvWIM8pnJpoXmNlIq7QN5DNV8Q13tK1H/FE+M/ESO8P0T9wN5YXS/e7+XeztJhHlU55dwVvTMbz3fSsw0/W+3/YtcwFKICQY5TMLawPMVCvvwDvP6O/ygFva1iMOKZ9ZmAKEGbV8UgJ51JyvFZgrazMGTLxTPrPQx87OQVq5U+xUw+TYNjMhirAlFuUzB8MKINAQwlYXO20HJ+JSr7F3nkSUT3migzZ2ui6afM4w1HE8FOucBdrWI84on/GtbwC1n6L4t27CDGa3feCOtvWIP8pnfBOI0kM4d1xgp3ByKv5pveSGtvWIQ8pnfJ8xVBwnJ15gaGfllclLHDGnbT3ijfIZ3tEOhvaTF69KDI16yaUzFgTpA5U4lM/oeocYKh21+OwCELyfcAt7e0lE+ZQnaE65FnAF0/ohhH9Iv2Amk85JqRPlM7gJlkau6l2HBZb6yaE2i7StR3xRPmPrAxFf0G+cY6lyWD24yQJt6xFnlM/YtiuuhRmCdd9aG0sNRw88ty6xN04iyqc86ksDS213k8+/YurQ3Qd8ib1pElE+5TGbXUydJXc63Ig602SfRdrWI74on4HdTTCJXJ59VAGBS7FGzESbRSMBKJ+B7WGq+pIc2uVGpFHDc60Key6/R6kj5TOwU66FbAGZ63UxVbi6p3uHvdLbNZ3UlvIZ11mBqbHT4rrjAlOFp33MX7H3IYkon/Kg7wXXoraAzE2wVTpaULjHjLb1iDvKZ1TDEltbyavWGFsNP5ewG9j7kUSUT3nAtwa2Rk4vsOwvsYDBSXKigb3LJKJ8ynInA8jkAuvKBGMjJw2FJ2DP8wJ4qRXlM6a1Q4A8LrCu9MYY6/j4w/UJe40konzKUq0NZmJXYM0vsWKeIKfMhG4HlXpSPiNqdTBWuZ+vvIW1qYdq9Bfcp2094onyGVDrAoB8LrCutEZY22+mlRuzSNt6xBflM571KbeyqMC6v1sq2E+hXoE91+UQUifKZ0A/sVbV4is9BQh2ghxjr+glEeVTHj4/oo4XXKbZYS7IXOk+9rpJRPmUv5pgruPgLeApDtoAoc7O99h7m0SUT/lP9zjtzVQTbzBX9NMqfeRWVgURUhe/2bsb5aSBMArDX0hDgkFQwNKWX6VSwP6Aname+78xR20bqI61Tk7c3ZznFniHhWR3P/UZmEGE0rl0N+2LHt/5f4f90TEKmtYjjlGfgbnEvZBeJL98L28wK8gaBEsTUZ9CPExXmHiwg7ewTHAviDfp73BA03rEKeozKIz1I/Hs98AAD0J4KnuC8i1MRH1KFesHRuaZHb4LZAUZonwzE1Gf8sQNCF6Zb7pT3AvgKdYUj0LZmCwBUZ/heAOCqTc7eAurDD8E8B+kAYKvJqI+hf//I/HiCpOntmCY5Va5HvZoWo84Rn2GIp+B4cq8dA2GYdP+ktM7AjStR9SnHGgOwTA2PzUnYGj37Vnur4RtE1GfUmi0wdD2dkP2JgXDpGvVmqB8dyaiPuVRdwKGdGPe6kVgON9YlfIMj+q7L1tcpT6DsDkHQ9Qzj12CorO2Ci1BMDcR9Sn3likO+X8DlLPnCYH0s1XnCuWLGiaiPuWnVQyKnfmt0QFFPLfnOH20Z2oi6lN+mseg6Hj/Q2AdgyK7sqq0UNC0HnGN+vTeKANFvDbvfclAEZ1YRVI88PxEvQRJffruJAJF5vUL9AcDkFznVoUPKNT9bKi4R316Lr8GycCCcAeS275V4Av2aFqPOEZ9+q3fwiGd5Xkib4Hkfdf4XqN8mbeHQ8U16tNrHxYgGR5ZIBqfcMCvAyEzFDStR1yjPn227oBk0bdgLI9Bkq6MbYF9dZ3vIq5Snx5bpSCJg3oK2ctAkm2Nqxlhj6b1iFvUp8cGvO/FwK4SGIDm9MiYzkDw0UTUZ73lY9BsLTB3oHnVtN9wei7WWxNRn7XW34Hm1IIzA81iYzynKN+xiajPWnu7AM3MwpO3QJPOjaaNPZrWI45Rn36ax6BpBbkLu78ATXJhLDH21XvGpLhHfXrpIgPNJKANvNwBhYXo0jg22KMrBsQx6tNLJxFoph6PIPyzZQye24YxfMQeTesRx6hPD3Vb+JVu4H3ePAHP9MwKbs9U9P6SfnGF+vTP2RQ8ycoC9i4CT7K1B26PVNS0HlGftbVNwBMFfoRnBKZxbmX7hPLdmoj6rKV8DKaRBe4UTK2ulasfoXw3JqI+6+jw9Yc+upe7AdN0ZaWag+DCRNRnDfVSHNL68VJHr/Bbbp4IGYHgzETUZ/1sEzDNgpkA8h9XEOwaVp4xypc1TUR91k1jhye0fvyLfAiqzspK8x7lOzcR9fmNvbtdShuIwji+UQIRA8hog6+0Aa1ApowvU/W5/xvr2M50piUIInvckP/vFvLh5Jx99mzdTLryql2T+uHc4aO8irlJCyAoJ7G8GuzkAqxyzVQLwh1jAUDQ4yultRo87l1pQbBjLAD4iMlQfuU7ukBxmd5YfiW8ygkgBI3TRH5d1W7kMuvKs681q8kAQrTXlmfFyNVO71qeDVkqCuCTPbfk2bjnash/BYnOahRMABCew7NI/6N+VKSCKO87APgk/VwLqB/VqSAZe30AfJKLTAuoH9XJYklq1y6fACAEpafn1I+KVZAuZ+kAzH3rahH1Y6tGhbyLf9ZmSQyAMDQ6icqQ361cD6J8h9+ZBxCeaa4y9B/bNrqWf9nOv/QIIBwnmfy7rn3/8WovVymaEABVNM1lICUf9NvxgQzEHU5CAHjX6MQy8Fir/btvad7LQsqtQgCe9VNZaLNm46/GXEvx0BSAqjBqPzRnoGJfQXRPagGAN6OBTFxSP/7V0TKchACoAqv2Q7x2tOAkkomUOBYAD6apTETM4ktcRFqCJgRA4A5PY5lIfjiUuE20FE0IgIBNU9mIvziUmrRkIzkiQg1ga5pHiWy0Jg5L9AsZGfMVAGzJZCwjBbfZ3jAby0hyShMCoFLth65Yf/Wm44GsDHmsEMCH3bZkZcBv7wqNJ5kZ0A0C+JDpgcw8ESBdrRPJSswcC8Dmmquzu1z/WEcV47ySimcHABt5LrQC1z/s3WQyE12yVB/ABnrzSGayF4c1nQ9lp3XnAOCd7vZlZ/jgsLZRLkPpuQOAdzjPZShnj/i7NOcyFLVnDgDWNBvI0hOvR4W6nfePjDwWgPCyV8SvNvSSyVLBGRWANdwUsrRPVHQjD12tgXuFAFaq5M3BV93vDhU4SpeSs2MHAL/YuxultKEgDMOJgRIwgAgkIIL8FFSwzqC0ne/+b6x16jjjTG1R4exJ8j63QCbh7O63503dYSynEtrnH9bdyq3NLgCAN+xacqtBc/YTKoNQ/8dIL4Dju0jkVjgI8Ck/I+2BVgiA4+pkcqx2HuCTOgs5Fl9SdQTwSvsylmNj4mkH0G3ItahJ4RHAiy/NSK7d8xY6jF4s1zZcXA/gWX8j1+JRgANZRnLukelrAL+tHuVcRLD5gNZjORc26KYDpXfbCOXcjLvPn+VxueJLN51fESi1+f69c9ofPrsL5V56RzYdKK3uIJV7YTPAwV20tCcGsgDkcvRKUosw81GcZLIwGbGLHyid09FEFhpcsv1Kvud5n3xlphcomf5GFmLu/jii85pMJKwUAErkPNH+WF6SG+1H2ZgtAwClsJzJRkb56m8KUMbiFAKUw3tOH5Svcmc6kZH6TQCg0KaJjEymARyYJzISNm4DAIW1aoQyUie2/C+FKGMpzB4CAIX0kIUyUqV85dC0JSvxPSuygALq3Mey0qI87tSXocyEGUlRoGBuslBmhuy7cG0X6b1opwPwavLqSbQL4Nw6kaGEXAhQEEvbdwk315qoNGO9A58QAB7FBgl/GLvZyNLiuhIAyLHK9UKWNjRUDZ1sZWq84xMC5FalP9ZHsHq3KPo1mWo1eQKAXDoZ1GSqxp5vc+2tbKVDEqRA7syHqWxt2wHs9SPZql6x4QTIldurqmxFHD88sa7LWJgRDAFy4yk1aCyjcOGPUaoPYqoXKJllImvpKIBHVmOZm/W5PB3w3Om3mcyNVwG8UmlWZa52xrEU8Nj8rCZz1R7T//65WMhe+oN+OuCp1aUHfzO1IDvopdOefSdEUkIlC/DP6bUHdW4p7fF+8FXHfByLcCHgo5NmSz6oc52QxyrffTiiShHNEMAf67NIPkjpfnhuvpUXwnqfRwXwQKVfN099/NH4xd6daKUNRGEcn7AJgYAnkSUSltrksNXl4FLn/V+sSoKUWrValzsz/98zEGa5371D67l8XQExi40VN1nAVysFKy3DmFYxI5QSLUR1slYAvsz6yyeWbHkJ+0lT3I61FGSygNexLXe10f6pYIxSIuTS887qmp0H8OlK1zJyV/e8G/4EzDKX0FZY6CXcZAGf6lhEz2BhxKxV41SGMoJ7uZSCOvBZOkGq5SjPFAzUmWhBqn6oAHy40Bd0+NDehOyuqUJJ+xCt04CfEvChOmJSu7mUfaPBagNJexGOIcAfbD58aF0NCGGabS1g+P+e0TBSAN5dNJST2s21SM8YT1Yx/V5vEjLlBHhXlVBMy+BWech3boPSYV0LcxCzNQHezTqWMsDoQX3AVYMtFpdanNERFXXAutBu4ZKX5WySyWlKfVD1MypswH9pdvvSrq7utJmbaBlpeazc+JDnZYA3W8dyxt7t9IKagm0k3mNp7TUuuCoF3qB0IeWdj319doV2CgXNx9pbQ2asIcCrRDOZq4f+TquXtWo/elqkg5hpa8A/m99IC+dze+WEUiwu0lsYx8cKwIuORRY+7tUPmZlqu4WvpUoHSwXgGcuBwMxuwSe664JM7i+w3j+lHAI8ITrtS71B0Dq9VXBCZSaubZWSOvC8aNiSWTbfaHeZW+KOWiC0mr5R7bOGAPuhK4n9gtTOnXUi6NV0utQB47rNd7zkRME1c2mD3on2Ao/N5Q1K3NfiQ3XTldxqeq59PudiFQ6rTM+lRna30isFV3VlPX/5F+VJxu0qnFTLJkLbBXdWXQWHNYfCj8fU1OEk4VXz3MGQSqXrItGBLNYQOMiI1UP3Aj5KKLU8Ex3IKvT8Lj9XOCDq+gbs6bR3RvQKuaXsTO+W1woYFA2rLQLJ3YI7XsLYIexMW9oIXitg3g4stQi+GbF6kNzFI9OGNkQ7ockQtmlmifTA7oPGVAHmLiG67FNUhz2imS8+sMvygZdkI22Mnj/rKMB4nQsjiuaFUaaAp4TC55vsa8chXYYwWC1L2togLU4fsGkJ0dXGEXEQGGl51DCg2+M333juHC8LDbrI2h5EqKrDKM0wNurowfLxi7170UoUigIwHOYNAkRCIaBBU8RRqWl0Vbz/i40201qmVI554Rz+7xl0bfb1YGfVtOhXFrc0og6vMUMQrTQq/gWhDYOUu6aQtZD1ygzZVUfRXXfE6nqQfUD2od71jojhXwAF5RuCdT0Y3MXeem4mooYWcKQHhXMXaMLVrV65hA/s51mQAyebmvqMl6hQHNWxpzczIekUr7C/sSvIcZ7cahZBBGd31ROzbrWiaL8vgO/4rYkaQrKsS0sEZ+UbqkBb5huUiPCB7xsLHEKybPq0YMAXZ1DpPBX+xehPKBofXziMiSXOqbc8ZsiWCE6pIuSw7ppLj0tzOJyWJ3YIyZq69cKWCE6g8mKJ2jEnfOBY6olw6+lbzCjgSUMcUTuIxM48VoYJl4FweNVYwPX0LQ3NobaLI/AdQRc93tNjhhdxJM8irqdvM6NfPIyLA/r5S4LMY0V9vgCOx9cEL+++aTwaPR4TwbfVe4YrQ+ax1IxIznFsLUOYt5u/ogzDhKYI9jZKwqHIM+7v/DDonOMU6skgk0fDNXo0DfGfruRJPF4N6JzjZKoLQa9kfeDSndlsimBHFXvmCj7WvkGlc47Tat+IeuDn41TEi4ki+FQl9qRKPFZqN9RxsROaIV9QhpFDbx353XJHklGrd344fDXhPOqB+MuFObqqteBJEayZLCyBryJ+YhjwuYQz8kPZKln/dPWbZERhuPSqo+RGlzJ2ZFktZGwXe6CSRRRBqWPHksnYLgqhGqvSDMMTRSB/7MgyxbX5SaMw/HtJK1lvGnMrHTEpXwJXo9RSZRu02lC7p3aFYrkOZNouzKeYrhfTXpdWO/ZcU+Zk+q9BwMMGKJ5qPJf/z7dkPnoLBucl0154jxLO6G5T5i/UrlBQbUvy3H+tMfLksLwug5bthFK3O9Y1rMkFUFxVW5Zzvbvo3kYGNS1RtWMjui1L6FhqajTOUXx3Es/15rrUQ8dmJFIgr1mHXNesvmQafOlADPVUrluLu1Cm7kPQI4wUXMsOHtxpKXp16xQ1ZYQQAildGvJP03StoMeUS+Fc9wLLNUtUXl3zg+QDwqkneuk+9N4o0/lDYNOvLILqxA4e5iWYzv2Aoqecu4KQ7oxpVmoNNTQ6PvnIWVz7HaN0nY5NA4fkAwLzwxKNuXzk8lbziCOnsoocnnZb8six0uVYIoRXCfoZlhRTvZ+lY/rsR9Map7N7tbzVqvf6AXtKkMLEKMWS746aphoaic0y+8G07cAL1ZJ2yPNN6ZtDIlfxI3/vDY1+ZDmxT0ayt5YfO1bUL8v1g53VNM6VQDYth1JWrpqpE0n+x52/cKxIJ+PI1+eNWvxh786WEwWDMAyrCAQEBdRhF1ARHNdUNNH7v7GZVOUgU5NKNHFheZ/znKb9++tuqmnu0Mr6tLelRZv9KjYZu/yANI9X+w1143Ndh9YoKmxWm3OLPyHKoR04furVvpE99lLfCexQpmx8TTZmDaDapKHNP4OTyRMlcpfbNDdrNAXcN/N0u3QjZcKvjZM9PO54uaIWWsQh3yCOEntt7FeH3Kxgk7tl5odsb6ztZFTxj1tehcbMLurEdGq+pP4zTXmq2euNvt3Fs3FJz+RJ41m82+qbta1NZXY3fmBB8IH6mTnTIy5ClKehZkeuM8hSq5glpTOexVaaDRw3srVwKvPMuJCpQ/CBmoqfaXJfgyh3J4mirp+N5d4fHixvPm7dMEPpt8Zzz0qH/n5pPEeqkky6FIyrkN24AdRX21pztOhGHgS5uwgT5UlVg8AwdF33fX84HL5YVu55c9Pstd70PyoKb3qmOfe83LJe/v6p7/u6rhtGEKjqk5KEi64sMCJxI0LAFwaBThpxcBE4y6/oUMBGJXAP0vCRFgdwIlFlZBd4T0oD8hDgS7JrUT2A/7RjlxoCfJ6ak3sA1BDgTCOqB/B1DRkdAfxjYVA9gFO0LfZDgPdvDyZ2gTPMdI3zFsCxqensmgNn++1ztxf1JtoZHxoDvqmfRiyqo6aEKGVgFyBUBwjNgbtoxwaHe1EjUyOnegCX08tULmahBgSV2AO4vA4PEVRcaMTcSASuxfRtzi6ikkTb58uCwJVJFqk6qmbEiUTgRtq5k7BmiIpoJg6ZOXBTkmWER6DkQoOnB3AXpq+yZ4jSEtRs3ABwN21PVzh4gtJ5UHSPvhVwf70s4novSkSOVux6AMVh+hGzWSiBUZAxrQsUD5EIik1QWfUAius1EmHTEAUkEnoAJdAhV0exvCbmnCgByqK3cyesGqIAmqG7azUAlIsU087CXYmKHrMmCJRVx9NtgnXcgWDTtgLKr+MNmM7CLQnqgMAcqAwp5iWCm5BtnW96AH/Yu7ekxIEwDMOYiJC2kzQNMWdDGJIQEdCiorL/jU3p6I2WU6Igp/fZxFf/qfv4jLxQsp6FrelKVfC4FXC8+pQi2AbTt4f9FoBjd15WCZ/jYmPGSVUy8gBOSG+2kCz54ofacjHjdRLgJPWqkBTBd7Mj9Jh4AKftsoyzMVfrWMPZc9OKVSsAL9wiWDJbxxeYy6DgMw8A7xg68PmZCp8aZ4Mhz1oB+NSoIEXwQccPNNkBgBTBmtnBeSCA9fQ85fNN7km79gOPJV0A33RZVqHFeP3kdKyQPSsAmzAqbFZ9T8TZOLNpWQHYLFc38/xqhaN1lc8bzYougG0xhnFoMWA/Mo6vqogtKwC/wYgq5TsrHDyiA8BO3Dw2iaQaOVAdmTSPNy0A2J3L0rOzlDcZD8ZVmtkeK1YA9sdIMxzZdx0rjDUbVgD2042OF/d/KEf2TPvPvYo1/SoAB8CIPDuxHE5HduzMsRLbY0gO4PC4wyoQOX2tHejkIqiGHHUAOHSvBUl3hS3rUnIAOEoX9VOsqEi2opMLFT/WFy0AOGpGVMQqY0ayiYIjU3FBxQHg9BiRN1BCkiTrzsalUAM6VQDQavVrPbNDIacsAP9HeyrFopnput8CALxnlLp6jhKHKHnVdqQI7UqX1BsA8OUsGXqDIBRyfHI/WpljKcJg4A1JDQD4GfclSx6yZT492jAxp/ky+5canG8AwDacu/XkaTYIwuc46RzwbUm78xoZs6dJ7Z63AAC/6sKtJ9q7a4Iw82XqmHu70HVmOqn0szBo7jw9qV1ONgBgz1wYvTLSxSxubtXDXCxlOnVMc/WLTNOZpnIp5g/qtom9QkdlzyAvAOBAnRtur44muvCquLEDpcIkmQshLMvK03TsONfmm+7qg6755tpxxmmaW5YlhJgnSahUYDdx5RV6EtU916AXBQAAAAAAAAAAAAD4yx4cCAAAAAAA+b82gqqqqqqqqqqqqqqqqqqqqqqqqqqqqqqqqqqqqqqqqqqqqqqqqqqqqqqqqqqqqqqqqqqqqqqqqqqqqqqqsAcHAgAAAABA/q+NoKqqqqqqqqqqqqqqqqqqqqqqqqqqqqqqqqqqqqqqqqqqqqqqqqqqqqqqqqqqqqqqqqqqqqqqqqqqqqoq7MGBAAAAAACQ/2sjqKqqqqqqqqqqqqqqqqqqqqqqqqqqqqqqqqqqqqqqqqqqqqqqqqqqqqqqqqqqqqqqqqqqqqqqqqqqqqoKe3AgAAAAAADk/9oIqqqqqqqqqqqqqqqqqqqqqqqqqqqqqqqqqqqqqqqqqqqqqqqqqqqqqqqqqqqqqqqqqqqqqqqqqqqqqqrCHhwIAAAAAAD5vzaCqqqqqqqqqqqqqqqqqqqqqqqqqqqqqqqqqqqqqqqqqqqqqqqqqqqqqqqqqqqqqqqqqqqqqqqqqqqqqqqwBwcCAAAAAED+r42gqqqqqqqqqqqqqqqqqqqqqqqqqqqqqqqqqqqqqqqqqqqqqqqqqqqqqqqqqqqqqqqqqqqqqqqqqqqqqirswYEAAAAAAJD/ayOoqqqqqqqqqqqqqqqqqqqqqqqqqqqqqqqqqqqqqqqqqqqqqqqqqqqqqqqqqqqqqqqqqqqqqqqqqqqqqgp7cCAAAAAAAOT/2giqqqqqqqqqqqqqqqqqqqqqqqqqqqqqqqqqqqqqqqqqqqqqqqqqqqqqqqqqqqqqqqqqqqqqqqqqqqqqqsIeHAgAAAAAAPm/NoKqqqqqqqqqqqqqqqqqqqqqqqqqqqqqqqqqqqqqqqqqqqqqqqqqqqqqqqqqqqqqqqqqqqqqqqqqqqqqqrQHByQAAAAAgv6/7keoAAAAAAAAAAAAAAAAAAAAAAAAAAAAAAAAAAAAAAAAAAAAAAAAAAAAAAAAAAAAAAAAAAAAAAAAAPARb5AmX6FxmRkAAAAASUVORK5CYII=;" vertex="1" parent="IJQR4OGKdWdGs9fNsD_m-11">
          <mxGeometry x="5" y="28" width="24" height="24" as="geometry" />
        </mxCell>
        <mxCell id="M-M-LhbsIdI5wGWc-zYi-12" value="" style="endArrow=classic;html=1;rounded=0;fillColor=#fff2cc;strokeColor=#999999;" edge="1" parent="1" source="IJQR4OGKdWdGs9fNsD_m-56" target="M-M-LhbsIdI5wGWc-zYi-9">
          <mxGeometry width="50" height="50" relative="1" as="geometry">
            <mxPoint x="204" y="460" as="sourcePoint" />
            <mxPoint x="301" y="660" as="targetPoint" />
          </mxGeometry>
        </mxCell>
        <mxCell id="M-M-LhbsIdI5wGWc-zYi-13" value="" style="endArrow=classic;html=1;rounded=0;fillColor=#fff2cc;strokeColor=#999999;" edge="1" parent="1" source="M-M-LhbsIdI5wGWc-zYi-9" target="IJQR4OGKdWdGs9fNsD_m-1">
          <mxGeometry width="50" height="50" relative="1" as="geometry">
            <mxPoint x="131" y="750" as="sourcePoint" />
            <mxPoint x="181" y="700" as="targetPoint" />
          </mxGeometry>
        </mxCell>
        <mxCell id="M-M-LhbsIdI5wGWc-zYi-43" value="Write&amp;nbsp; &lt;br&gt;files" style="edgeLabel;html=1;align=center;verticalAlign=middle;resizable=0;points=[];fontColor=#999999;" connectable="0" vertex="1" parent="M-M-LhbsIdI5wGWc-zYi-13">
          <mxGeometry x="0.2697" relative="1" as="geometry">
            <mxPoint x="16" as="offset" />
          </mxGeometry>
        </mxCell>
        <mxCell id="M-M-LhbsIdI5wGWc-zYi-14" value="" style="endArrow=classic;html=1;rounded=0;exitX=0.75;exitY=0;exitDx=0;exitDy=0;fillColor=#fff2cc;strokeColor=#999999;" edge="1" parent="1" source="M-M-LhbsIdI5wGWc-zYi-9" target="IJQR4OGKdWdGs9fNsD_m-21">
          <mxGeometry width="50" height="50" relative="1" as="geometry">
            <mxPoint x="931" y="350" as="sourcePoint" />
            <mxPoint x="981" y="300" as="targetPoint" />
          </mxGeometry>
        </mxCell>
        <mxCell id="M-M-LhbsIdI5wGWc-zYi-37" value="&lt;div&gt;crud&lt;br&gt;&lt;/div&gt;" style="edgeLabel;html=1;align=center;verticalAlign=middle;resizable=0;points=[];fontColor=#999999;" connectable="0" vertex="1" parent="M-M-LhbsIdI5wGWc-zYi-14">
          <mxGeometry x="0.4184" y="-2" relative="1" as="geometry">
            <mxPoint x="-2" y="20" as="offset" />
          </mxGeometry>
        </mxCell>
        <mxCell id="M-M-LhbsIdI5wGWc-zYi-15" value="" style="endArrow=classic;html=1;rounded=0;exitX=1;exitY=0.75;exitDx=0;exitDy=0;entryX=0;entryY=0.25;entryDx=0;entryDy=0;fillColor=#fff2cc;strokeColor=#999999;" edge="1" parent="1" source="M-M-LhbsIdI5wGWc-zYi-9" target="IJQR4OGKdWdGs9fNsD_m-19">
          <mxGeometry width="50" height="50" relative="1" as="geometry">
            <mxPoint x="341" y="750" as="sourcePoint" />
            <mxPoint x="391" y="700" as="targetPoint" />
          </mxGeometry>
        </mxCell>
        <mxCell id="M-M-LhbsIdI5wGWc-zYi-45" value="init &lt;br&gt;update &lt;br&gt;search" style="edgeLabel;html=1;align=center;verticalAlign=middle;resizable=0;points=[];fontColor=#999999;" connectable="0" vertex="1" parent="M-M-LhbsIdI5wGWc-zYi-15">
          <mxGeometry x="-0.2499" y="2" relative="1" as="geometry">
            <mxPoint x="-3" y="1" as="offset" />
          </mxGeometry>
        </mxCell>
        <mxCell id="M-M-LhbsIdI5wGWc-zYi-16" value="" style="endArrow=classic;html=1;rounded=0;fillColor=#fff2cc;strokeColor=#999999;" edge="1" parent="1" target="IJQR4OGKdWdGs9fNsD_m-34">
          <mxGeometry width="50" height="50" relative="1" as="geometry">
            <mxPoint x="500" y="290" as="sourcePoint" />
            <mxPoint x="941" y="290" as="targetPoint" />
            <Array as="points">
              <mxPoint x="500" y="240" />
              <mxPoint x="580" y="240" />
            </Array>
          </mxGeometry>
        </mxCell>
        <mxCell id="M-M-LhbsIdI5wGWc-zYi-38" value="read" style="edgeLabel;html=1;align=center;verticalAlign=middle;resizable=0;points=[];fontColor=#999999;" connectable="0" vertex="1" parent="M-M-LhbsIdI5wGWc-zYi-16">
          <mxGeometry x="0.199" relative="1" as="geometry">
            <mxPoint x="-52" y="5" as="offset" />
          </mxGeometry>
        </mxCell>
        <mxCell id="M-M-LhbsIdI5wGWc-zYi-21" value="" style="endArrow=classic;html=1;rounded=0;exitX=0.25;exitY=0;exitDx=0;exitDy=0;fillColor=#fff2cc;strokeColor=#999999;" edge="1" parent="1" source="IJQR4OGKdWdGs9fNsD_m-31" target="IJQR4OGKdWdGs9fNsD_m-19">
          <mxGeometry width="50" height="50" relative="1" as="geometry">
            <mxPoint x="451" y="700" as="sourcePoint" />
            <mxPoint x="501" y="650" as="targetPoint" />
            <Array as="points" />
          </mxGeometry>
        </mxCell>
        <mxCell id="M-M-LhbsIdI5wGWc-zYi-26" value="search" style="edgeLabel;html=1;align=center;verticalAlign=middle;resizable=0;points=[];fontColor=#999999;" connectable="0" vertex="1" parent="M-M-LhbsIdI5wGWc-zYi-21">
          <mxGeometry x="-0.4808" y="-1" relative="1" as="geometry">
            <mxPoint x="-2" y="-9" as="offset" />
          </mxGeometry>
        </mxCell>
        <mxCell id="M-M-LhbsIdI5wGWc-zYi-24" value="" style="endArrow=classic;html=1;rounded=0;fillColor=#fff2cc;strokeColor=#999999;" edge="1" parent="1" source="IJQR4OGKdWdGs9fNsD_m-33" target="IJQR4OGKdWdGs9fNsD_m-34">
          <mxGeometry width="50" height="50" relative="1" as="geometry">
            <mxPoint x="1021" y="400" as="sourcePoint" />
            <mxPoint x="1071" y="350" as="targetPoint" />
            <Array as="points">
              <mxPoint x="746" y="163" />
            </Array>
          </mxGeometry>
        </mxCell>
        <mxCell id="M-M-LhbsIdI5wGWc-zYi-39" value="crud" style="edgeLabel;html=1;align=center;verticalAlign=middle;resizable=0;points=[];fontColor=#999999;" connectable="0" vertex="1" parent="M-M-LhbsIdI5wGWc-zYi-24">
          <mxGeometry x="-0.6567" y="-2" relative="1" as="geometry">
            <mxPoint x="-2" y="-5" as="offset" />
          </mxGeometry>
        </mxCell>
        <mxCell id="M-M-LhbsIdI5wGWc-zYi-25" value="" style="endArrow=classic;html=1;rounded=0;fillColor=#fff2cc;strokeColor=#999999;" edge="1" parent="1" source="IJQR4OGKdWdGs9fNsD_m-33">
          <mxGeometry width="50" height="50" relative="1" as="geometry">
            <mxPoint x="680" y="315.38371681415947" as="sourcePoint" />
            <mxPoint x="519" y="320" as="targetPoint" />
          </mxGeometry>
        </mxCell>
        <mxCell id="M-M-LhbsIdI5wGWc-zYi-42" value="crud&lt;br&gt;metadata" style="edgeLabel;html=1;align=center;verticalAlign=middle;resizable=0;points=[];fontColor=#999999;" connectable="0" vertex="1" parent="M-M-LhbsIdI5wGWc-zYi-25">
          <mxGeometry x="-0.0578" relative="1" as="geometry">
            <mxPoint x="40" as="offset" />
          </mxGeometry>
        </mxCell>
        <mxCell id="M-M-LhbsIdI5wGWc-zYi-31" value="" style="endArrow=classic;html=1;rounded=0;fillColor=#dae8fc;strokeColor=#6c8ebf;" edge="1" parent="1" source="M-M-LhbsIdI5wGWc-zYi-48" target="IJQR4OGKdWdGs9fNsD_m-56">
          <mxGeometry width="50" height="50" relative="1" as="geometry">
            <mxPoint x="561" y="626.8932038834953" as="sourcePoint" />
            <mxPoint x="361" y="610" as="targetPoint" />
          </mxGeometry>
        </mxCell>
        <mxCell id="M-M-LhbsIdI5wGWc-zYi-32" value="crud &lt;br&gt;(meta)data&lt;br&gt;in code" style="edgeLabel;html=1;align=center;verticalAlign=middle;resizable=0;points=[];fontColor=#4E9DF0;" connectable="0" vertex="1" parent="M-M-LhbsIdI5wGWc-zYi-31">
          <mxGeometry x="-0.0227" relative="1" as="geometry">
            <mxPoint y="12" as="offset" />
          </mxGeometry>
        </mxCell>
        <mxCell id="M-M-LhbsIdI5wGWc-zYi-33" value="" style="endArrow=classic;html=1;rounded=0;fillColor=#dae8fc;strokeColor=#6c8ebf;" edge="1" parent="1" source="M-M-LhbsIdI5wGWc-zYi-48" target="IJQR4OGKdWdGs9fNsD_m-1">
          <mxGeometry width="50" height="50" relative="1" as="geometry">
            <mxPoint x="561" y="640" as="sourcePoint" />
            <mxPoint x="731" y="630" as="targetPoint" />
            <Array as="points">
              <mxPoint x="146" y="662" />
            </Array>
          </mxGeometry>
        </mxCell>
        <mxCell id="M-M-LhbsIdI5wGWc-zYi-34" value="access&lt;br&gt;actual data" style="edgeLabel;html=1;align=center;verticalAlign=middle;resizable=0;points=[];fontColor=#4e9df0;" connectable="0" vertex="1" parent="M-M-LhbsIdI5wGWc-zYi-33">
          <mxGeometry x="-0.3471" y="-1" relative="1" as="geometry">
            <mxPoint x="-80" y="-39" as="offset" />
          </mxGeometry>
        </mxCell>
        <mxCell id="M-M-LhbsIdI5wGWc-zYi-35" value="" style="endArrow=classic;html=1;rounded=0;exitX=0.605;exitY=0.581;exitDx=0;exitDy=0;exitPerimeter=0;fillColor=#dae8fc;strokeColor=#6c8ebf;" edge="1" parent="1" source="M-M-LhbsIdI5wGWc-zYi-48" target="IJQR4OGKdWdGs9fNsD_m-31">
          <mxGeometry width="50" height="50" relative="1" as="geometry">
            <mxPoint x="591" y="636.9036697247707" as="sourcePoint" />
            <mxPoint x="631" y="600" as="targetPoint" />
            <Array as="points">
              <mxPoint x="690" y="665" />
            </Array>
          </mxGeometry>
        </mxCell>
        <mxCell id="M-M-LhbsIdI5wGWc-zYi-36" value="crud&lt;br&gt;(meta)data&lt;br&gt;on website" style="edgeLabel;html=1;align=center;verticalAlign=middle;resizable=0;points=[];fontColor=#4E9DF0;" connectable="0" vertex="1" parent="M-M-LhbsIdI5wGWc-zYi-35">
          <mxGeometry x="-0.0203" y="-2" relative="1" as="geometry">
            <mxPoint x="100" y="-46" as="offset" />
          </mxGeometry>
        </mxCell>
        <mxCell id="M-M-LhbsIdI5wGWc-zYi-48" value="USER" style="fillColor=#28A8E0;verticalLabelPosition=bottom;sketch=0;html=1;strokeColor=#ffffff;verticalAlign=top;align=center;points=[[0.145,0.145,0],[0.5,0,0],[0.855,0.145,0],[1,0.5,0],[0.855,0.855,0],[0.5,1,0],[0.145,0.855,0],[0,0.5,0]];pointerEvents=1;shape=mxgraph.cisco_safe.compositeIcon;bgIcon=ellipse;resIcon=mxgraph.cisco_safe.capability.user;fontColor=#4E9DF0;" vertex="1" parent="1">
          <mxGeometry x="371" y="640" width="43" height="43" as="geometry" />
        </mxCell>
        <mxCell id="M-M-LhbsIdI5wGWc-zYi-49" value="" style="endArrow=none;dashed=1;html=1;dashPattern=1 3;strokeWidth=2;rounded=0;" edge="1" parent="1">
          <mxGeometry width="50" height="50" relative="1" as="geometry">
            <mxPoint x="80" y="580" as="sourcePoint" />
            <mxPoint x="830" y="580" as="targetPoint" />
          </mxGeometry>
        </mxCell>
      </root>
    </mxGraphModel>
  </diagram>
</mxfile>
